G04 Layer_Physical_Order=1*
G04 Layer_Color=255*
%FSLAX44Y44*%
%MOMM*%
G71*
G01*
G75*
%ADD10R,0.4500X1.5000*%
%ADD11R,0.8000X0.4000*%
%ADD12R,0.8000X0.3000*%
%ADD13R,0.4000X0.4000*%
%ADD14R,1.5500X1.3000*%
%ADD15C,0.3000*%
%ADD16C,0.4000*%
%ADD17R,1.5240X1.7780*%
%ADD18R,5.8420X1.3970*%
%ADD19O,2.2000X1.1000*%
G36*
X390366Y-141316D02*
X-390366D01*
Y140306D01*
X390366D01*
Y-141316D01*
D02*
G37*
%LPC*%
G36*
X-50290Y-25040D02*
X-59310D01*
Y-32810D01*
X-50290D01*
Y-25040D01*
D02*
G37*
G36*
X58980D02*
X49960D01*
Y-32810D01*
X58980D01*
Y-25040D01*
D02*
G37*
G36*
X70540D02*
X61520D01*
Y-32810D01*
X70540D01*
Y-25040D01*
D02*
G37*
G36*
X-141350D02*
X-150370D01*
Y-32810D01*
X-141350D01*
Y-25040D01*
D02*
G37*
G36*
X-129790D02*
X-138810D01*
Y-32810D01*
X-129790D01*
Y-25040D01*
D02*
G37*
G36*
X-61850D02*
X-70870D01*
Y-32810D01*
X-61850D01*
Y-25040D01*
D02*
G37*
G36*
X-363790Y-28530D02*
X-369060D01*
Y-31800D01*
X-363790D01*
Y-28530D01*
D02*
G37*
G36*
X-21080Y-16228D02*
X-22864Y-16583D01*
X-24376Y-17594D01*
X-25387Y-19106D01*
X-25742Y-20890D01*
X-25387Y-22674D01*
X-24376Y-24186D01*
X-22864Y-25197D01*
X-21080Y-25552D01*
X-19296Y-25197D01*
X-17784Y-24186D01*
X-16773Y-22674D01*
X-16418Y-20890D01*
X-16773Y-19106D01*
X-17784Y-17594D01*
X-19296Y-16583D01*
X-21080Y-16228D01*
D02*
G37*
G36*
X-141350Y-14730D02*
X-150370D01*
Y-22500D01*
X-141350D01*
Y-14730D01*
D02*
G37*
G36*
X138480Y-25040D02*
X129460D01*
Y-32810D01*
X138480D01*
Y-25040D01*
D02*
G37*
G36*
X150040D02*
X141020D01*
Y-32810D01*
X150040D01*
Y-25040D01*
D02*
G37*
G36*
X-371600Y-28530D02*
X-376870D01*
Y-31800D01*
X-371600D01*
Y-28530D01*
D02*
G37*
G36*
X-267228Y-83820D02*
X-279400D01*
Y-90659D01*
X-275170D01*
X-273071Y-90383D01*
X-271115Y-89573D01*
X-269436Y-88284D01*
X-268147Y-86605D01*
X-267337Y-84649D01*
X-267228Y-83820D01*
D02*
G37*
G36*
X-281940Y-74441D02*
X-286170D01*
X-288269Y-74717D01*
X-290225Y-75527D01*
X-291904Y-76816D01*
X-293193Y-78495D01*
X-294003Y-80451D01*
X-294112Y-81280D01*
X-281940D01*
Y-74441D01*
D02*
G37*
G36*
X-275170D02*
X-279400D01*
Y-81280D01*
X-267228D01*
X-267337Y-80451D01*
X-268147Y-78495D01*
X-269436Y-76816D01*
X-271115Y-75527D01*
X-273071Y-74717D01*
X-275170Y-74441D01*
D02*
G37*
G36*
X-365760Y-101425D02*
X-369421Y-101907D01*
X-372832Y-103320D01*
X-375762Y-105568D01*
X-378010Y-108497D01*
X-379423Y-111909D01*
X-379905Y-115570D01*
X-379423Y-119231D01*
X-378010Y-122642D01*
X-375762Y-125572D01*
X-372832Y-127820D01*
X-369421Y-129233D01*
X-365760Y-129715D01*
X-362099Y-129233D01*
X-358688Y-127820D01*
X-355758Y-125572D01*
X-353510Y-122642D01*
X-352097Y-119231D01*
X-351615Y-115570D01*
X-352097Y-111909D01*
X-353510Y-108497D01*
X-355758Y-105568D01*
X-358688Y-103320D01*
X-362099Y-101907D01*
X-365760Y-101425D01*
D02*
G37*
G36*
X364240D02*
X360579Y-101907D01*
X357168Y-103320D01*
X354238Y-105568D01*
X351990Y-108497D01*
X350577Y-111909D01*
X350095Y-115570D01*
X350577Y-119231D01*
X351990Y-122642D01*
X354238Y-125572D01*
X357168Y-127820D01*
X360579Y-129233D01*
X364240Y-129715D01*
X367901Y-129233D01*
X371312Y-127820D01*
X374242Y-125572D01*
X376490Y-122642D01*
X377903Y-119231D01*
X378385Y-115570D01*
X377903Y-111909D01*
X376490Y-108497D01*
X374242Y-105568D01*
X371312Y-103320D01*
X367901Y-101907D01*
X364240Y-101425D01*
D02*
G37*
G36*
X-281940Y-83820D02*
X-294112D01*
X-294003Y-84649D01*
X-293193Y-86605D01*
X-291904Y-88284D01*
X-290225Y-89573D01*
X-288269Y-90383D01*
X-286170Y-90659D01*
X-281940D01*
Y-83820D01*
D02*
G37*
G36*
X-253940Y-52941D02*
X-258170D01*
X-260269Y-53217D01*
X-261610Y-53773D01*
X-262880Y-53510D01*
Y-53510D01*
X-266400D01*
Y-63550D01*
Y-73590D01*
X-262880D01*
Y-69077D01*
X-261610Y-68327D01*
X-260269Y-68883D01*
X-258170Y-69159D01*
X-253940D01*
Y-61050D01*
Y-52941D01*
D02*
G37*
G36*
X-371600Y-34340D02*
X-376870D01*
Y-37610D01*
X-371600D01*
Y-34340D01*
D02*
G37*
G36*
X-363790D02*
X-369060D01*
Y-37610D01*
X-363790D01*
Y-34340D01*
D02*
G37*
G36*
X-309940Y-62320D02*
X-322112D01*
X-322003Y-63149D01*
X-321193Y-65105D01*
X-319904Y-66784D01*
X-318225Y-68073D01*
X-316269Y-68883D01*
X-314170Y-69159D01*
X-309940D01*
Y-62320D01*
D02*
G37*
G36*
X-239228D02*
X-251400D01*
Y-69159D01*
X-247170D01*
X-245071Y-68883D01*
X-243115Y-68073D01*
X-241436Y-66784D01*
X-240147Y-65105D01*
X-239337Y-63149D01*
X-239228Y-62320D01*
D02*
G37*
G36*
X-247170Y-52941D02*
X-251400D01*
Y-59780D01*
X-239228D01*
X-239337Y-58951D01*
X-240147Y-56995D01*
X-241436Y-55316D01*
X-243115Y-54027D01*
X-245071Y-53217D01*
X-247170Y-52941D01*
D02*
G37*
G36*
X-239650Y68940D02*
X-248670D01*
Y61170D01*
X-239650D01*
Y68940D01*
D02*
G37*
G36*
X-228090D02*
X-237110D01*
Y61170D01*
X-228090D01*
Y68940D01*
D02*
G37*
G36*
X-319150Y79250D02*
X-328170D01*
Y71480D01*
X-319150D01*
Y79250D01*
D02*
G37*
G36*
X-363790Y36470D02*
X-369060D01*
Y33200D01*
X-363790D01*
Y36470D01*
D02*
G37*
G36*
X-319150Y68940D02*
X-328170D01*
Y61170D01*
X-319150D01*
Y68940D01*
D02*
G37*
G36*
X-307590D02*
X-316610D01*
Y61170D01*
X-307590D01*
Y68940D01*
D02*
G37*
G36*
X-365760Y128575D02*
X-369421Y128093D01*
X-372832Y126680D01*
X-375762Y124432D01*
X-378010Y121503D01*
X-379423Y118091D01*
X-379905Y114430D01*
X-379423Y110769D01*
X-378010Y107358D01*
X-375762Y104428D01*
X-372832Y102180D01*
X-369421Y100767D01*
X-365760Y100285D01*
X-362099Y100767D01*
X-358688Y102180D01*
X-355758Y104428D01*
X-353510Y107358D01*
X-352097Y110769D01*
X-351615Y114430D01*
X-352097Y118091D01*
X-353510Y121503D01*
X-355758Y124432D01*
X-358688Y126680D01*
X-362099Y128093D01*
X-365760Y128575D01*
D02*
G37*
G36*
X364240D02*
X360579Y128093D01*
X357168Y126680D01*
X354238Y124432D01*
X351990Y121503D01*
X350577Y118091D01*
X350095Y114430D01*
X350577Y110769D01*
X351990Y107358D01*
X354238Y104428D01*
X357168Y102180D01*
X360579Y100767D01*
X364240Y100285D01*
X367901Y100767D01*
X371312Y102180D01*
X374242Y104428D01*
X376490Y107358D01*
X377903Y110769D01*
X378385Y114430D01*
X377903Y118091D01*
X376490Y121503D01*
X374242Y124432D01*
X371312Y126680D01*
X367901Y128093D01*
X364240Y128575D01*
D02*
G37*
G36*
X-229106Y123234D02*
X-247654D01*
Y118293D01*
X-308606D01*
Y123234D01*
X-327154D01*
Y110296D01*
X-360320Y77130D01*
X-360989Y76130D01*
X-361223Y74950D01*
X-361223Y74950D01*
Y-8890D01*
X-361223Y-8890D01*
X-360989Y-10070D01*
X-360320Y-11070D01*
X-356140Y-15250D01*
X-356140Y-15250D01*
X-355140Y-15919D01*
X-353960Y-16153D01*
X-353960Y-16153D01*
X-350854D01*
Y-21480D01*
X-350900Y-21590D01*
Y-39370D01*
Y-53340D01*
X-350416Y-54506D01*
X-349250Y-54990D01*
X-321255D01*
X-320628Y-56260D01*
X-321193Y-56995D01*
X-322003Y-58951D01*
X-322112Y-59780D01*
X-308670D01*
Y-61050D01*
X-307400D01*
Y-69159D01*
X-303170D01*
X-301071Y-68883D01*
X-299115Y-68073D01*
X-298583Y-67664D01*
X-297444Y-68226D01*
Y-72574D01*
X-272460D01*
Y-73590D01*
X-268940D01*
Y-63550D01*
Y-53510D01*
X-272460D01*
Y-54526D01*
X-288297D01*
X-289180Y-53340D01*
Y-39370D01*
X-289664Y-38204D01*
X-290830Y-37720D01*
X-332360D01*
Y-21590D01*
X-332069Y-21153D01*
X-305271D01*
X-304886Y-22423D01*
X-305096Y-22564D01*
X-306107Y-24076D01*
X-306462Y-25860D01*
X-306107Y-27644D01*
X-305096Y-29156D01*
X-303584Y-30167D01*
X-301800Y-30522D01*
X-300016Y-30167D01*
X-298504Y-29156D01*
X-297493Y-27644D01*
X-297138Y-25860D01*
X-297493Y-24076D01*
X-298504Y-22564D01*
X-298714Y-22423D01*
X-298329Y-21153D01*
X-282230D01*
X-282230Y-21153D01*
X-282230Y-21153D01*
X-261910D01*
X-261910Y-21153D01*
X-260730Y-20919D01*
X-259730Y-20250D01*
X-252723Y-13243D01*
X1270D01*
X1270Y-13243D01*
X2450Y-13009D01*
X3450Y-12340D01*
X4420Y-11370D01*
X4420Y-11370D01*
X5088Y-10370D01*
X5323Y-9190D01*
Y-7094D01*
X5764D01*
Y-1094D01*
Y5954D01*
X-7284D01*
Y5513D01*
X-260233D01*
X-264639Y9919D01*
X-264646Y10083D01*
X-263408Y10783D01*
X-262944Y10473D01*
X-261160Y10118D01*
X-259376Y10473D01*
X-257864Y11484D01*
X-256853Y12996D01*
X-256498Y14780D01*
X-256853Y16564D01*
X-257062Y16877D01*
X-256383Y18147D01*
X-149354D01*
Y13206D01*
X-130806D01*
Y18147D01*
X-69854D01*
Y13206D01*
X-51306D01*
Y29254D01*
X-50319Y29937D01*
X24653D01*
X35540Y19050D01*
X35540Y19050D01*
X36540Y18382D01*
X37720Y18147D01*
X37720Y18147D01*
X50976D01*
Y13206D01*
X69524D01*
Y18147D01*
X130476D01*
Y13206D01*
X149024D01*
Y29254D01*
X130476D01*
Y24313D01*
X69524D01*
Y29254D01*
X50976D01*
Y24313D01*
X38997D01*
X28110Y35200D01*
X27110Y35868D01*
X25930Y36103D01*
X25930Y36103D01*
X-304500D01*
X-304500Y36103D01*
X-305680Y35868D01*
X-306681Y35200D01*
X-306681Y35200D01*
X-321867Y20013D01*
X-338790D01*
Y20660D01*
X-351870D01*
Y17890D01*
X-350854D01*
Y8906D01*
Y-1094D01*
Y-9987D01*
X-352683D01*
X-355057Y-7613D01*
Y73673D01*
X-321544Y107186D01*
X-308606D01*
Y112127D01*
X-247654D01*
Y107186D01*
X-229106D01*
Y123234D01*
D02*
G37*
G36*
X-307590Y79250D02*
X-316610D01*
Y71480D01*
X-307590D01*
Y79250D01*
D02*
G37*
G36*
X-239650D02*
X-248670D01*
Y71480D01*
X-239650D01*
Y79250D01*
D02*
G37*
G36*
X-228090D02*
X-237110D01*
Y71480D01*
X-228090D01*
Y79250D01*
D02*
G37*
G36*
X-371600Y36470D02*
X-376870D01*
Y33200D01*
X-371600D01*
Y36470D01*
D02*
G37*
G36*
X58980Y-14730D02*
X49960D01*
Y-22500D01*
X58980D01*
Y-14730D01*
D02*
G37*
G36*
X70540D02*
X61520D01*
Y-22500D01*
X70540D01*
Y-14730D01*
D02*
G37*
G36*
X138480D02*
X129460D01*
Y-22500D01*
X138480D01*
Y-14730D01*
D02*
G37*
G36*
X-129790D02*
X-138810D01*
Y-22500D01*
X-129790D01*
Y-14730D01*
D02*
G37*
G36*
X-61850D02*
X-70870D01*
Y-22500D01*
X-61850D01*
Y-14730D01*
D02*
G37*
G36*
X-50290D02*
X-59310D01*
Y-22500D01*
X-50290D01*
Y-14730D01*
D02*
G37*
G36*
X-338790Y25970D02*
X-344060D01*
Y23200D01*
X-338790D01*
Y25970D01*
D02*
G37*
G36*
X-371600Y30660D02*
X-376870D01*
Y27390D01*
X-371600D01*
Y30660D01*
D02*
G37*
G36*
X-363790D02*
X-369060D01*
Y27390D01*
X-363790D01*
Y30660D01*
D02*
G37*
G36*
X150040Y-14730D02*
X141020D01*
Y-22500D01*
X150040D01*
Y-14730D01*
D02*
G37*
G36*
X19560Y24412D02*
X17776Y24057D01*
X16264Y23046D01*
X15253Y21534D01*
X14898Y19750D01*
X15253Y17966D01*
X16264Y16454D01*
X17776Y15443D01*
X19560Y15088D01*
X21344Y15443D01*
X22856Y16454D01*
X23867Y17966D01*
X24222Y19750D01*
X23867Y21534D01*
X22856Y23046D01*
X21344Y24057D01*
X19560Y24412D01*
D02*
G37*
G36*
X-346600Y25970D02*
X-351870D01*
Y23200D01*
X-346600D01*
Y25970D01*
D02*
G37*
%LPD*%
D10*
X-293670Y-63550D02*
D03*
X-287170D02*
D03*
X-280670D02*
D03*
X-274170D02*
D03*
X-267670D02*
D03*
D11*
X-370330Y31930D02*
D03*
Y-33070D02*
D03*
D12*
X-345330Y21930D02*
D03*
Y16930D02*
D03*
Y11930D02*
D03*
Y6930D02*
D03*
Y1930D02*
D03*
Y-3070D02*
D03*
Y-8070D02*
D03*
Y-13070D02*
D03*
Y-18070D02*
D03*
Y-23070D02*
D03*
D13*
X2240Y-3570D02*
D03*
X-3760D02*
D03*
Y2430D02*
D03*
X2240D02*
D03*
X-278480Y-8540D02*
D03*
X-284480D02*
D03*
Y-2540D02*
D03*
X-278480D02*
D03*
D14*
X-238380Y70210D02*
D03*
X-317880D02*
D03*
X-238380Y115210D02*
D03*
X-317880D02*
D03*
X-60580Y-23770D02*
D03*
X-140080D02*
D03*
X-60580Y21230D02*
D03*
X-140080D02*
D03*
X139750Y-23770D02*
D03*
X60250D02*
D03*
X139750Y21230D02*
D03*
X60250D02*
D03*
D15*
X-345330Y-18070D02*
X-282230D01*
X-278480Y-14320D01*
Y-8540D01*
X-345330Y-8070D02*
X-284950D01*
X-284480Y-8540D01*
X-345330Y-3070D02*
X-285010D01*
X-284480Y-2540D01*
X-345330Y6930D02*
X-313434D01*
X-345330Y1930D02*
X-312036D01*
X-317880Y115210D02*
X-238380D01*
X-358140Y74950D02*
X-317880Y115210D01*
X-358140Y-8890D02*
Y74950D01*
Y-8890D02*
X-353960Y-13070D01*
X-345330D01*
X25930Y33020D02*
X37720Y21230D01*
X2240Y-9190D02*
Y-3570D01*
X1270Y-10160D02*
X2240Y-9190D01*
X-254000Y-10160D02*
X1270D01*
X-261910Y-18070D02*
X-254000Y-10160D01*
X-282230Y-18070D02*
X-261910D01*
X-264400Y-3570D02*
X-3760D01*
X-261510Y2430D02*
X-3760D01*
X-312036Y1930D02*
X-307616Y6350D01*
X-274320D01*
X-264400Y-3570D01*
X-313434Y6930D02*
X-309490Y10874D01*
X-269954D01*
X-261510Y2430D01*
X-345330Y16930D02*
X-320590D01*
X-304500Y33020D01*
X25930D01*
X-345330Y11930D02*
X-318270D01*
X-140080Y21230D02*
X-60580D01*
X-318270Y11930D02*
X-308970Y21230D01*
X-140080D01*
X37720D02*
X60250D01*
X139750D01*
D16*
X-293670Y-63550D02*
Y-44150D01*
D17*
X-341630Y-30480D02*
D03*
D18*
X-320040Y-46355D02*
D03*
D19*
X-308670Y-61050D02*
D03*
X-252670D02*
D03*
X-280670Y-82550D02*
D03*
M02*
