G04 Layer_Color=8388736*
%FSLAX44Y44*%
%MOMM*%
G71*
G01*
G75*
%ADD25R,0.6532X1.7032*%
%ADD26R,1.0032X0.6032*%
%ADD27R,1.0032X0.5032*%
%ADD28R,0.6032X0.6032*%
%ADD29R,1.7532X1.5032*%
G04:AMPARAMS|DCode=30|XSize=0.2032mm|YSize=0.2032mm|CornerRadius=0mm|HoleSize=0mm|Usage=FLASHONLY|Rotation=0.000|XOffset=0mm|YOffset=0mm|HoleType=Round|Shape=RoundedRectangle|*
%AMROUNDEDRECTD30*
21,1,0.2032,0.2032,0,0,0.0*
21,1,0.2032,0.2032,0,0,0.0*
1,1,0.0000,0.1016,-0.1016*
1,1,0.0000,-0.1016,-0.1016*
1,1,0.0000,-0.1016,0.1016*
1,1,0.0000,0.1016,0.1016*
%
%ADD30ROUNDEDRECTD30*%
%ADD31O,2.4032X1.3032*%
D25*
X-293670Y-63550D02*
D03*
X-287170D02*
D03*
X-280670D02*
D03*
X-274170D02*
D03*
X-267670D02*
D03*
D26*
X-370330Y31930D02*
D03*
Y-33070D02*
D03*
D27*
X-345330Y21930D02*
D03*
Y16930D02*
D03*
Y11930D02*
D03*
Y6930D02*
D03*
Y1930D02*
D03*
Y-3070D02*
D03*
Y-8070D02*
D03*
Y-13070D02*
D03*
Y-18070D02*
D03*
Y-23070D02*
D03*
D28*
X2240Y-3570D02*
D03*
X-3760D02*
D03*
Y2430D02*
D03*
X2240D02*
D03*
X-278480Y-8540D02*
D03*
X-284480D02*
D03*
Y-2540D02*
D03*
X-278480D02*
D03*
D29*
X-238380Y70210D02*
D03*
X-317880D02*
D03*
X-238380Y115210D02*
D03*
X-317880D02*
D03*
X-60580Y-23770D02*
D03*
X-140080D02*
D03*
X-60580Y21230D02*
D03*
X-140080D02*
D03*
X139750Y-23770D02*
D03*
X60250D02*
D03*
X139750Y21230D02*
D03*
X60250D02*
D03*
D30*
X-365760Y114430D02*
D03*
Y-115570D02*
D03*
X364240Y114430D02*
D03*
Y-115570D02*
D03*
X-21080Y-20890D02*
D03*
X19560Y19750D02*
D03*
X-301800Y-25860D02*
D03*
X-261160Y14780D02*
D03*
D31*
X-308670Y-61050D02*
D03*
X-252670D02*
D03*
X-280670Y-82550D02*
D03*
M02*
