G04 Layer_Color=65535*
%FSLAX44Y44*%
%MOMM*%
G71*
G01*
G75*
%ADD20C,0.2540*%
%ADD21C,0.2000*%
%ADD22C,0.0500*%
%ADD23C,0.1270*%
%ADD24C,0.1000*%
D20*
X384240Y114430D02*
G03*
X384240Y114430I-20000J0D01*
G01*
Y-115570D02*
G03*
X384240Y-115570I-20000J0D01*
G01*
X-345760D02*
G03*
X-345760Y-115570I-20000J0D01*
G01*
Y114430D02*
G03*
X-345760Y114430I-20000J0D01*
G01*
D21*
X-293700Y-33430D02*
G03*
X-293700Y-33430I-1000J0D01*
G01*
X-332830Y-23570D02*
G03*
X-332830Y-21570I0J1000D01*
G01*
D02*
G03*
X-332830Y-23570I0J-1000D01*
G01*
X-307380Y122710D02*
X-249130D01*
X-232880Y79960D02*
Y105960D01*
X-309130Y62710D02*
X-247630D01*
X-323130Y79710D02*
Y105710D01*
X-129580Y28730D02*
X-71330D01*
X-55080Y-14020D02*
Y11980D01*
X-131330Y-31270D02*
X-69830D01*
X-145330Y-14270D02*
Y11730D01*
X70750Y28730D02*
X129000D01*
X145250Y-14020D02*
Y11980D01*
X69000Y-31270D02*
X130500D01*
X55000Y-14270D02*
Y11730D01*
X-16000Y33827D02*
Y24830D01*
X-10002D01*
X-1005Y33827D02*
X-7003D01*
Y24830D01*
X-1005D01*
X-7003Y29328D02*
X-4004D01*
X1994Y33827D02*
Y24830D01*
X6493D01*
X7992Y26330D01*
Y32328D01*
X6493Y33827D01*
X1994D01*
X10991Y24830D02*
X13990D01*
X12491D01*
Y33827D01*
X10991Y32328D01*
X-296720Y28857D02*
Y19860D01*
X-290722D01*
X-281725Y28857D02*
X-287723D01*
Y19860D01*
X-281725D01*
X-287723Y24358D02*
X-284724D01*
X-278726Y28857D02*
Y19860D01*
X-274227D01*
X-272728Y21360D01*
Y27358D01*
X-274227Y28857D01*
X-278726D01*
X-263731Y19860D02*
X-269729D01*
X-263731Y25858D01*
Y27358D01*
X-265230Y28857D01*
X-268229D01*
X-269729Y27358D01*
X-287020Y90170D02*
Y99167D01*
X-282521D01*
X-281022Y97668D01*
Y94669D01*
X-282521Y93169D01*
X-287020D01*
X-278023Y99167D02*
Y90170D01*
X-273524D01*
X-272025Y91670D01*
Y93169D01*
X-273524Y94669D01*
X-278023D01*
X-273524D01*
X-272025Y96168D01*
Y97668D01*
X-273524Y99167D01*
X-278023D01*
X-269026Y90170D02*
X-266027D01*
X-267526D01*
Y99167D01*
X-269026Y97668D01*
X88900Y-6350D02*
Y2647D01*
X93399D01*
X94898Y1148D01*
Y-1851D01*
X93399Y-3351D01*
X88900D01*
X97897Y2647D02*
Y-6350D01*
X102396D01*
X103895Y-4850D01*
Y-3351D01*
X102396Y-1851D01*
X97897D01*
X102396D01*
X103895Y-352D01*
Y1148D01*
X102396Y2647D01*
X97897D01*
X112892Y-6350D02*
X106894D01*
X112892Y-352D01*
Y1148D01*
X111393Y2647D01*
X108394D01*
X106894Y1148D01*
X-114300Y-5080D02*
Y3917D01*
X-109802D01*
X-108302Y2418D01*
Y-582D01*
X-109802Y-2081D01*
X-114300D01*
X-105303Y3917D02*
Y-5080D01*
X-100804D01*
X-99305Y-3580D01*
Y-2081D01*
X-100804Y-582D01*
X-105303D01*
X-100804D01*
X-99305Y918D01*
Y2418D01*
X-100804Y3917D01*
X-105303D01*
X-96306Y2418D02*
X-94806Y3917D01*
X-91807D01*
X-90308Y2418D01*
Y918D01*
X-91807Y-582D01*
X-93307D01*
X-91807D01*
X-90308Y-2081D01*
Y-3580D01*
X-91807Y-5080D01*
X-94806D01*
X-96306Y-3580D01*
D22*
X2240Y6930D02*
G03*
X2740Y6930I250J0D01*
G01*
D02*
G03*
X2240Y6930I-250J0D01*
G01*
X-278480Y1960D02*
G03*
X-277980Y1960I250J0D01*
G01*
D02*
G03*
X-278480Y1960I-250J0D01*
G01*
D23*
X-260420Y-52300D02*
Y-38800D01*
Y-52300D02*
X-240670D01*
Y-56380D02*
Y-52300D01*
Y-83300D02*
Y-65820D01*
X-267170Y-83300D02*
X-240670D01*
X-320670D02*
X-294170D01*
X-320670D02*
Y-65820D01*
Y-56380D02*
Y-52300D01*
X-300920D01*
Y-38800D01*
X-260420D01*
D24*
X-376830Y-25570D02*
Y24430D01*
X-359330Y34430D02*
X-344830D01*
Y29430D02*
Y34430D01*
X-359330Y-35570D02*
X-344830D01*
Y-30570D01*
M02*
