G04 Layer_Color=255*
%FSLAX44Y44*%
%MOMM*%
G71*
G01*
G75*
%ADD10R,0.4500X1.5000*%
%ADD11R,0.8000X0.4000*%
%ADD12R,0.8000X0.3000*%
%ADD13R,0.4000X0.4000*%
%ADD14R,1.5500X1.3000*%
%ADD19O,2.2000X1.1000*%
D10*
X-293670Y-63550D02*
D03*
X-287170D02*
D03*
X-280670D02*
D03*
X-274170D02*
D03*
X-267670D02*
D03*
D11*
X-370330Y31930D02*
D03*
Y-33070D02*
D03*
D12*
X-345330Y21930D02*
D03*
Y16930D02*
D03*
Y11930D02*
D03*
Y6930D02*
D03*
Y1930D02*
D03*
Y-3070D02*
D03*
Y-8070D02*
D03*
Y-13070D02*
D03*
Y-18070D02*
D03*
Y-23070D02*
D03*
D13*
X2240Y-3570D02*
D03*
X-3760D02*
D03*
Y2430D02*
D03*
X2240D02*
D03*
X-278480Y-8540D02*
D03*
X-284480D02*
D03*
Y-2540D02*
D03*
X-278480D02*
D03*
D14*
X-238380Y70210D02*
D03*
X-317880D02*
D03*
X-238380Y115210D02*
D03*
X-317880D02*
D03*
X-60580Y-23770D02*
D03*
X-140080D02*
D03*
X-60580Y21230D02*
D03*
X-140080D02*
D03*
X139750Y-23770D02*
D03*
X60250D02*
D03*
X139750Y21230D02*
D03*
X60250D02*
D03*
D19*
X-308670Y-61050D02*
D03*
X-252670D02*
D03*
X-280670Y-82550D02*
D03*
M02*
