<svg version="1.1" xmlns="http://www.w3.org/2000/svg" viewBox="0 0 719 416">
  <!-- svg-source:excalidraw -->
  <defs>
    <style>
      @font-face {
        font-family: "Virgil";
        src: url("https://excalidraw.com/FG_Virgil.woff2");
      }
      @font-face {
        font-family: "Cascadia";
        src: url("https://excalidraw.com/Cascadia.woff2");
      }
    </style>
  </defs>
  <rect x="0" y="0" width="719" height="416" fill="#ffffff"></rect><g transform="translate(10 10) rotate(0 349.5 198)"><path d="M99 0 M99 0 C284.3643851738423 0, 469.72877034768464 0, 600 0 M99 0 C204.2378326971084 0, 309.4756653942168 0, 600 0 M600 0 C666 0, 699 33, 699 99 M600 0 C666 0, 699 33, 699 99 M699 99 C699 170.94479244723917, 699 242.88958489447833, 699 297 M699 99 C699 139.08660621866585, 699 179.1732124373317, 699 297 M699 297 C699 363, 666 396, 600 396 M699 297 C699 363, 666 396, 600 396 M600 396 C410.51722507663067 396, 221.0344501532614 396, 99 396 M600 396 C448.0057714384049 396, 296.0115428768098 396, 99 396 M99 396 C33 396, 0 363, 0 297 M99 396 C33 396, 0 363, 0 297 M0 297 C0 221.2432237766683, 0 145.4864475533366, 0 99 M0 297 C0 240.1841162659228, 0 183.36823253184556, 0 99 M0 99 C0 33, 33 0, 99 0 M0 99 C0 33, 33 0, 99 0" stroke="#000000" stroke-width="1" fill="none"></path></g><g transform="translate(276.05755395683445 37.902877697841745) rotate(0 74 21.5)"><text x="0" y="35" font-family="Cascadia, Segoe UI Emoji" font-size="36px" fill="#000000" text-anchor="start" style="white-space: pre;" direction="ltr">EPIDOSE</text></g><g transform="translate(125 291) rotate(0 8 8.5)"><path d="M8 0 C9.628395277872567 -0.10852296277518854, 11.829223873476037 0.8179571518501711, 13.142300877492314 1.9886222334886865 C14.455377881508591 3.1592873151272016, 15.580811631967132 5.230427528745873, 15.878462024097665 7.023990489831092 C16.176112416228197 8.81755345091631, 15.78525337652423 11.172767202191812, 14.92820323027551 12.75 C14.071153084026792 14.327232797808188, 12.346888542752161 15.864489397233516, 10.736161146605351 16.48738727668022 C9.12543375045854 17.110285156126924, 6.874566249541461 17.110285156126928, 5.263838853394651 16.487387276680224 C3.6531114572478405 15.86448939723352, 1.9288469159732093 14.32723279780819, 1.0717967697244903 12.75 C0.21474662347577123 11.17276720219181, -0.17611241622819646 8.817553450916309, 0.12153797590233584 7.023990489831091 C0.41918836803286813 5.230427528745872, 1.544622118491407 3.1592873151272025, 2.857699122507684 1.9886222334886874 C4.170776126523961 0.8179571518501723, 7.142949853751279 0.3031037055814479, 7.999999999999998 0 C8.857050146248717 -0.3031037055814479, 8 0.02833333333333332, 8 0.16999999999999993 M8 0 C9.628395277872567 -0.10852296277518854, 11.829223873476037 0.8179571518501711, 13.142300877492314 1.9886222334886865 C14.455377881508591 3.1592873151272016, 15.580811631967132 5.230427528745873, 15.878462024097665 7.023990489831092 C16.176112416228197 8.81755345091631, 15.78525337652423 11.172767202191812, 14.92820323027551 12.75 C14.071153084026792 14.327232797808188, 12.346888542752161 15.864489397233516, 10.736161146605351 16.48738727668022 C9.12543375045854 17.110285156126924, 6.874566249541461 17.110285156126928, 5.263838853394651 16.487387276680224 C3.6531114572478405 15.86448939723352, 1.9288469159732093 14.32723279780819, 1.0717967697244903 12.75 C0.21474662347577123 11.17276720219181, -0.17611241622819646 8.817553450916309, 0.12153797590233584 7.023990489831091 C0.41918836803286813 5.230427528745872, 1.544622118491407 3.1592873151272025, 2.857699122507684 1.9886222334886874 C4.170776126523961 0.8179571518501723, 7.142949853751279 0.3031037055814479, 7.999999999999998 0 C8.857050146248717 -0.3031037055814479, 8 0.02833333333333332, 8 0.16999999999999993" stroke="#000000" stroke-width="1" fill="none"></path></g><g transform="translate(132 238) rotate(0 3 3)"><path d="M3 0 C3.6106482292022126 -0.03830222215594888, 4.435958952553515 0.28869075947653106, 4.928362829059618 0.7018666706430658 C5.420766705565722 1.1150425818096006, 5.842804361987674 1.84603324543972, 5.9544232590366235 2.479055466999209 C6.066042156085573 3.112077688558698, 5.919470016196586 3.9433296007735805, 5.598076211353316 4.5 C5.276682406510046 5.0566703992264195, 4.63008320353206 5.59923155196477, 4.026060429977006 5.819077862357725 C3.4220376564219523 6.038924172750679, 2.5779623435780477 6.038924172750679, 1.9739395700229938 5.819077862357725 C1.36991679646794 5.59923155196477, 0.7233175934899536 5.0566703992264195, 0.401923788646684 4.5 C0.08052998380341436 3.9433296007735805, -0.06604215608557355 3.112077688558698, 0.04557674096337605 2.479055466999209 C0.15719563801232567 1.84603324543972, 0.5792332944342777 1.115042581809601, 1.0716371709403816 0.7018666706430663 C1.5640410474464854 0.2886907594765315, 2.6786061951567297 0.10697777844051104, 2.9999999999999996 0 C3.3213938048432694 -0.10697777844051104, 3 0.010000000000000085, 3 0.06000000000000005 M3 0 C3.6106482292022126 -0.03830222215594888, 4.435958952553515 0.28869075947653106, 4.928362829059618 0.7018666706430658 C5.420766705565722 1.1150425818096006, 5.842804361987674 1.84603324543972, 5.9544232590366235 2.479055466999209 C6.066042156085573 3.112077688558698, 5.919470016196586 3.9433296007735805, 5.598076211353316 4.5 C5.276682406510046 5.0566703992264195, 4.63008320353206 5.59923155196477, 4.026060429977006 5.819077862357725 C3.4220376564219523 6.038924172750679, 2.5779623435780477 6.038924172750679, 1.9739395700229938 5.819077862357725 C1.36991679646794 5.59923155196477, 0.7233175934899536 5.0566703992264195, 0.401923788646684 4.5 C0.08052998380341436 3.9433296007735805, -0.06604215608557355 3.112077688558698, 0.04557674096337605 2.479055466999209 C0.15719563801232567 1.84603324543972, 0.5792332944342777 1.115042581809601, 1.0716371709403816 0.7018666706430663 C1.5640410474464854 0.2886907594765315, 2.6786061951567297 0.10697777844051104, 2.9999999999999996 0 C3.3213938048432694 -0.10697777844051104, 3 0.010000000000000085, 3 0.06000000000000005" stroke="none" stroke-width="0" fill="#000000"></path><path d="M3 0 C3.6106482292022126 -0.03830222215594888, 4.435958952553515 0.28869075947653106, 4.928362829059618 0.7018666706430658 C5.420766705565722 1.1150425818096006, 5.842804361987674 1.84603324543972, 5.9544232590366235 2.479055466999209 C6.066042156085573 3.112077688558698, 5.919470016196586 3.9433296007735805, 5.598076211353316 4.5 C5.276682406510046 5.0566703992264195, 4.63008320353206 5.59923155196477, 4.026060429977006 5.819077862357725 C3.4220376564219523 6.038924172750679, 2.5779623435780477 6.038924172750679, 1.9739395700229938 5.819077862357725 C1.36991679646794 5.59923155196477, 0.7233175934899536 5.0566703992264195, 0.401923788646684 4.5 C0.08052998380341436 3.9433296007735805, -0.06604215608557355 3.112077688558698, 0.04557674096337605 2.479055466999209 C0.15719563801232567 1.84603324543972, 0.5792332944342777 1.115042581809601, 1.0716371709403816 0.7018666706430663 C1.5640410474464854 0.2886907594765315, 2.6786061951567297 0.10697777844051104, 2.9999999999999996 0 C3.3213938048432694 -0.10697777844051104, 3 0.010000000000000085, 3 0.06000000000000005 M3 0 C3.6106482292022126 -0.03830222215594888, 4.435958952553515 0.28869075947653106, 4.928362829059618 0.7018666706430658 C5.420766705565722 1.1150425818096006, 5.842804361987674 1.84603324543972, 5.9544232590366235 2.479055466999209 C6.066042156085573 3.112077688558698, 5.919470016196586 3.9433296007735805, 5.598076211353316 4.5 C5.276682406510046 5.0566703992264195, 4.63008320353206 5.59923155196477, 4.026060429977006 5.819077862357725 C3.4220376564219523 6.038924172750679, 2.5779623435780477 6.038924172750679, 1.9739395700229938 5.819077862357725 C1.36991679646794 5.59923155196477, 0.7233175934899536 5.0566703992264195, 0.401923788646684 4.5 C0.08052998380341436 3.9433296007735805, -0.06604215608557355 3.112077688558698, 0.04557674096337605 2.479055466999209 C0.15719563801232567 1.84603324543972, 0.5792332944342777 1.115042581809601, 1.0716371709403816 0.7018666706430663 C1.5640410474464854 0.2886907594765315, 2.6786061951567297 0.10697777844051104, 2.9999999999999996 0 C3.3213938048432694 -0.10697777844051104, 3 0.010000000000000085, 3 0.06000000000000005" stroke="#000000" stroke-width="1" fill="none"></path></g><g transform="translate(116 338) rotate(0 18.5 6.5)"><path d="M3.25 0 M3.25 0 C14.194865975342692 0, 25.139731950685384 0, 33.75 0 M3.25 0 C11.41979822460562 0, 19.58959644921124 0, 33.75 0 M33.75 0 C35.916666666666664 0, 37 1.0833333333333335, 37 3.25 M33.75 0 C35.916666666666664 0, 37 1.0833333333333335, 37 3.25 M37 3.25 C37 4.594679648242891, 37 5.939359296485781, 37 9.75 M37 3.25 C37 4.58708226326853, 37 5.92416452653706, 37 9.75 M37 9.75 C37 11.916666666666666, 35.916666666666664 13, 33.75 13 M37 9.75 C37 11.916666666666666, 35.916666666666664 13, 33.75 13 M33.75 13 C26.499829950369893 13, 19.249659900739786 13, 3.25 13 M33.75 13 C23.54800623115152 13, 13.34601246230304 13, 3.25 13 M3.25 13 C1.0833333333333335 13, 0 11.916666666666666, 0 9.75 M3.25 13 C1.0833333333333335 13, 0 11.916666666666666, 0 9.75 M0 9.75 C0 7.836240261234343, 0 5.922480522468685, 0 3.25 M0 9.75 C0 7.453268960677088, 0 5.156537921354174, 0 3.25 M0 3.25 C0 1.0833333333333335, 1.0833333333333335 0, 3.25 0 M0 3.25 C0 1.0833333333333335, 1.0833333333333335 0, 3.25 0" stroke="#000000" stroke-width="1" fill="none"></path></g><g transform="translate(50 237) rotate(0 15 56)"><path d="M7.5 0 M7.5 0 C10.975610995665193 0, 14.451221991330385 0, 22.5 0 M7.5 0 C13.192053264006972 0, 18.884106528013945 0, 22.5 0 M22.5 0 C27.5 0, 30 2.5, 30 7.5 M22.5 0 C27.5 0, 30 2.5, 30 7.5 M30 7.5 C30 30.633396154269576, 30 53.76679230853915, 30 104.5 M30 7.5 C30 36.8948676828295, 30 66.289735365659, 30 104.5 M30 104.5 C30 109.5, 27.5 112, 22.5 112 M30 104.5 C30 109.5, 27.5 112, 22.5 112 M22.5 112 C17.804373716935515 112, 13.10874743387103 112, 7.5 112 M22.5 112 C18.589237505570054 112, 14.678475011140108 112, 7.5 112 M7.5 112 C2.5 112, 0 109.5, 0 104.5 M7.5 112 C2.5 112, 0 109.5, 0 104.5 M0 104.5 C0 69.48947939313948, 0 34.478958786278966, 0 7.5 M0 104.5 C0 76.45495345555246, 0 48.40990691110491, 0 7.5 M0 7.5 C0 2.5, 2.5 0, 7.5 0 M0 7.5 C0 2.5, 2.5 0, 7.5 0" stroke="#000000" stroke-width="1" fill="none"></path></g><g><g transform="translate(57 292) rotate(0 7.5 -6.5)"><path d="M0 0 C2.5 -2.1666666666666665, 12.5 -10.833333333333334, 15 -13 M0 0 C2.5 -2.1666666666666665, 12.5 -10.833333333333334, 15 -13" stroke="#000000" stroke-width="1" fill="none"></path></g></g><g><g transform="translate(58.27300613496931 304.1134969325154) rotate(0 7.5 -6.5)"><path d="M0 0 C2.5 -2.1666666666666665, 12.5 -10.833333333333334, 15 -13 M0 0 C2.5 -2.1666666666666665, 12.5 -10.833333333333334, 15 -13" stroke="#000000" stroke-width="1" fill="none"></path></g></g><g><g transform="translate(57.745398773006116 319.217791411043) rotate(0 7.5 -6.5)"><path d="M0 0 C2.5 -2.1666666666666665, 12.5 -10.833333333333334, 15 -13 M0 0 C2.5 -2.1666666666666665, 12.5 -10.833333333333334, 15 -13" stroke="#000000" stroke-width="1" fill="none"></path></g></g><g transform="translate(59.723926380368084 232.34969325153378) rotate(0 5.521472392638032 2.1472392638036695)"><path d="M1.0736196319018347 0 M1.0736196319018347 0 C3.260998005173135 0, 5.4483763784444355 0, 9.969325153374228 0 M1.0736196319018347 0 C3.870555844752147 0, 6.667492057602459 0, 9.969325153374228 0 M9.969325153374228 0 C10.685071574642118 0, 11.042944785276063 0.35787321063394495, 11.042944785276063 1.0736196319018347 M9.969325153374228 0 C10.685071574642118 0, 11.042944785276063 0.35787321063394495, 11.042944785276063 1.0736196319018347 M11.042944785276063 1.0736196319018347 C11.042944785276063 1.927219198593871, 11.042944785276063 2.780818765285907, 11.042944785276063 3.220858895705504 M11.042944785276063 1.0736196319018347 C11.042944785276063 1.6228393626404967, 11.042944785276063 2.1720590933791586, 11.042944785276063 3.220858895705504 M11.042944785276063 3.220858895705504 C11.042944785276063 3.936605316973394, 10.685071574642118 4.294478527607339, 9.969325153374228 4.294478527607339 M11.042944785276063 3.220858895705504 C11.042944785276063 3.936605316973394, 10.685071574642118 4.294478527607339, 9.969325153374228 4.294478527607339 M9.969325153374228 4.294478527607339 C7.130932256099449 4.294478527607339, 4.292539358824668 4.294478527607339, 1.0736196319018347 4.294478527607339 M9.969325153374228 4.294478527607339 C7.613573350080861 4.294478527607339, 5.257821546787493 4.294478527607339, 1.0736196319018347 4.294478527607339 M1.0736196319018347 4.294478527607339 C0.35787321063394495 4.294478527607339, 0 3.936605316973394, 0 3.220858895705504 M1.0736196319018347 4.294478527607339 C0.35787321063394495 4.294478527607339, 0 3.936605316973394, 0 3.220858895705504 M0 3.220858895705504 C0 2.616388299645259, 0 2.0119177035850138, 0 1.0736196319018347 M0 3.220858895705504 C0 2.784219555031105, 0 2.3475802143567055, 0 1.0736196319018347 M0 1.0736196319018347 C0 0.35787321063394495, 0.35787321063394495 0, 1.0736196319018347 0 M0 1.0736196319018347 C0 0.35787321063394495, 0.35787321063394495 0, 1.0736196319018347 0" stroke="#000000" stroke-width="1" fill="none"></path></g><g transform="translate(321.66257668711637 290.1073619631902) rotate(0 8 8.5)"><path d="M8 0 C9.628395277872567 -0.10852296277518854, 11.829223873476037 0.8179571518501711, 13.142300877492314 1.9886222334886865 C14.455377881508591 3.1592873151272016, 15.580811631967132 5.230427528745873, 15.878462024097665 7.023990489831092 C16.176112416228197 8.81755345091631, 15.78525337652423 11.172767202191812, 14.92820323027551 12.75 C14.071153084026792 14.327232797808188, 12.346888542752161 15.864489397233516, 10.736161146605351 16.48738727668022 C9.12543375045854 17.110285156126924, 6.874566249541461 17.110285156126928, 5.263838853394651 16.487387276680224 C3.6531114572478405 15.86448939723352, 1.9288469159732093 14.32723279780819, 1.0717967697244903 12.75 C0.21474662347577123 11.17276720219181, -0.17611241622819646 8.817553450916309, 0.12153797590233584 7.023990489831091 C0.41918836803286813 5.230427528745872, 1.544622118491407 3.1592873151272025, 2.857699122507684 1.9886222334886874 C4.170776126523961 0.8179571518501723, 7.142949853751279 0.3031037055814479, 7.999999999999998 0 C8.857050146248717 -0.3031037055814479, 8 0.02833333333333332, 8 0.16999999999999993 M8 0 C9.628395277872567 -0.10852296277518854, 11.829223873476037 0.8179571518501711, 13.142300877492314 1.9886222334886865 C14.455377881508591 3.1592873151272016, 15.580811631967132 5.230427528745873, 15.878462024097665 7.023990489831092 C16.176112416228197 8.81755345091631, 15.78525337652423 11.172767202191812, 14.92820323027551 12.75 C14.071153084026792 14.327232797808188, 12.346888542752161 15.864489397233516, 10.736161146605351 16.48738727668022 C9.12543375045854 17.110285156126924, 6.874566249541461 17.110285156126928, 5.263838853394651 16.487387276680224 C3.6531114572478405 15.86448939723352, 1.9288469159732093 14.32723279780819, 1.0717967697244903 12.75 C0.21474662347577123 11.17276720219181, -0.17611241622819646 8.817553450916309, 0.12153797590233584 7.023990489831091 C0.41918836803286813 5.230427528745872, 1.544622118491407 3.1592873151272025, 2.857699122507684 1.9886222334886874 C4.170776126523961 0.8179571518501723, 7.142949853751279 0.3031037055814479, 7.999999999999998 0 C8.857050146248717 -0.3031037055814479, 8 0.02833333333333332, 8 0.16999999999999993" stroke="#000000" stroke-width="1" fill="none"></path></g><g transform="translate(262.24539877300606 294.9938650306749) rotate(0 3 3)"><path d="M3 0 C3.6106482292022126 -0.03830222215594888, 4.435958952553515 0.28869075947653106, 4.928362829059618 0.7018666706430658 C5.420766705565722 1.1150425818096006, 5.842804361987674 1.84603324543972, 5.9544232590366235 2.479055466999209 C6.066042156085573 3.112077688558698, 5.919470016196586 3.9433296007735805, 5.598076211353316 4.5 C5.276682406510046 5.0566703992264195, 4.63008320353206 5.59923155196477, 4.026060429977006 5.819077862357725 C3.4220376564219523 6.038924172750679, 2.5779623435780477 6.038924172750679, 1.9739395700229938 5.819077862357725 C1.36991679646794 5.59923155196477, 0.7233175934899536 5.0566703992264195, 0.401923788646684 4.5 C0.08052998380341436 3.9433296007735805, -0.06604215608557355 3.112077688558698, 0.04557674096337605 2.479055466999209 C0.15719563801232567 1.84603324543972, 0.5792332944342777 1.115042581809601, 1.0716371709403816 0.7018666706430663 C1.5640410474464854 0.2886907594765315, 2.6786061951567297 0.10697777844051104, 2.9999999999999996 0 C3.3213938048432694 -0.10697777844051104, 3 0.010000000000000085, 3 0.06000000000000005 M3 0 C3.6106482292022126 -0.03830222215594888, 4.435958952553515 0.28869075947653106, 4.928362829059618 0.7018666706430658 C5.420766705565722 1.1150425818096006, 5.842804361987674 1.84603324543972, 5.9544232590366235 2.479055466999209 C6.066042156085573 3.112077688558698, 5.919470016196586 3.9433296007735805, 5.598076211353316 4.5 C5.276682406510046 5.0566703992264195, 4.63008320353206 5.59923155196477, 4.026060429977006 5.819077862357725 C3.4220376564219523 6.038924172750679, 2.5779623435780477 6.038924172750679, 1.9739395700229938 5.819077862357725 C1.36991679646794 5.59923155196477, 0.7233175934899536 5.0566703992264195, 0.401923788646684 4.5 C0.08052998380341436 3.9433296007735805, -0.06604215608557355 3.112077688558698, 0.04557674096337605 2.479055466999209 C0.15719563801232567 1.84603324543972, 0.5792332944342777 1.115042581809601, 1.0716371709403816 0.7018666706430663 C1.5640410474464854 0.2886907594765315, 2.6786061951567297 0.10697777844051104, 2.9999999999999996 0 C3.3213938048432694 -0.10697777844051104, 3 0.010000000000000085, 3 0.06000000000000005" stroke="none" stroke-width="0" fill="#000000"></path><path d="M3 0 C3.6106482292022126 -0.03830222215594888, 4.435958952553515 0.28869075947653106, 4.928362829059618 0.7018666706430658 C5.420766705565722 1.1150425818096006, 5.842804361987674 1.84603324543972, 5.9544232590366235 2.479055466999209 C6.066042156085573 3.112077688558698, 5.919470016196586 3.9433296007735805, 5.598076211353316 4.5 C5.276682406510046 5.0566703992264195, 4.63008320353206 5.59923155196477, 4.026060429977006 5.819077862357725 C3.4220376564219523 6.038924172750679, 2.5779623435780477 6.038924172750679, 1.9739395700229938 5.819077862357725 C1.36991679646794 5.59923155196477, 0.7233175934899536 5.0566703992264195, 0.401923788646684 4.5 C0.08052998380341436 3.9433296007735805, -0.06604215608557355 3.112077688558698, 0.04557674096337605 2.479055466999209 C0.15719563801232567 1.84603324543972, 0.5792332944342777 1.115042581809601, 1.0716371709403816 0.7018666706430663 C1.5640410474464854 0.2886907594765315, 2.6786061951567297 0.10697777844051104, 2.9999999999999996 0 C3.3213938048432694 -0.10697777844051104, 3 0.010000000000000085, 3 0.06000000000000005 M3 0 C3.6106482292022126 -0.03830222215594888, 4.435958952553515 0.28869075947653106, 4.928362829059618 0.7018666706430658 C5.420766705565722 1.1150425818096006, 5.842804361987674 1.84603324543972, 5.9544232590366235 2.479055466999209 C6.066042156085573 3.112077688558698, 5.919470016196586 3.9433296007735805, 5.598076211353316 4.5 C5.276682406510046 5.0566703992264195, 4.63008320353206 5.59923155196477, 4.026060429977006 5.819077862357725 C3.4220376564219523 6.038924172750679, 2.5779623435780477 6.038924172750679, 1.9739395700229938 5.819077862357725 C1.36991679646794 5.59923155196477, 0.7233175934899536 5.0566703992264195, 0.401923788646684 4.5 C0.08052998380341436 3.9433296007735805, -0.06604215608557355 3.112077688558698, 0.04557674096337605 2.479055466999209 C0.15719563801232567 1.84603324543972, 0.5792332944342777 1.115042581809601, 1.0716371709403816 0.7018666706430663 C1.5640410474464854 0.2886907594765315, 2.6786061951567297 0.10697777844051104, 2.9999999999999996 0 C3.3213938048432694 -0.10697777844051104, 3 0.010000000000000085, 3 0.06000000000000005" stroke="#000000" stroke-width="1" fill="none"></path></g><g transform="translate(389.8678995453944 296.083417928234) rotate(0 3 3)"><path d="M3 0 C3.6106482292022126 -0.03830222215594888, 4.435958952553515 0.28869075947653106, 4.928362829059618 0.7018666706430658 C5.420766705565722 1.1150425818096006, 5.842804361987674 1.84603324543972, 5.9544232590366235 2.479055466999209 C6.066042156085573 3.112077688558698, 5.919470016196586 3.9433296007735805, 5.598076211353316 4.5 C5.276682406510046 5.0566703992264195, 4.63008320353206 5.59923155196477, 4.026060429977006 5.819077862357725 C3.4220376564219523 6.038924172750679, 2.5779623435780477 6.038924172750679, 1.9739395700229938 5.819077862357725 C1.36991679646794 5.59923155196477, 0.7233175934899536 5.0566703992264195, 0.401923788646684 4.5 C0.08052998380341436 3.9433296007735805, -0.06604215608557355 3.112077688558698, 0.04557674096337605 2.479055466999209 C0.15719563801232567 1.84603324543972, 0.5792332944342777 1.115042581809601, 1.0716371709403816 0.7018666706430663 C1.5640410474464854 0.2886907594765315, 2.6786061951567297 0.10697777844051104, 2.9999999999999996 0 C3.3213938048432694 -0.10697777844051104, 3 0.010000000000000085, 3 0.06000000000000005 M3 0 C3.6106482292022126 -0.03830222215594888, 4.435958952553515 0.28869075947653106, 4.928362829059618 0.7018666706430658 C5.420766705565722 1.1150425818096006, 5.842804361987674 1.84603324543972, 5.9544232590366235 2.479055466999209 C6.066042156085573 3.112077688558698, 5.919470016196586 3.9433296007735805, 5.598076211353316 4.5 C5.276682406510046 5.0566703992264195, 4.63008320353206 5.59923155196477, 4.026060429977006 5.819077862357725 C3.4220376564219523 6.038924172750679, 2.5779623435780477 6.038924172750679, 1.9739395700229938 5.819077862357725 C1.36991679646794 5.59923155196477, 0.7233175934899536 5.0566703992264195, 0.401923788646684 4.5 C0.08052998380341436 3.9433296007735805, -0.06604215608557355 3.112077688558698, 0.04557674096337605 2.479055466999209 C0.15719563801232567 1.84603324543972, 0.5792332944342777 1.115042581809601, 1.0716371709403816 0.7018666706430663 C1.5640410474464854 0.2886907594765315, 2.6786061951567297 0.10697777844051104, 2.9999999999999996 0 C3.3213938048432694 -0.10697777844051104, 3 0.010000000000000085, 3 0.06000000000000005" stroke="none" stroke-width="0" fill="#000000"></path><path d="M3 0 C3.6106482292022126 -0.03830222215594888, 4.435958952553515 0.28869075947653106, 4.928362829059618 0.7018666706430658 C5.420766705565722 1.1150425818096006, 5.842804361987674 1.84603324543972, 5.9544232590366235 2.479055466999209 C6.066042156085573 3.112077688558698, 5.919470016196586 3.9433296007735805, 5.598076211353316 4.5 C5.276682406510046 5.0566703992264195, 4.63008320353206 5.59923155196477, 4.026060429977006 5.819077862357725 C3.4220376564219523 6.038924172750679, 2.5779623435780477 6.038924172750679, 1.9739395700229938 5.819077862357725 C1.36991679646794 5.59923155196477, 0.7233175934899536 5.0566703992264195, 0.401923788646684 4.5 C0.08052998380341436 3.9433296007735805, -0.06604215608557355 3.112077688558698, 0.04557674096337605 2.479055466999209 C0.15719563801232567 1.84603324543972, 0.5792332944342777 1.115042581809601, 1.0716371709403816 0.7018666706430663 C1.5640410474464854 0.2886907594765315, 2.6786061951567297 0.10697777844051104, 2.9999999999999996 0 C3.3213938048432694 -0.10697777844051104, 3 0.010000000000000085, 3 0.06000000000000005 M3 0 C3.6106482292022126 -0.03830222215594888, 4.435958952553515 0.28869075947653106, 4.928362829059618 0.7018666706430658 C5.420766705565722 1.1150425818096006, 5.842804361987674 1.84603324543972, 5.9544232590366235 2.479055466999209 C6.066042156085573 3.112077688558698, 5.919470016196586 3.9433296007735805, 5.598076211353316 4.5 C5.276682406510046 5.0566703992264195, 4.63008320353206 5.59923155196477, 4.026060429977006 5.819077862357725 C3.4220376564219523 6.038924172750679, 2.5779623435780477 6.038924172750679, 1.9739395700229938 5.819077862357725 C1.36991679646794 5.59923155196477, 0.7233175934899536 5.0566703992264195, 0.401923788646684 4.5 C0.08052998380341436 3.9433296007735805, -0.06604215608557355 3.112077688558698, 0.04557674096337605 2.479055466999209 C0.15719563801232567 1.84603324543972, 0.5792332944342777 1.115042581809601, 1.0716371709403816 0.7018666706430663 C1.5640410474464854 0.2886907594765315, 2.6786061951567297 0.10697777844051104, 2.9999999999999996 0 C3.3213938048432694 -0.10697777844051104, 3 0.010000000000000085, 3 0.06000000000000005" stroke="#000000" stroke-width="1" fill="none"></path></g><g transform="translate(107.58992805755395 215.38489208633092) rotate(0 23.5 9.5)"><text x="0" y="15" font-family="Cascadia, Segoe UI Emoji" font-size="16px" fill="#000000" text-anchor="start" style="white-space: pre;" direction="ltr">Reset</text></g><g transform="translate(101.83453237410072 265.02517985611513) rotate(0 33 9.5)"><text x="0" y="15" font-family="Cascadia, Segoe UI Emoji" font-size="16px" fill="#000000" text-anchor="start" style="white-space: pre;" direction="ltr">Battery</text></g><g transform="translate(237.0863309352518 265.02517985611513) rotate(0 28 9.5)"><text x="0" y="15" font-family="Cascadia, Segoe UI Emoji" font-size="16px" fill="#000000" text-anchor="start" style="white-space: pre;" direction="ltr">Status</text></g><g transform="translate(309.7482014388488 318.26258992805754) rotate(0 23.5 9.5)"><text x="0" y="15" font-family="Cascadia, Segoe UI Emoji" font-size="16px" fill="#000000" text-anchor="start" style="white-space: pre;" direction="ltr">Share</text></g><g transform="translate(373.77697841726615 264.30575539568343) rotate(0 19 9.5)"><text x="0" y="15" font-family="Cascadia, Segoe UI Emoji" font-size="16px" fill="#000000" text-anchor="start" style="white-space: pre;" direction="ltr">WiFi</text></g><g transform="translate(303.9928057553957 186.1942446043165) rotate(0 29.496402877697847 30.215827338129515)"><path d="M29.49640287769785 0 C35.500378272731595 -0.3857777771102769, 43.61494413781633 2.9076767141521156, 48.4563251778044 7.0691607115129 C53.297706217792474 11.230644708873685, 57.44723713225292 18.593140601551145, 58.54468911762629 24.968903984164708 C59.64214110299966 31.34466736677827, 58.201024140062366 39.7169887847699, 55.041037090044604 45.32374100719427 C51.88105004002684 50.93049322961864, 45.523599842881175 56.39513793345816, 39.584766817519736 58.60941731871094 C33.645933792158296 60.82369670396372, 25.3468719632374 60.82369670396372, 19.40803893787596 58.60941731871094 C13.469205912514521 56.39513793345816, 7.111755715368849 50.93049322961865, 3.9517686653510893 45.32374100719427 C0.7917816153333295 39.716988784769896, -0.6493353476039634 31.344667366778264, 0.44811663776940236 24.968903984164704 C1.545568623142768 18.593140601551145, 5.695099537603212 11.230644708873687, 10.536480577591284 7.069160711512904 C15.377861617579356 2.90767671415212, 26.336415827680078 1.0774740274583856, 29.49640287769784 0 C32.6563899277156 -1.0774740274583856, 29.496402877697847 0.10071942446043103, 29.496402877697847 0.6043165467625897 M29.49640287769785 0 C35.500378272731595 -0.3857777771102769, 43.61494413781633 2.9076767141521156, 48.4563251778044 7.0691607115129 C53.297706217792474 11.230644708873685, 57.44723713225292 18.593140601551145, 58.54468911762629 24.968903984164708 C59.64214110299966 31.34466736677827, 58.201024140062366 39.7169887847699, 55.041037090044604 45.32374100719427 C51.88105004002684 50.93049322961864, 45.523599842881175 56.39513793345816, 39.584766817519736 58.60941731871094 C33.645933792158296 60.82369670396372, 25.3468719632374 60.82369670396372, 19.40803893787596 58.60941731871094 C13.469205912514521 56.39513793345816, 7.111755715368849 50.93049322961865, 3.9517686653510893 45.32374100719427 C0.7917816153333295 39.716988784769896, -0.6493353476039634 31.344667366778264, 0.44811663776940236 24.968903984164704 C1.545568623142768 18.593140601551145, 5.695099537603212 11.230644708873687, 10.536480577591284 7.069160711512904 C15.377861617579356 2.90767671415212, 26.336415827680078 1.0774740274583856, 29.49640287769784 0 C32.6563899277156 -1.0774740274583856, 29.496402877697847 0.10071942446043103, 29.496402877697847 0.6043165467625897" stroke="#000000" stroke-width="1" fill="none"></path></g><g><g transform="translate(356.04294478527606 196.17791411042947) rotate(0 4.294478527607396 -3.9877300613497084)"><path d="M0 0 C1.4314928425357987 -1.3292433537832362, 7.157464212678993 -6.64621676891618, 8.588957055214792 -7.975460122699417 M0 0 C1.4314928425357987 -1.3292433537832362, 7.157464212678993 -6.64621676891618, 8.588957055214792 -7.975460122699417" stroke="#000000" stroke-width="1" fill="none"></path></g></g><g transform="translate(362.17791411042947 183.29447852760734) rotate(0 3.067484662576703 3.374233128834362)"><path d="M3.067484662576703 0 C3.6918693550125066 -0.043080208968858814, 4.535745350259241 0.3247033082046878, 5.039225796584503 0.7894205907028362 C5.542706242909766 1.2541378732009847, 5.974237588944484 2.0763155112307725, 6.088367340528277 2.7883036949888904 C6.202497092112071 3.5002918787470083, 6.0526278284218975 4.435237792281132, 5.724004306087265 5.061349693251543 C5.395380783752632 5.687461594221954, 4.734236404429534 6.29770419955139, 4.116626206520478 6.544975100811359 C3.499016008611422 6.7922460020713284, 2.635953316541985 6.792246002071329, 2.0183431186329286 6.54497510081136 C1.4007329207238723 6.297704199551391, 0.7395885414007743 5.687461594221955, 0.41096501906614114 5.061349693251543 C0.08234149673150787 4.435237792281131, -0.06752776695866476 3.500291878747008, 0.04660198462512888 2.78830369498889 C0.1607317362089225 2.076315511230772, 0.5922630822436407 1.254137873200985, 1.095743528568903 0.7894205907028367 C1.5992239748941652 0.32470330820468835, 2.7388611402420695 0.12032265468769159, 3.0674846625767027 0 C3.396108184911336 -0.12032265468769159, 3.067484662576703 0.011247443762781119, 3.067484662576703 0.06748466257668717 M3.067484662576703 0 C3.6918693550125066 -0.043080208968858814, 4.535745350259241 0.3247033082046878, 5.039225796584503 0.7894205907028362 C5.542706242909766 1.2541378732009847, 5.974237588944484 2.0763155112307725, 6.088367340528277 2.7883036949888904 C6.202497092112071 3.5002918787470083, 6.0526278284218975 4.435237792281132, 5.724004306087265 5.061349693251543 C5.395380783752632 5.687461594221954, 4.734236404429534 6.29770419955139, 4.116626206520478 6.544975100811359 C3.499016008611422 6.7922460020713284, 2.635953316541985 6.792246002071329, 2.0183431186329286 6.54497510081136 C1.4007329207238723 6.297704199551391, 0.7395885414007743 5.687461594221955, 0.41096501906614114 5.061349693251543 C0.08234149673150787 4.435237792281131, -0.06752776695866476 3.500291878747008, 0.04660198462512888 2.78830369498889 C0.1607317362089225 2.076315511230772, 0.5922630822436407 1.254137873200985, 1.095743528568903 0.7894205907028367 C1.5992239748941652 0.32470330820468835, 2.7388611402420695 0.12032265468769159, 3.0674846625767027 0 C3.396108184911336 -0.12032265468769159, 3.067484662576703 0.011247443762781119, 3.067484662576703 0.06748466257668717" stroke="#000000" stroke-width="1" fill="none"></path></g><g><g transform="translate(330.91410244210806 186.50696689261912) rotate(312.95459151111277 4.294478527607396 -3.9877300613497084)"><path d="M0 0 C1.4314928425357987 -1.3292433537832362, 7.157464212678993 -6.64621676891618, 8.588957055214792 -7.975460122699417 M0 0 C1.4314928425357987 -1.3292433537832362, 7.157464212678993 -6.64621676891618, 8.588957055214792 -7.975460122699417" stroke="#000000" stroke-width="1" fill="none"></path></g></g><g transform="translate(331.444349346076 171.79045244677872) rotate(312.95459151111277 3.067484662576703 3.374233128834362)"><path d="M3.067484662576703 0 C3.6918693550125066 -0.043080208968858814, 4.535745350259241 0.3247033082046878, 5.039225796584503 0.7894205907028362 C5.542706242909766 1.2541378732009847, 5.974237588944484 2.0763155112307725, 6.088367340528277 2.7883036949888904 C6.202497092112071 3.5002918787470083, 6.0526278284218975 4.435237792281132, 5.724004306087265 5.061349693251543 C5.395380783752632 5.687461594221954, 4.734236404429534 6.29770419955139, 4.116626206520478 6.544975100811359 C3.499016008611422 6.7922460020713284, 2.635953316541985 6.792246002071329, 2.0183431186329286 6.54497510081136 C1.4007329207238723 6.297704199551391, 0.7395885414007743 5.687461594221955, 0.41096501906614114 5.061349693251543 C0.08234149673150787 4.435237792281131, -0.06752776695866476 3.500291878747008, 0.04660198462512888 2.78830369498889 C0.1607317362089225 2.076315511230772, 0.5922630822436407 1.254137873200985, 1.095743528568903 0.7894205907028367 C1.5992239748941652 0.32470330820468835, 2.7388611402420695 0.12032265468769159, 3.0674846625767027 0 C3.396108184911336 -0.12032265468769159, 3.067484662576703 0.011247443762781119, 3.067484662576703 0.06748466257668717 M3.067484662576703 0 C3.6918693550125066 -0.043080208968858814, 4.535745350259241 0.3247033082046878, 5.039225796584503 0.7894205907028362 C5.542706242909766 1.2541378732009847, 5.974237588944484 2.0763155112307725, 6.088367340528277 2.7883036949888904 C6.202497092112071 3.5002918787470083, 6.0526278284218975 4.435237792281132, 5.724004306087265 5.061349693251543 C5.395380783752632 5.687461594221954, 4.734236404429534 6.29770419955139, 4.116626206520478 6.544975100811359 C3.499016008611422 6.7922460020713284, 2.635953316541985 6.792246002071329, 2.0183431186329286 6.54497510081136 C1.4007329207238723 6.297704199551391, 0.7395885414007743 5.687461594221955, 0.41096501906614114 5.061349693251543 C0.08234149673150787 4.435237792281131, -0.06752776695866476 3.500291878747008, 0.04660198462512888 2.78830369498889 C0.1607317362089225 2.076315511230772, 0.5922630822436407 1.254137873200985, 1.095743528568903 0.7894205907028367 C1.5992239748941652 0.32470330820468835, 2.7388611402420695 0.12032265468769159, 3.0674846625767027 0 C3.396108184911336 -0.12032265468769159, 3.067484662576703 0.011247443762781119, 3.067484662576703 0.06748466257668717" stroke="#000000" stroke-width="1" fill="none"></path></g><g><g transform="translate(363.8483619774887 220.0034213447185) rotate(43.45184230102205 4.294478527607396 -3.9877300613497084)"><path d="M0 0 C1.4314928425357987 -1.3292433537832362, 7.157464212678993 -6.64621676891618, 8.588957055214792 -7.975460122699417 M0 0 C1.4314928425357987 -1.3292433537832362, 7.157464212678993 -6.64621676891618, 8.588957055214792 -7.975460122699417" stroke="#000000" stroke-width="1" fill="none"></path></g></g><g transform="translate(372.43567688696305 212.00856430676362) rotate(43.45184230102205 3.067484662576703 3.374233128834362)"><path d="M3.067484662576703 0 C3.6918693550125066 -0.043080208968858814, 4.535745350259241 0.3247033082046878, 5.039225796584503 0.7894205907028362 C5.542706242909766 1.2541378732009847, 5.974237588944484 2.0763155112307725, 6.088367340528277 2.7883036949888904 C6.202497092112071 3.5002918787470083, 6.0526278284218975 4.435237792281132, 5.724004306087265 5.061349693251543 C5.395380783752632 5.687461594221954, 4.734236404429534 6.29770419955139, 4.116626206520478 6.544975100811359 C3.499016008611422 6.7922460020713284, 2.635953316541985 6.792246002071329, 2.0183431186329286 6.54497510081136 C1.4007329207238723 6.297704199551391, 0.7395885414007743 5.687461594221955, 0.41096501906614114 5.061349693251543 C0.08234149673150787 4.435237792281131, -0.06752776695866476 3.500291878747008, 0.04660198462512888 2.78830369498889 C0.1607317362089225 2.076315511230772, 0.5922630822436407 1.254137873200985, 1.095743528568903 0.7894205907028367 C1.5992239748941652 0.32470330820468835, 2.7388611402420695 0.12032265468769159, 3.0674846625767027 0 C3.396108184911336 -0.12032265468769159, 3.067484662576703 0.011247443762781119, 3.067484662576703 0.06748466257668717 M3.067484662576703 0 C3.6918693550125066 -0.043080208968858814, 4.535745350259241 0.3247033082046878, 5.039225796584503 0.7894205907028362 C5.542706242909766 1.2541378732009847, 5.974237588944484 2.0763155112307725, 6.088367340528277 2.7883036949888904 C6.202497092112071 3.5002918787470083, 6.0526278284218975 4.435237792281132, 5.724004306087265 5.061349693251543 C5.395380783752632 5.687461594221954, 4.734236404429534 6.29770419955139, 4.116626206520478 6.544975100811359 C3.499016008611422 6.7922460020713284, 2.635953316541985 6.792246002071329, 2.0183431186329286 6.54497510081136 C1.4007329207238723 6.297704199551391, 0.7395885414007743 5.687461594221955, 0.41096501906614114 5.061349693251543 C0.08234149673150787 4.435237792281131, -0.06752776695866476 3.500291878747008, 0.04660198462512888 2.78830369498889 C0.1607317362089225 2.076315511230772, 0.5922630822436407 1.254137873200985, 1.095743528568903 0.7894205907028367 C1.5992239748941652 0.32470330820468835, 2.7388611402420695 0.12032265468769159, 3.0674846625767027 0 C3.396108184911336 -0.12032265468769159, 3.067484662576703 0.011247443762781119, 3.067484662576703 0.06748466257668717" stroke="#000000" stroke-width="1" fill="none"></path></g><g><g transform="translate(327.7303219519007 257.0551822584719) rotate(130.8738258354739 4.294478527607396 -3.9877300613497084)"><path d="M0 0 C1.4314928425357987 -1.3292433537832362, 7.157464212678993 -6.64621676891618, 8.588957055214792 -7.975460122699417 M0 0 C1.4314928425357987 -1.3292433537832362, 7.157464212678993 -6.64621676891618, 8.588957055214792 -7.975460122699417" stroke="#000000" stroke-width="1" fill="none"></path></g></g><g transform="translate(329.92063410731464 257.0176233697483) rotate(130.8738258354739 3.067484662576703 3.374233128834362)"><path d="M3.067484662576703 0 C3.6918693550125066 -0.043080208968858814, 4.535745350259241 0.3247033082046878, 5.039225796584503 0.7894205907028362 C5.542706242909766 1.2541378732009847, 5.974237588944484 2.0763155112307725, 6.088367340528277 2.7883036949888904 C6.202497092112071 3.5002918787470083, 6.0526278284218975 4.435237792281132, 5.724004306087265 5.061349693251543 C5.395380783752632 5.687461594221954, 4.734236404429534 6.29770419955139, 4.116626206520478 6.544975100811359 C3.499016008611422 6.7922460020713284, 2.635953316541985 6.792246002071329, 2.0183431186329286 6.54497510081136 C1.4007329207238723 6.297704199551391, 0.7395885414007743 5.687461594221955, 0.41096501906614114 5.061349693251543 C0.08234149673150787 4.435237792281131, -0.06752776695866476 3.500291878747008, 0.04660198462512888 2.78830369498889 C0.1607317362089225 2.076315511230772, 0.5922630822436407 1.254137873200985, 1.095743528568903 0.7894205907028367 C1.5992239748941652 0.32470330820468835, 2.7388611402420695 0.12032265468769159, 3.0674846625767027 0 C3.396108184911336 -0.12032265468769159, 3.067484662576703 0.011247443762781119, 3.067484662576703 0.06748466257668717 M3.067484662576703 0 C3.6918693550125066 -0.043080208968858814, 4.535745350259241 0.3247033082046878, 5.039225796584503 0.7894205907028362 C5.542706242909766 1.2541378732009847, 5.974237588944484 2.0763155112307725, 6.088367340528277 2.7883036949888904 C6.202497092112071 3.5002918787470083, 6.0526278284218975 4.435237792281132, 5.724004306087265 5.061349693251543 C5.395380783752632 5.687461594221954, 4.734236404429534 6.29770419955139, 4.116626206520478 6.544975100811359 C3.499016008611422 6.7922460020713284, 2.635953316541985 6.792246002071329, 2.0183431186329286 6.54497510081136 C1.4007329207238723 6.297704199551391, 0.7395885414007743 5.687461594221955, 0.41096501906614114 5.061349693251543 C0.08234149673150787 4.435237792281131, -0.06752776695866476 3.500291878747008, 0.04660198462512888 2.78830369498889 C0.1607317362089225 2.076315511230772, 0.5922630822436407 1.254137873200985, 1.095743528568903 0.7894205907028367 C1.5992239748941652 0.32470330820468835, 2.7388611402420695 0.12032265468769159, 3.0674846625767027 0 C3.396108184911336 -0.12032265468769159, 3.067484662576703 0.011247443762781119, 3.067484662576703 0.06748466257668717" stroke="#000000" stroke-width="1" fill="none"></path></g><g><g transform="translate(351.48723294845047 244.38256936690578) rotate(443.82841734658666 4.294478527607396 -3.9877300613497084)"><path d="M0 0 C1.4314928425357987 -1.3292433537832362, 7.157464212678993 -6.64621676891618, 8.588957055214792 -7.975460122699417 M0 0 C1.4314928425357987 -1.3292433537832362, 7.157464212678993 -6.64621676891618, 8.588957055214792 -7.975460122699417" stroke="#000000" stroke-width="1" fill="none"></path></g></g><g transform="translate(358.73133711936896 241.30654412151387) rotate(443.82841734658666 3.067484662576703 3.374233128834362)"><path d="M3.067484662576703 0 C3.6918693550125066 -0.043080208968858814, 4.535745350259241 0.3247033082046878, 5.039225796584503 0.7894205907028362 C5.542706242909766 1.2541378732009847, 5.974237588944484 2.0763155112307725, 6.088367340528277 2.7883036949888904 C6.202497092112071 3.5002918787470083, 6.0526278284218975 4.435237792281132, 5.724004306087265 5.061349693251543 C5.395380783752632 5.687461594221954, 4.734236404429534 6.29770419955139, 4.116626206520478 6.544975100811359 C3.499016008611422 6.7922460020713284, 2.635953316541985 6.792246002071329, 2.0183431186329286 6.54497510081136 C1.4007329207238723 6.297704199551391, 0.7395885414007743 5.687461594221955, 0.41096501906614114 5.061349693251543 C0.08234149673150787 4.435237792281131, -0.06752776695866476 3.500291878747008, 0.04660198462512888 2.78830369498889 C0.1607317362089225 2.076315511230772, 0.5922630822436407 1.254137873200985, 1.095743528568903 0.7894205907028367 C1.5992239748941652 0.32470330820468835, 2.7388611402420695 0.12032265468769159, 3.0674846625767027 0 C3.396108184911336 -0.12032265468769159, 3.067484662576703 0.011247443762781119, 3.067484662576703 0.06748466257668717 M3.067484662576703 0 C3.6918693550125066 -0.043080208968858814, 4.535745350259241 0.3247033082046878, 5.039225796584503 0.7894205907028362 C5.542706242909766 1.2541378732009847, 5.974237588944484 2.0763155112307725, 6.088367340528277 2.7883036949888904 C6.202497092112071 3.5002918787470083, 6.0526278284218975 4.435237792281132, 5.724004306087265 5.061349693251543 C5.395380783752632 5.687461594221954, 4.734236404429534 6.29770419955139, 4.116626206520478 6.544975100811359 C3.499016008611422 6.7922460020713284, 2.635953316541985 6.792246002071329, 2.0183431186329286 6.54497510081136 C1.4007329207238723 6.297704199551391, 0.7395885414007743 5.687461594221955, 0.41096501906614114 5.061349693251543 C0.08234149673150787 4.435237792281131, -0.06752776695866476 3.500291878747008, 0.04660198462512888 2.78830369498889 C0.1607317362089225 2.076315511230772, 0.5922630822436407 1.254137873200985, 1.095743528568903 0.7894205907028367 C1.5992239748941652 0.32470330820468835, 2.7388611402420695 0.12032265468769159, 3.0674846625767027 0 C3.396108184911336 -0.12032265468769159, 3.067484662576703 0.011247443762781119, 3.067484662576703 0.06748466257668717" stroke="#000000" stroke-width="1" fill="none"></path></g><g><g transform="translate(305.606775757318 246.36596433839787) rotate(174.32566813649595 4.294478527607396 -3.9877300613497084)"><path d="M0 0 C1.4314928425357987 -1.3292433537832362, 7.157464212678993 -6.64621676891618, 8.588957055214792 -7.975460122699417 M0 0 C1.4314928425357987 -1.3292433537832362, 7.157464212678993 -6.64621676891618, 8.588957055214792 -7.975460122699417" stroke="#000000" stroke-width="1" fill="none"></path></g></g><g transform="translate(302.4957732632449 244.9836891073149) rotate(174.32566813649595 3.067484662576703 3.374233128834362)"><path d="M3.067484662576703 0 C3.6918693550125066 -0.043080208968858814, 4.535745350259241 0.3247033082046878, 5.039225796584503 0.7894205907028362 C5.542706242909766 1.2541378732009847, 5.974237588944484 2.0763155112307725, 6.088367340528277 2.7883036949888904 C6.202497092112071 3.5002918787470083, 6.0526278284218975 4.435237792281132, 5.724004306087265 5.061349693251543 C5.395380783752632 5.687461594221954, 4.734236404429534 6.29770419955139, 4.116626206520478 6.544975100811359 C3.499016008611422 6.7922460020713284, 2.635953316541985 6.792246002071329, 2.0183431186329286 6.54497510081136 C1.4007329207238723 6.297704199551391, 0.7395885414007743 5.687461594221955, 0.41096501906614114 5.061349693251543 C0.08234149673150787 4.435237792281131, -0.06752776695866476 3.500291878747008, 0.04660198462512888 2.78830369498889 C0.1607317362089225 2.076315511230772, 0.5922630822436407 1.254137873200985, 1.095743528568903 0.7894205907028367 C1.5992239748941652 0.32470330820468835, 2.7388611402420695 0.12032265468769159, 3.0674846625767027 0 C3.396108184911336 -0.12032265468769159, 3.067484662576703 0.011247443762781119, 3.067484662576703 0.06748466257668717 M3.067484662576703 0 C3.6918693550125066 -0.043080208968858814, 4.535745350259241 0.3247033082046878, 5.039225796584503 0.7894205907028362 C5.542706242909766 1.2541378732009847, 5.974237588944484 2.0763155112307725, 6.088367340528277 2.7883036949888904 C6.202497092112071 3.5002918787470083, 6.0526278284218975 4.435237792281132, 5.724004306087265 5.061349693251543 C5.395380783752632 5.687461594221954, 4.734236404429534 6.29770419955139, 4.116626206520478 6.544975100811359 C3.499016008611422 6.7922460020713284, 2.635953316541985 6.792246002071329, 2.0183431186329286 6.54497510081136 C1.4007329207238723 6.297704199551391, 0.7395885414007743 5.687461594221955, 0.41096501906614114 5.061349693251543 C0.08234149673150787 4.435237792281131, -0.06752776695866476 3.500291878747008, 0.04660198462512888 2.78830369498889 C0.1607317362089225 2.076315511230772, 0.5922630822436407 1.254137873200985, 1.095743528568903 0.7894205907028367 C1.5992239748941652 0.32470330820468835, 2.7388611402420695 0.12032265468769159, 3.0674846625767027 0 C3.396108184911336 -0.12032265468769159, 3.067484662576703 0.011247443762781119, 3.067484662576703 0.06748466257668717" stroke="#000000" stroke-width="1" fill="none"></path></g><g><g transform="translate(295.4445289748978 222.64113802458542) rotate(226.08092418666067 4.294478527607396 -3.9877300613497084)"><path d="M0 0 C1.4314928425357987 -1.3292433537832362, 7.157464212678993 -6.64621676891618, 8.588957055214792 -7.975460122699417 M0 0 C1.4314928425357987 -1.3292433537832362, 7.157464212678993 -6.64621676891618, 8.588957055214792 -7.975460122699417" stroke="#000000" stroke-width="1" fill="none"></path></g></g><g transform="translate(289.2899182890392 215.57378432867267) rotate(226.08092418666067 3.067484662576703 3.374233128834362)"><path d="M3.067484662576703 0 C3.6918693550125066 -0.043080208968858814, 4.535745350259241 0.3247033082046878, 5.039225796584503 0.7894205907028362 C5.542706242909766 1.2541378732009847, 5.974237588944484 2.0763155112307725, 6.088367340528277 2.7883036949888904 C6.202497092112071 3.5002918787470083, 6.0526278284218975 4.435237792281132, 5.724004306087265 5.061349693251543 C5.395380783752632 5.687461594221954, 4.734236404429534 6.29770419955139, 4.116626206520478 6.544975100811359 C3.499016008611422 6.7922460020713284, 2.635953316541985 6.792246002071329, 2.0183431186329286 6.54497510081136 C1.4007329207238723 6.297704199551391, 0.7395885414007743 5.687461594221955, 0.41096501906614114 5.061349693251543 C0.08234149673150787 4.435237792281131, -0.06752776695866476 3.500291878747008, 0.04660198462512888 2.78830369498889 C0.1607317362089225 2.076315511230772, 0.5922630822436407 1.254137873200985, 1.095743528568903 0.7894205907028367 C1.5992239748941652 0.32470330820468835, 2.7388611402420695 0.12032265468769159, 3.0674846625767027 0 C3.396108184911336 -0.12032265468769159, 3.067484662576703 0.011247443762781119, 3.067484662576703 0.06748466257668717 M3.067484662576703 0 C3.6918693550125066 -0.043080208968858814, 4.535745350259241 0.3247033082046878, 5.039225796584503 0.7894205907028362 C5.542706242909766 1.2541378732009847, 5.974237588944484 2.0763155112307725, 6.088367340528277 2.7883036949888904 C6.202497092112071 3.5002918787470083, 6.0526278284218975 4.435237792281132, 5.724004306087265 5.061349693251543 C5.395380783752632 5.687461594221954, 4.734236404429534 6.29770419955139, 4.116626206520478 6.544975100811359 C3.499016008611422 6.7922460020713284, 2.635953316541985 6.792246002071329, 2.0183431186329286 6.54497510081136 C1.4007329207238723 6.297704199551391, 0.7395885414007743 5.687461594221955, 0.41096501906614114 5.061349693251543 C0.08234149673150787 4.435237792281131, -0.06752776695866476 3.500291878747008, 0.04660198462512888 2.78830369498889 C0.1607317362089225 2.076315511230772, 0.5922630822436407 1.254137873200985, 1.095743528568903 0.7894205907028367 C1.5992239748941652 0.32470330820468835, 2.7388611402420695 0.12032265468769159, 3.0674846625767027 0 C3.396108184911336 -0.12032265468769159, 3.067484662576703 0.011247443762781119, 3.067484662576703 0.06748466257668717" stroke="#000000" stroke-width="1" fill="none"></path></g><g><g transform="translate(305.69236068298346 196.4923732131079) rotate(269.5327664876827 4.294478527607396 -3.9877300613497084)"><path d="M0 0 C1.4314928425357987 -1.3292433537832362, 7.157464212678993 -6.64621676891618, 8.588957055214792 -7.975460122699417 M0 0 C1.4314928425357987 -1.3292433537832362, 7.157464212678993 -6.64621676891618, 8.588957055214792 -7.975460122699417" stroke="#000000" stroke-width="1" fill="none"></path></g></g><g transform="translate(301.35804280985656 184.26762355312638) rotate(269.5327664876827 3.067484662576703 3.374233128834362)"><path d="M3.067484662576703 0 C3.6918693550125066 -0.043080208968858814, 4.535745350259241 0.3247033082046878, 5.039225796584503 0.7894205907028362 C5.542706242909766 1.2541378732009847, 5.974237588944484 2.0763155112307725, 6.088367340528277 2.7883036949888904 C6.202497092112071 3.5002918787470083, 6.0526278284218975 4.435237792281132, 5.724004306087265 5.061349693251543 C5.395380783752632 5.687461594221954, 4.734236404429534 6.29770419955139, 4.116626206520478 6.544975100811359 C3.499016008611422 6.7922460020713284, 2.635953316541985 6.792246002071329, 2.0183431186329286 6.54497510081136 C1.4007329207238723 6.297704199551391, 0.7395885414007743 5.687461594221955, 0.41096501906614114 5.061349693251543 C0.08234149673150787 4.435237792281131, -0.06752776695866476 3.500291878747008, 0.04660198462512888 2.78830369498889 C0.1607317362089225 2.076315511230772, 0.5922630822436407 1.254137873200985, 1.095743528568903 0.7894205907028367 C1.5992239748941652 0.32470330820468835, 2.7388611402420695 0.12032265468769159, 3.0674846625767027 0 C3.396108184911336 -0.12032265468769159, 3.067484662576703 0.011247443762781119, 3.067484662576703 0.06748466257668717 M3.067484662576703 0 C3.6918693550125066 -0.043080208968858814, 4.535745350259241 0.3247033082046878, 5.039225796584503 0.7894205907028362 C5.542706242909766 1.2541378732009847, 5.974237588944484 2.0763155112307725, 6.088367340528277 2.7883036949888904 C6.202497092112071 3.5002918787470083, 6.0526278284218975 4.435237792281132, 5.724004306087265 5.061349693251543 C5.395380783752632 5.687461594221954, 4.734236404429534 6.29770419955139, 4.116626206520478 6.544975100811359 C3.499016008611422 6.7922460020713284, 2.635953316541985 6.792246002071329, 2.0183431186329286 6.54497510081136 C1.4007329207238723 6.297704199551391, 0.7395885414007743 5.687461594221955, 0.41096501906614114 5.061349693251543 C0.08234149673150787 4.435237792281131, -0.06752776695866476 3.500291878747008, 0.04660198462512888 2.78830369498889 C0.1607317362089225 2.076315511230772, 0.5922630822436407 1.254137873200985, 1.095743528568903 0.7894205907028367 C1.5992239748941652 0.32470330820468835, 2.7388611402420695 0.12032265468769159, 3.0674846625767027 0 C3.396108184911336 -0.12032265468769159, 3.067484662576703 0.011247443762781119, 3.067484662576703 0.06748466257668717" stroke="#000000" stroke-width="1" fill="none"></path></g><g transform="translate(319.59918200409015 202.62576687116558) rotate(130.8738258354739 3.067484662576703 3.374233128834362)"><path d="M3.067484662576703 0 C3.6918693550125066 -0.043080208968858814, 4.535745350259241 0.3247033082046878, 5.039225796584503 0.7894205907028362 C5.542706242909766 1.2541378732009847, 5.974237588944484 2.0763155112307725, 6.088367340528277 2.7883036949888904 C6.202497092112071 3.5002918787470083, 6.0526278284218975 4.435237792281132, 5.724004306087265 5.061349693251543 C5.395380783752632 5.687461594221954, 4.734236404429534 6.29770419955139, 4.116626206520478 6.544975100811359 C3.499016008611422 6.7922460020713284, 2.635953316541985 6.792246002071329, 2.0183431186329286 6.54497510081136 C1.4007329207238723 6.297704199551391, 0.7395885414007743 5.687461594221955, 0.41096501906614114 5.061349693251543 C0.08234149673150787 4.435237792281131, -0.06752776695866476 3.500291878747008, 0.04660198462512888 2.78830369498889 C0.1607317362089225 2.076315511230772, 0.5922630822436407 1.254137873200985, 1.095743528568903 0.7894205907028367 C1.5992239748941652 0.32470330820468835, 2.7388611402420695 0.12032265468769159, 3.0674846625767027 0 C3.396108184911336 -0.12032265468769159, 3.067484662576703 0.011247443762781119, 3.067484662576703 0.06748466257668717 M3.067484662576703 0 C3.6918693550125066 -0.043080208968858814, 4.535745350259241 0.3247033082046878, 5.039225796584503 0.7894205907028362 C5.542706242909766 1.2541378732009847, 5.974237588944484 2.0763155112307725, 6.088367340528277 2.7883036949888904 C6.202497092112071 3.5002918787470083, 6.0526278284218975 4.435237792281132, 5.724004306087265 5.061349693251543 C5.395380783752632 5.687461594221954, 4.734236404429534 6.29770419955139, 4.116626206520478 6.544975100811359 C3.499016008611422 6.7922460020713284, 2.635953316541985 6.792246002071329, 2.0183431186329286 6.54497510081136 C1.4007329207238723 6.297704199551391, 0.7395885414007743 5.687461594221955, 0.41096501906614114 5.061349693251543 C0.08234149673150787 4.435237792281131, -0.06752776695866476 3.500291878747008, 0.04660198462512888 2.78830369498889 C0.1607317362089225 2.076315511230772, 0.5922630822436407 1.254137873200985, 1.095743528568903 0.7894205907028367 C1.5992239748941652 0.32470330820468835, 2.7388611402420695 0.12032265468769159, 3.0674846625767027 0 C3.396108184911336 -0.12032265468769159, 3.067484662576703 0.011247443762781119, 3.067484662576703 0.06748466257668717" stroke="#000000" stroke-width="1" fill="none"></path></g><g transform="translate(339.09918200409015 208.62576687116558) rotate(130.8738258354739 3.067484662576703 3.374233128834362)"><path d="M3.067484662576703 0 C3.6918693550125066 -0.043080208968858814, 4.535745350259241 0.3247033082046878, 5.039225796584503 0.7894205907028362 C5.542706242909766 1.2541378732009847, 5.974237588944484 2.0763155112307725, 6.088367340528277 2.7883036949888904 C6.202497092112071 3.5002918787470083, 6.0526278284218975 4.435237792281132, 5.724004306087265 5.061349693251543 C5.395380783752632 5.687461594221954, 4.734236404429534 6.29770419955139, 4.116626206520478 6.544975100811359 C3.499016008611422 6.7922460020713284, 2.635953316541985 6.792246002071329, 2.0183431186329286 6.54497510081136 C1.4007329207238723 6.297704199551391, 0.7395885414007743 5.687461594221955, 0.41096501906614114 5.061349693251543 C0.08234149673150787 4.435237792281131, -0.06752776695866476 3.500291878747008, 0.04660198462512888 2.78830369498889 C0.1607317362089225 2.076315511230772, 0.5922630822436407 1.254137873200985, 1.095743528568903 0.7894205907028367 C1.5992239748941652 0.32470330820468835, 2.7388611402420695 0.12032265468769159, 3.0674846625767027 0 C3.396108184911336 -0.12032265468769159, 3.067484662576703 0.011247443762781119, 3.067484662576703 0.06748466257668717 M3.067484662576703 0 C3.6918693550125066 -0.043080208968858814, 4.535745350259241 0.3247033082046878, 5.039225796584503 0.7894205907028362 C5.542706242909766 1.2541378732009847, 5.974237588944484 2.0763155112307725, 6.088367340528277 2.7883036949888904 C6.202497092112071 3.5002918787470083, 6.0526278284218975 4.435237792281132, 5.724004306087265 5.061349693251543 C5.395380783752632 5.687461594221954, 4.734236404429534 6.29770419955139, 4.116626206520478 6.544975100811359 C3.499016008611422 6.7922460020713284, 2.635953316541985 6.792246002071329, 2.0183431186329286 6.54497510081136 C1.4007329207238723 6.297704199551391, 0.7395885414007743 5.687461594221955, 0.41096501906614114 5.061349693251543 C0.08234149673150787 4.435237792281131, -0.06752776695866476 3.500291878747008, 0.04660198462512888 2.78830369498889 C0.1607317362089225 2.076315511230772, 0.5922630822436407 1.254137873200985, 1.095743528568903 0.7894205907028367 C1.5992239748941652 0.32470330820468835, 2.7388611402420695 0.12032265468769159, 3.0674846625767027 0 C3.396108184911336 -0.12032265468769159, 3.067484662576703 0.011247443762781119, 3.067484662576703 0.06748466257668717" stroke="#000000" stroke-width="1" fill="none"></path></g><g transform="translate(324.09918200409015 223.62576687116558) rotate(130.8738258354739 3.067484662576703 3.374233128834362)"><path d="M3.067484662576703 0 C3.6918693550125066 -0.043080208968858814, 4.535745350259241 0.3247033082046878, 5.039225796584503 0.7894205907028362 C5.542706242909766 1.2541378732009847, 5.974237588944484 2.0763155112307725, 6.088367340528277 2.7883036949888904 C6.202497092112071 3.5002918787470083, 6.0526278284218975 4.435237792281132, 5.724004306087265 5.061349693251543 C5.395380783752632 5.687461594221954, 4.734236404429534 6.29770419955139, 4.116626206520478 6.544975100811359 C3.499016008611422 6.7922460020713284, 2.635953316541985 6.792246002071329, 2.0183431186329286 6.54497510081136 C1.4007329207238723 6.297704199551391, 0.7395885414007743 5.687461594221955, 0.41096501906614114 5.061349693251543 C0.08234149673150787 4.435237792281131, -0.06752776695866476 3.500291878747008, 0.04660198462512888 2.78830369498889 C0.1607317362089225 2.076315511230772, 0.5922630822436407 1.254137873200985, 1.095743528568903 0.7894205907028367 C1.5992239748941652 0.32470330820468835, 2.7388611402420695 0.12032265468769159, 3.0674846625767027 0 C3.396108184911336 -0.12032265468769159, 3.067484662576703 0.011247443762781119, 3.067484662576703 0.06748466257668717 M3.067484662576703 0 C3.6918693550125066 -0.043080208968858814, 4.535745350259241 0.3247033082046878, 5.039225796584503 0.7894205907028362 C5.542706242909766 1.2541378732009847, 5.974237588944484 2.0763155112307725, 6.088367340528277 2.7883036949888904 C6.202497092112071 3.5002918787470083, 6.0526278284218975 4.435237792281132, 5.724004306087265 5.061349693251543 C5.395380783752632 5.687461594221954, 4.734236404429534 6.29770419955139, 4.116626206520478 6.544975100811359 C3.499016008611422 6.7922460020713284, 2.635953316541985 6.792246002071329, 2.0183431186329286 6.54497510081136 C1.4007329207238723 6.297704199551391, 0.7395885414007743 5.687461594221955, 0.41096501906614114 5.061349693251543 C0.08234149673150787 4.435237792281131, -0.06752776695866476 3.500291878747008, 0.04660198462512888 2.78830369498889 C0.1607317362089225 2.076315511230772, 0.5922630822436407 1.254137873200985, 1.095743528568903 0.7894205907028367 C1.5992239748941652 0.32470330820468835, 2.7388611402420695 0.12032265468769159, 3.0674846625767027 0 C3.396108184911336 -0.12032265468769159, 3.067484662576703 0.011247443762781119, 3.067484662576703 0.06748466257668717" stroke="#000000" stroke-width="1" fill="none"></path></g><g transform="translate(338.59918200409015 221.62576687116558) rotate(130.8738258354739 3.067484662576703 3.374233128834362)"><path d="M3.067484662576703 0 C3.6918693550125066 -0.043080208968858814, 4.535745350259241 0.3247033082046878, 5.039225796584503 0.7894205907028362 C5.542706242909766 1.2541378732009847, 5.974237588944484 2.0763155112307725, 6.088367340528277 2.7883036949888904 C6.202497092112071 3.5002918787470083, 6.0526278284218975 4.435237792281132, 5.724004306087265 5.061349693251543 C5.395380783752632 5.687461594221954, 4.734236404429534 6.29770419955139, 4.116626206520478 6.544975100811359 C3.499016008611422 6.7922460020713284, 2.635953316541985 6.792246002071329, 2.0183431186329286 6.54497510081136 C1.4007329207238723 6.297704199551391, 0.7395885414007743 5.687461594221955, 0.41096501906614114 5.061349693251543 C0.08234149673150787 4.435237792281131, -0.06752776695866476 3.500291878747008, 0.04660198462512888 2.78830369498889 C0.1607317362089225 2.076315511230772, 0.5922630822436407 1.254137873200985, 1.095743528568903 0.7894205907028367 C1.5992239748941652 0.32470330820468835, 2.7388611402420695 0.12032265468769159, 3.0674846625767027 0 C3.396108184911336 -0.12032265468769159, 3.067484662576703 0.011247443762781119, 3.067484662576703 0.06748466257668717 M3.067484662576703 0 C3.6918693550125066 -0.043080208968858814, 4.535745350259241 0.3247033082046878, 5.039225796584503 0.7894205907028362 C5.542706242909766 1.2541378732009847, 5.974237588944484 2.0763155112307725, 6.088367340528277 2.7883036949888904 C6.202497092112071 3.5002918787470083, 6.0526278284218975 4.435237792281132, 5.724004306087265 5.061349693251543 C5.395380783752632 5.687461594221954, 4.734236404429534 6.29770419955139, 4.116626206520478 6.544975100811359 C3.499016008611422 6.7922460020713284, 2.635953316541985 6.792246002071329, 2.0183431186329286 6.54497510081136 C1.4007329207238723 6.297704199551391, 0.7395885414007743 5.687461594221955, 0.41096501906614114 5.061349693251543 C0.08234149673150787 4.435237792281131, -0.06752776695866476 3.500291878747008, 0.04660198462512888 2.78830369498889 C0.1607317362089225 2.076315511230772, 0.5922630822436407 1.254137873200985, 1.095743528568903 0.7894205907028367 C1.5992239748941652 0.32470330820468835, 2.7388611402420695 0.12032265468769159, 3.0674846625767027 0 C3.396108184911336 -0.12032265468769159, 3.067484662576703 0.011247443762781119, 3.067484662576703 0.06748466257668717" stroke="#000000" stroke-width="1" fill="none"></path></g><g transform="translate(331.09918200409015 196.12576687116558) rotate(130.8738258354739 3.067484662576703 3.374233128834362)"><path d="M3.067484662576703 0 C3.6918693550125066 -0.043080208968858814, 4.535745350259241 0.3247033082046878, 5.039225796584503 0.7894205907028362 C5.542706242909766 1.2541378732009847, 5.974237588944484 2.0763155112307725, 6.088367340528277 2.7883036949888904 C6.202497092112071 3.5002918787470083, 6.0526278284218975 4.435237792281132, 5.724004306087265 5.061349693251543 C5.395380783752632 5.687461594221954, 4.734236404429534 6.29770419955139, 4.116626206520478 6.544975100811359 C3.499016008611422 6.7922460020713284, 2.635953316541985 6.792246002071329, 2.0183431186329286 6.54497510081136 C1.4007329207238723 6.297704199551391, 0.7395885414007743 5.687461594221955, 0.41096501906614114 5.061349693251543 C0.08234149673150787 4.435237792281131, -0.06752776695866476 3.500291878747008, 0.04660198462512888 2.78830369498889 C0.1607317362089225 2.076315511230772, 0.5922630822436407 1.254137873200985, 1.095743528568903 0.7894205907028367 C1.5992239748941652 0.32470330820468835, 2.7388611402420695 0.12032265468769159, 3.0674846625767027 0 C3.396108184911336 -0.12032265468769159, 3.067484662576703 0.011247443762781119, 3.067484662576703 0.06748466257668717 M3.067484662576703 0 C3.6918693550125066 -0.043080208968858814, 4.535745350259241 0.3247033082046878, 5.039225796584503 0.7894205907028362 C5.542706242909766 1.2541378732009847, 5.974237588944484 2.0763155112307725, 6.088367340528277 2.7883036949888904 C6.202497092112071 3.5002918787470083, 6.0526278284218975 4.435237792281132, 5.724004306087265 5.061349693251543 C5.395380783752632 5.687461594221954, 4.734236404429534 6.29770419955139, 4.116626206520478 6.544975100811359 C3.499016008611422 6.7922460020713284, 2.635953316541985 6.792246002071329, 2.0183431186329286 6.54497510081136 C1.4007329207238723 6.297704199551391, 0.7395885414007743 5.687461594221955, 0.41096501906614114 5.061349693251543 C0.08234149673150787 4.435237792281131, -0.06752776695866476 3.500291878747008, 0.04660198462512888 2.78830369498889 C0.1607317362089225 2.076315511230772, 0.5922630822436407 1.254137873200985, 1.095743528568903 0.7894205907028367 C1.5992239748941652 0.32470330820468835, 2.7388611402420695 0.12032265468769159, 3.0674846625767027 0 C3.396108184911336 -0.12032265468769159, 3.067484662576703 0.011247443762781119, 3.067484662576703 0.06748466257668717" stroke="#000000" stroke-width="1" fill="none"></path></g><g><g transform="translate(209.16666666666674 177) rotate(0 0 94.5)"><path d="M0 0 C0 31.5, 0 157.5, 0 189 M0 0 C0 31.5, 0 157.5, 0 189" stroke="#000000" stroke-width="1" fill="none"></path></g></g><g transform="translate(572.3378995433787 196.21232876712338) rotate(270 93.99999999999994 9.5)"><text x="0" y="15" font-family="Cascadia, Segoe UI Emoji" font-size="16px" fill="#000000" text-anchor="start" style="white-space: pre;" direction="ltr">www.gfoss.eu/epidose</text></g></svg>