<svg version="1.1" xmlns="http://www.w3.org/2000/svg" viewBox="0 0 1305.4444444444443 1100.4444444444446">
  <!-- svg-source:excalidraw -->
  <defs>
    <style>
      @font-face {
        font-family: "Virgil";
        src: url("https://excalidraw.com/FG_Virgil.woff2");
      }
      @font-face {
        font-family: "Cascadia";
        src: url("https://excalidraw.com/Cascadia.woff2");
      }
    </style>
  </defs>
  <rect x="0" y="0" width="1305.4444444444443" height="1100.4444444444446" fill="#ffffff"></rect><g transform="translate(188.5000000000001 10) rotate(0 413.5 191)"><path d="M0.7017765954136849 0.2580372139811516 C266.9689940230921 1.3599337908551097, 534.3431404668838 0.5549722525402903, 826.5354485943914 -0.36090013533830645 M0.12191184982657433 0.006902978569269181 C225.96017588879914 2.3071183693781494, 452.77201399393385 2.36966650608927, 827.1401264332235 0.043058130890131 M828.0046151798088 0.798352548710893 C828.4059086817792 120.8512742237908, 826.7266507600141 240.32065915909865, 826.2088310441519 382.0923290553921 M827.0568269571288 -0.1481596369321577 C826.173980355098 79.37148616796654, 825.3983458139104 158.1057754157615, 827.3184534113246 381.6464556512834 M827.1156515076757 382.21392701119186 C623.8475531114265 379.5580684349015, 421.1567938875407 380.4061372920945, 0.13500771075487136 382.15720584839585 M826.6196885965765 382.3882453419268 C611.80826945249 380.96103098442404, 396.56256304644046 380.83346529056877, 0.20421635136008265 382.12749650254847 M1.1367615395260349 382.61273366123027 C-0.317942811969929 268.5089041182946, 0.8086833915425965 156.06336474291115, -0.22577563592271654 0.5726735745490297 M-0.1712148393321879 381.61886339595685 C-0.619597380032082 232.0935825965284, 0.37706772944708294 82.50431797461532, -0.2582147003234036 0.22802948898353648" style="stroke: rgb(0, 0, 0); stroke-width: 1px; fill: none;"></path></g><g transform="translate(739.4999999999989 105) rotate(0 45 20.5)"><path d="M56.9761504906876 0.020701121984494364 C65.78891092271465 0.9474955422036034, 76.08279386130873 4.903191470602959, 81.47979457023852 8.349220974055626 C86.87679527916832 11.795250477508294, 89.6362260962389 16.3574615022977, 89.35815474426639 20.696878142700502 C89.08008339229387 25.036294783103305, 85.59214022979867 31.20640582619439, 79.81136645840346 34.38572081647244 C74.03059268700824 37.565035806750494, 63.75416579997217 39.048745152444816, 54.67351211589505 39.772768084368806 C45.59285843181793 40.496791016292796, 33.62038354798297 40.34210521490944, 25.327444353940713 38.72985840801638 C17.03450515989846 37.11761160112333, 8.834458091396703 33.95708461505254, 4.915876951641529 30.099287243010494 C0.9972958118863553 26.241489870968454, -0.1412989120471948 19.900728488208742, 1.8159575154096714 15.583074175764144 C3.773213942866538 11.265419863319549, 9.542140393538375 6.789440994831379, 16.659415516382726 4.193361368342922 C23.776690639227077 1.5972817418544643, 37.19063339981567 0.4809391531818455, 44.519608252475784 0.006596416833399843 C51.8485831051359 -0.4677463195150458, 57.683501372786296 1.0769622418853178, 60.633264632343426 1.3473049502522478 C63.58302789190056 1.617647658619178, 62.433962549529284 1.3499505284342355, 62.21818780981856 1.6286526670349808 M58.85849493334899 0.0036521509099962657 C67.33267581144747 0.5699477197222279, 75.15639780775766 4.5093428464111245, 80.47469313354993 8.244341655988107 C85.79298845934221 11.97934046556509, 91.1059657537281 17.997563783324736, 90.76826688810266 22.413645008371894 C90.43056802247722 26.829726233419052, 84.44689183453002 31.558830293007286, 78.4484999397973 34.740829006271056 C72.45010804506458 37.92282771953482, 63.70402131597507 41.03941153247979, 54.7779155197063 41.50563728795451 C45.851809723437526 41.971863043429224, 33.280974142918495 39.84262015906263, 24.891865162184686 37.53818353911935 C16.50275618145088 35.23374691917607, 8.166125888057282 31.32393624498693, 4.443261635303465 27.67901756829483 C0.7203973825496477 24.034098891602735, 0.23586240560814398 19.680602978592518, 2.5546796456617855 15.66867147896677 C4.8734968857154275 11.656739979341022, 11.497084249944944 6.262653465350673, 18.356165075625313 3.6074285705403515 C25.215245901305682 0.9522036757300301, 37.223472441141524 -0.014142689857151503, 43.70916459974399 -0.2626778898951585 C50.19485675834646 -0.5112130899331655, 55.25866177379501 1.723890303739844, 57.27031802724012 2.1162173703123095 C59.28197428068523 2.5085444368847747, 55.81921412268045 1.9559912885964768, 55.77910212041468 2.0912845095396335" style="stroke: rgb(166, 30, 77); stroke-width: 1px; fill: none;"></path></g><g transform="translate(739.4999999999989 186.9999999999995) rotate(0 45 20.5)"><path d="M37.86647720032879 1.1829138318600343 C46.51253393984311 0.569462236383503, 59.850106208176186 1.5022288283908511, 67.84537270315677 3.53596590914432 C75.84063919813735 5.569702989897788, 82.28999125110968 9.632042716934622, 85.8380761702123 13.385336316380846 C89.38616108931492 17.138629915827067, 91.63194648485599 22.231078833748224, 89.13388221777251 26.05572750582166 C86.63581795068903 29.880376177895098, 78.29463163112436 33.7220730728444, 70.84969056771143 36.333228348821464 C63.4047495042985 38.944383624798526, 53.445523153603524 41.89821298625879, 44.46423583729492 41.722659161684035 C35.48294852098632 41.54710533710928, 24.058039967498626 38.04106325024388, 16.96196666985981 35.27990540137294 C9.865893372220992 32.518747552502006, 3.9636075018839594 29.27931418562635, 1.8877960514620185 25.155712068458435 C-0.18801539895992248 21.03210995129052, 0.6183422783290458 14.336469297263003, 4.507097967328164 10.538292698365451 C8.395853656327283 6.740116099467899, 19.070988175635417 4.243613396475091, 25.220330185456728 2.366652475073124 C31.36967219527804 0.48969155367115724, 37.888382915538166 -0.2894693768950531, 41.40315002625603 -0.7234728300463509 C44.91791713697389 -1.1574762831976486, 46.30253274258346 -0.6715817873029486, 46.308932849763885 -0.2373682438346627 M51.382125248530656 0.16828702494321846 C60.145243384584674 0.2509112731183336, 70.82309891907951 2.1260017593776954, 77.36427272312739 5.188067601058254 C83.90544652717526 8.250133442738813, 89.60623492573802 14.314906765449166, 90.62916807281789 18.54068207502657 C91.65210121989776 22.766457384603974, 88.6180150482672 27.17084184577235, 83.50187160560662 30.54271945852268 C78.38572816294605 33.91459707127301, 68.94902143366431 37.40832885821311, 59.93230741685447 38.77194775152853 C50.91559340004463 40.13556664484395, 38.242603670134216 39.920700733386404, 29.40158750474759 38.724432818415195 C20.560571339360962 37.52816490344399, 11.836631922597554 34.95912023633132, 6.886210424534703 31.59434026170129 C1.93578892647185 28.22956028707126, -1.4042920181566754 22.89900764932582, -0.3009414836295292 18.535752970634995 C0.8024090508976169 14.17249829194417, 6.73671045704742 8.386452132444562, 13.50631363169758 5.414812189556345 C20.27591680634774 2.443172246668128, 33.894218561231064 1.7788911039012811, 40.31667756427143 0.7059133133056896 C46.739136567311796 -0.3670644772899019, 50.2688204700277 -1.1692091790823582, 52.04106764993979 -1.0230545540172038 C53.81331482985188 -0.8768999289520494, 51.30709871672644 1.0255689199433395, 50.950160643743985 1.5828410636966161" style="stroke: rgb(166, 30, 77); stroke-width: 1px; fill: none;"></path></g><g><g transform="translate(742.4999999999989 126) rotate(0 -1.3407852988503919 41.8946704320889)"><path d="M-0.9445965103805065 0.98184742256999 C-1.4255792987843354 14.995001714676617, -2.2805660697321097 69.26191462799906, -2.4430651240050794 83.20339915081858 M-0.1940161599777639 0.5859417133592069 C-0.8000827376109859 14.499506113436073, -2.2213772147955995 68.90713126828895, -2.487554437723011 83.05973667254672" style="stroke: rgb(166, 30, 77); stroke-width: 1px; fill: none;"></path></g></g><g><g transform="translate(828.4999999999989 129) rotate(0 0.4167200495861607 37.6335135729052)"><path d="M0.5145212821662426 -1.14318855330348 C0.5839843206107617 11.207140202075244, 0.3259926013648511 62.088860482722524, 0.34534348770976075 74.6754952378571 M-0.5447327412106098 -1.3541509773395957 C-0.32086635062471036 11.250388994608073, 1.0491869544051589 63.77347609141841, 1.3781728403829039 76.62117812315002" style="stroke: rgb(166, 30, 77); stroke-width: 1px; fill: none;"></path></g></g><g transform="translate(235.5000000000001 309.9999999999995) rotate(0 139.5 31)"><path d="M0.7612187416235238 -1.3094734908811358 C82.68032266823842 2.2498443210874743, 165.47225694116986 0.651832738173599, 277.9321153223674 -1.2923684028063565 M-0.1223043011093512 -0.15830764949263182 C60.12153501806333 -0.07953471635019949, 120.5143962612213 -0.7799648600044982, 279.6362845707738 0.6596390222300186 M278.3243844024837 -0.6405077092349529 C276.6219667694345 21.58379850573838, 277.0112772485986 37.741198745369914, 278.2126527540386 63.961090195924044 M279.60192721523345 -0.3713934663683176 C278.96106789637355 17.49182162731886, 279.0660256557539 35.84085176922381, 278.4540929738432 62.52194038592279 M278.2724090428711 60.84023003186113 C179.99119864544838 63.269876835544785, 80.30174989688126 63.27513500085479, 0.05189342279103099 62.29984354585755 M278.28988619478633 62.42653733048297 C213.3675895011371 62.70968601482755, 147.16135491614116 62.673546672403106, 0.1093804308998212 62.1671703652702 M-0.039362479001283646 61.93377612903714 C-0.5337832558527589 50.64785833321512, 0.3413746964558959 34.5179349526763, 0.06426079198718071 1.9326900132000446 M-0.7343019898980856 62.50864562951028 C0.6832739594206214 41.20586525872349, 0.27107702519744636 18.72080911584198, 0.37499343790113926 -0.6917590741068125" style="stroke: rgb(166, 30, 77); stroke-width: 1px; fill: none;"></path></g><g transform="translate(380.4999999999998 11.5) rotate(0 226 28.5)"><text x="226" y="41" font-family="Virgil" font-size="36px" fill="#364fc7" text-anchor="middle">Health Authority Backend</text></g><g transform="translate(735.4999999999989 67.5) rotate(0 51 15.5)"><text x="51" y="23" font-family="Virgil" font-size="20px" fill="#364fc7" text-anchor="middle">Database</text></g><g transform="translate(837.4999999999989 115.5) rotate(0 81 49.5)"><text x="0" y="17.75" font-family="Virgil" font-size="16px" fill="#364fc7" text-anchor="start">- Hashes of infected</text><text x="0" y="42.5" font-family="Virgil" font-size="16px" fill="#364fc7" text-anchor="start">&nbsp; person contacts</text><text x="0" y="67.25" font-family="Virgil" font-size="16px" fill="#364fc7" text-anchor="start">- Keys for uploading</text><text x="0" y="92" font-family="Virgil" font-size="16px" fill="#364fc7" text-anchor="start">&nbsp; contacts</text></g><g transform="translate(308.5 190.9999999999995) rotate(0 68 33)"><path d="M-1.8668518550693989 1.1941039450466633 C45.45751332715153 2.6375733053684236, 88.52352813705801 0.42232174038887027, 134.38327104970813 -1.1231595389544964 M0.1575272623449564 -0.001519346609711647 C41.227706669643524 0.02272088207304468, 80.27010935880244 -0.27822934709489355, 135.96542345918715 0.9557984229177237 M135.21230871602893 1.3540314324200153 C137.08820094581694 14.94542237482965, 138.5511160087213 30.79986339658499, 135.0674845688045 64.54762076213956 M136.48577248491347 0.723619258031249 C136.33134473469107 20.908838338404898, 136.18017036821692 40.03696475215257, 136.60274499095976 65.10345861874521 M135.86139650270343 67.47058199718595 C106.57018404379487 65.10810182601213, 81.09068957194685 66.84413657695055, 1.0109563581645489 65.87436496093869 M136.80935805477202 66.5226619001478 C98.20958162732421 67.5558865905553, 62.13488492704927 65.90411009795963, -0.3621883448213339 66.80640712939203 M-1.5847496278584003 64.55071364715695 C1.9317619094625116 45.93663472123444, 2.3949287423864005 27.14444376528263, 0.7789940349757671 -1.1789376847445965 M0.5751223508268595 65.73099676333368 C0.555485324151814 48.50221465080976, 0.5069072406366467 29.442780301347376, -0.5665225442498922 -0.6097334865480661" style="stroke: rgb(8, 127, 91); stroke-width: 1px; fill: none;"></path></g><g transform="translate(556.4999999999993 255.9999999999995) rotate(0 224.50000000000006 61.5)"><path d="M-0.41410239741697297 0.12295028529081341 C135.0624077911646 1.9932209791128177, 272.5448392372657 2.6990088440450686, 449.02086554533514 0.46363807071256624 M0.3807576213334559 0.29481938725647916 C101.77709268378783 -0.041148414129620045, 203.58232738545118 0.44077834576265273, 448.84256209280414 0.30699934662079803 M450.0399723760784 0.5065656788647175 C450.6135751109012 45.13340201135725, 449.9132745365985 90.56210678257048, 447.0226888172329 124.21189664676785 M449.6180889550597 -0.22805031575262547 C448.91671557551257 32.845763641409576, 449.7551690471732 67.4309663772583, 448.7078512255103 122.68650660477579 M448.669509373097 122.4995055625308 C343.40533589828425 121.6587418972886, 236.70312788724098 122.19054644679117, -0.4289938222369193 123.9511300016635 M449.21118730575427 122.7969384625525 C325.9242068627068 122.75709110318607, 204.0226969057433 123.38464402548068, -0.22054819279465668 123.30850880912385 M1.7930391542613506 122.79301534965634 C1.6022108523361385 74.04937891159207, 2.8450331418029964 25.58832380287349, -0.38706331327557564 0.06680487468838692 M-0.6165739353746176 122.35956553183496 C-1.1002369849942624 81.63683720175177, -0.939216527249664 40.8160005800426, 0.12448304332792759 0.9209844823926687" style="stroke: rgb(8, 127, 91); stroke-width: 1px; fill: none;"></path></g><g transform="translate(323.4999999999999 211.4999999999995) rotate(0 53 12.5)"><text x="53" y="18" font-family="Virgil" font-size="16px" fill="#364fc7" text-anchor="middle">Create filter</text></g><g transform="translate(695.9999999999989 265.4999999999995) rotate(0 86.5 15.5)"><text x="86.5" y="23" font-family="Virgil" font-size="20px" fill="#364fc7" text-anchor="middle">REST web server</text></g><g transform="translate(305.5 327.4999999999995) rotate(0 65 15.5)"><text x="65" y="23" font-family="Virgil" font-size="20px" fill="#364fc7" text-anchor="middle">Cuckoo filter</text></g><g><g transform="translate(725.4999999999989 169.9999999999996) rotate(0 -135.1570605509542 25.711272713122895)"><path d="M0.6636816211044787 -1.0244676657021046 C-44.35541406199336 7.707813518494367, -225.12373345419763 42.96243242546916, -270.0786911062896 51.701608293503526 M1.4068549082614483 -1.006723311636597 C-43.94892074784263 7.786580887939781, -226.70799376150592 43.53313834717497, -271.7209760101698 52.44701309194788" style="stroke: rgb(54, 79, 199); stroke-width: 1px; fill: none;"></path></g><g transform="translate(725.4999999999989 169.9999999999996) rotate(0 -135.1570605509542 25.711272713122895)"><path d="M-247.7463270912556 36.8100560464881 C-252.74038519626225 43.337914642951404, -261.0068441579605 46.93156993668926, -272.06284716373307 53.9845594397746 M-245.31267255755645 37.74805223839205 C-253.2929746394874 40.95317404104797, -258.32230541455084 45.398454597193755, -271.7807855403237 53.38118303446099" style="stroke: rgb(54, 79, 199); stroke-width: 1px; fill: none;"></path></g><g transform="translate(725.4999999999989 169.9999999999996) rotate(0 -135.1570605509542 25.711272713122895)"><path d="M-243.7878564736707 56.945857812386485 C-249.8651628968572 57.39465784574605, -259.33099985805427 54.88736154140873, -272.06284716373307 53.9845594397746 M-241.35420193997155 57.883854004290434 C-250.11491909637928 56.187250409253174, -256.11402686824 55.69950524635202, -271.7807855403237 53.38118303446099" style="stroke: rgb(54, 79, 199); stroke-width: 1px; fill: none;"></path></g></g><g><g transform="translate(365.4999999999998 264.9999999999995) rotate(0 -0.40447990807705025 21.10778484093956)"><path d="M0.9887167163193225 -0.05538654997944836 C0.8351321009298165 6.99497731650869, -0.7450199735661347 35.60752265577515, -0.9641540579497814 42.91946870610118 M-1.7976765324734152 -0.7038990242220462 C-1.6896415603222947 6.405575015849124, 0.582146835519622 33.93656403432911, 0.530201777610928 41.25000705709681" style="stroke: rgb(54, 79, 199); stroke-width: 1px; fill: none;"></path></g><g transform="translate(365.4999999999998 264.9999999999995) rotate(0 -0.40447990807705025 21.10778484093956)"><path d="M-7.758830769574809 21.427251594960776 C-5.268575733454675 28.317249994711897, -1.3439875334529692 32.9591823430456, -1.0073251987062393 39.285333251114935 M-8.272720333776045 21.464098037108865 C-4.876142812382158 27.556740177661975, -2.7273857047370713 31.213449016930948, -0.25935552475973944 40.529464322607964" style="stroke: rgb(54, 79, 199); stroke-width: 1px; fill: none;"></path></g><g transform="translate(365.4999999999998 264.9999999999995) rotate(0 -0.40447990807705025 21.10778484093956)"><path d="M6.939061617352925 20.81012154607561 C5.075357790394024 28.00416619683115, 4.64281258202322 32.82904436368912, -1.0073251987062393 39.285333251114935 M6.425172053151689 20.8469679882237 C5.982888167705573 26.960458540464447, 4.287623576172835 30.778568840342775, -0.25935552475973944 40.529464322607964" style="stroke: rgb(54, 79, 199); stroke-width: 1px; fill: none;"></path></g></g><g><g transform="translate(750.4999999999989 228.9999999999995) rotate(0 -0.10112709477544968 12.561277333591107)"><path d="M0.8282276563346385 0.1771989293396472 C0.5428183091183503 4.1159327852229275, -0.7191058543821176 20.707969787468514, -1.0304818458855152 24.810817260295153 M-0.27493365475907927 -0.16244887551292786 C-0.412264742149661 4.251965027047941, 1.0201729330482585 20.904317839139452, 0.8103301154635849 25.285003542695193" style="stroke: rgb(54, 79, 199); stroke-width: 1px; fill: none;"></path></g><g transform="translate(750.4999999999989 228.9999999999995) rotate(0 -0.10112709477544968 12.561277333591107)"><path d="M-3.581324002709284 13.610343853157554 C-2.215945783236097 17.723349486025384, -0.6001854331871859 23.036851714385918, -0.011009141641519449 25.09705715350501 M-3.948573493501803 14.025509937645399 C-1.7963419197377837 17.3643801933504, -0.4753480834761955 20.87983200837685, 0.7528527630199837 25.512837246670387" style="stroke: rgb(54, 79, 199); stroke-width: 1px; fill: none;"></path></g><g transform="translate(750.4999999999989 228.9999999999995) rotate(0 -0.10112709477544968 12.561277333591107)"><path d="M4.973246983090036 13.392617987261223 C3.288225581752241 17.642357768165553, 1.8514482173589268 23.033551375574955, -0.011009141641519449 25.09705715350501 M4.605997492297517 13.807784071749069 C4.269950448263454 17.223362195508983, 3.1005118104868092 20.802199020463632, 0.7528527630199837 25.512837246670387" style="stroke: rgb(54, 79, 199); stroke-width: 1px; fill: none;"></path></g></g><g><g transform="translate(812.4999999999989 247.9999999999995) rotate(0 0.5772137595154163 -10.264719601394603)"><path d="M0.28895463421940804 -0.670851594954729 C0.42479593232274054 -3.842217515657345, 0.5603515096008777 -15.50561338936289, 0.5226599402725696 -18.482023102790116 M1.2983553139306605 -0.9306412530876697 C1.3041051361896097 -4.097637658013651, -0.08713227948173877 -17.065596196347226, -0.14392779489979146 -19.858587607834487" style="stroke: rgb(54, 79, 199); stroke-width: 1px; fill: none;"></path></g><g transform="translate(812.4999999999989 247.9999999999995) rotate(0 0.5772137595154163 -10.264719601394603)"><path d="M3.20269428145877 -10.772252529704673 C3.035546684793971 -13.51742295246276, 1.9292804578316085 -16.05022577467721, -0.5886156196892263 -19.18457801863551 M3.9823378898556436 -10.845631604253976 C2.7032495935616616 -13.312906983211448, 1.9976554729531975 -15.073468011777788, 0.16014517567120512 -19.452225175267085" style="stroke: rgb(54, 79, 199); stroke-width: 1px; fill: none;"></path></g><g transform="translate(812.4999999999989 247.9999999999995) rotate(0 0.5772137595154163 -10.264719601394603)"><path d="M-3.279134004564426 -10.30870092790174 C-1.6617769267546865 -13.197250045925449, -0.981428653402407 -15.857823610726681, -0.5886156196892263 -19.18457801863551 M-2.4994903961675528 -10.382080002451042 C-2.1632971466773485 -12.934436053871703, -1.2539743005173092 -14.810488779177136, 0.160145175671205 -19.452225175267085" style="stroke: rgb(54, 79, 199); stroke-width: 1px; fill: none;"></path></g></g><g><g transform="translate(520.4999999999993 341.9999999999995) rotate(0 12.88446934470906 0.4991779817920303)"><path d="M-1.1471750311553477 -0.08592889979481688 C3.190374234070381 0.05465281133850425, 20.606299887845914 0.20188621009389568, 25.326078004390002 0.11134990975260739 M-1.7457014711759986 1.0842848633788527 C2.875768235319605 0.9384871126276751, 22.927866670681787 0.5520604804220297, 27.514640160594137 0.03519203951582295" style="stroke: rgb(54, 79, 199); stroke-width: 1px; fill: none;"></path></g><g transform="translate(520.4999999999993 341.9999999999995) rotate(0 12.88446934470906 0.4991779817920303)"><path d="M15.47030895321129 4.4445574475458445 C19.688659243111474 5.316987878900308, 21.774840760995737 2.6521717849645383, 28.16155096018489 -1.2058406661265388 M15.483468784354613 4.813709201504635 C19.77727188848767 2.935820105010738, 24.5543350617602 1.6982365382677866, 27.835272816004313 -0.2410943032082254" style="stroke: rgb(54, 79, 199); stroke-width: 1px; fill: none;"></path></g><g transform="translate(520.4999999999993 341.9999999999995) rotate(0 12.88446934470906 0.4991779817920303)"><path d="M14.962432029878524 -4.440036917700774 C19.2493459396213 -1.4150616984965116, 21.45829749477143 -1.9321882022937098, 28.16155096018489 -1.2058406661265386 M14.975591861021847 -4.070885163741983 C19.525385342922398 -2.7598518975094817, 24.48490357463897 -0.8056401498971385, 27.835272816004313 -0.2410943032082254" style="stroke: rgb(54, 79, 199); stroke-width: 1px; fill: none;"></path></g></g><g transform="translate(781.4444444444445 510.8888888888889) rotate(0 257 287)"><path d="M-0.272630076110363 -0.1264039233326912 C178.1394034769386 -0.7388780847638845, 355.00968440547587 -0.8118892446607351, 514.7216116860509 -0.682302637398243 M-0.1581817962229252 -0.393485476821661 C190.44586544148623 -1.7687947600334883, 381.88571819067005 -1.3364674180001022, 514.3922112844884 -0.36908645853400235 M513.239648719132 -0.5166787818074227 C515.0815471328348 147.97665670849383, 514.6034054912179 295.0563493154943, 513.6866202786565 573.2474710270762 M513.8173022650183 0.19763469472527506 C515.5850036297292 134.6103905785829, 515.3079096708746 268.66367151737217, 514.0550877712667 573.9418068148195 M514.7349185422063 574.0529508396983 C391.8465600732714 573.0648753976673, 268.00873413607474 572.1408907270282, -0.16845627278089526 573.6472565934062 M514.1616301678121 573.6498304583132 C364.9119982752949 575.3593452230542, 215.45437306612726 575.2199669376462, 0.03326806053519249 574.2825500942766 M-0.35434990376234055 574.7757954880595 C0.26549130369722856 433.90421185456216, 0.6147391884475948 293.250137681514, -0.27833476513624195 -0.2974478915333748 M-0.3933865644037724 573.6371496655047 C-1.9298586419671773 380.5187752809375, -1.6457206061929464 187.73550602942703, -0.3203425742685795 -0.05640251860022545" style="stroke: rgb(0, 0, 0); stroke-width: 1px; fill: none;"></path></g><g transform="translate(929.9444444444445 519.8888888888889) rotate(0 131.5 22)"><text x="131.5" y="32" font-family="Virgil" font-size="28px" fill="#364fc7" text-anchor="middle">Epidemic Dosimeter</text></g><g transform="translate(811.4444444444445 915.8888888888889) rotate(0 118 31)"><path d="M0.4451571764068737 -1.5899504637966049 C50.368693673632734 -1.0754604840628401, 97.5555212859114 -0.2127569845133085, 236.39951044224574 -0.9242743561148061 M-0.024210201796597983 0.5864754764185495 C72.43550694817391 -2.0331503089886334, 146.21541258215854 -1.6607846956793693, 235.33564953691445 -0.5170860026233843 M235.74307830259204 -1.8672555796802044 C237.98773425910622 18.704548801854255, 235.33882528636605 41.78525287210942, 235.50496954843402 62.38507245853543 M235.38375400938094 -0.8102131728082895 C236.71246529269965 17.161498741805556, 237.492996401079 36.259833810105924, 236.98724918998778 61.50564990006387 M236.7161001051618 62.455657864072336 C184.7659306325139 62.41511848437162, 132.30345313243836 63.5473808863534, -1.6513367987472873 63.39846766967589 M236.6771810345759 61.96433281426096 C182.4694227700421 62.41060075308654, 128.85846642873136 62.17226930753808, 0.13285040100760978 62.49683423833335 M-0.4552709348499775 61.61670385673642 C1.5142114901170136 44.05494240485132, -0.4962621188536286 26.732793532311916, 0.22973890230059624 1.726552952080965 M0.4470647517591715 62.262632166966796 C-0.16375138852745297 47.35987548306584, 0.2791904559358954 34.84924488253891, 0.7213858906179667 0.01832601986825466" style="stroke: rgb(8, 127, 91); stroke-width: 1px; fill: none;"></path></g><g transform="translate(810.4444444444445 996.8888888888889) rotate(0 118 31)"><path d="M-0.7438245708457811 -1.512374496707524 C49.250303146253124 -0.29220910332002736, 100.09563729168607 0.32415333141016855, 237.46461352265422 -0.1682735584837332 M0.6529369427464775 0.5948409152189797 C91.21669149822236 1.1298385231236403, 181.94977829982173 0.23458582255351001, 235.62605915336914 0.4395002820388622 M234.52917106077075 1.6162744648754597 C235.3083806404844 12.882554211094977, 238.06114403102546 24.042499271035197, 235.80857939645648 61.93604635074735 M236.34155296720564 -0.8967200163751841 C236.78861193347723 21.680366997420787, 236.75063107896597 43.67606935240328, 236.3332622591406 62.90251097641885 M235.004495919872 60.98054174185477 C184.75274581089602 63.00014086363608, 136.63163763777362 63.06906090861102, 0.6596727451865806 63.510649301437816 M236.05792307899694 62.58744866060534 C148.47158056210716 62.966886428195245, 61.64363560554983 62.840651702361136, 0.7887471040589861 61.4875624313208 M-1.4046518094837666 62.052504409104586 C-1.9090455174818635 48.06236866675317, -0.8576905131712556 30.821611128747463, 1.7783438675105572 -1.563171397894621 M-0.8006416615098715 62.22635725699365 C0.7104667320474982 43.33892859891057, 0.8485684886202216 24.573118211701512, -0.5970907863229513 -0.16934659518301487" style="stroke: rgb(8, 127, 91); stroke-width: 1px; fill: none;"></path></g><g transform="translate(808.4444444444445 673.8888888888889) rotate(0 131 31)"><path d="M-0.7905451191057101 1.4750452482682839 C72.38532477598174 2.8359581876519604, 145.589161773033 1.8302276932362478, 262.97733619688296 0.4248317380191937 M-0.014160524541705102 -0.03208095264696553 C54.80197759074208 -0.1583672173045152, 109.26438185627687 -0.9912668885823005, 261.3517983814719 0.7870792302237801 M261.53133613988757 1.126808512955904 C262.71092415425926 17.516573275998237, 261.07384837243706 37.68061858713627, 263.19591445848346 61.986825454980135 M262.9581977073103 -0.8384704235941172 C262.1195450251177 18.152316097915175, 261.72210143256933 37.91242596842349, 261.40667503513396 61.61062095128 M263.57494943211526 62.160840836639274 C177.52271181092087 59.90072494093672, 90.68294332948327 62.27688350722352, 1.1785605667288408 63.18416776787273 M262.3108496292614 61.65456767728177 C167.79430018257767 60.472684996458796, 72.00767568677969 59.98384176145573, -0.7895397750872307 62.61279756428917 M1.2576237432658672 60.75571118667722 C0.7087196731194854 43.50246182642877, -0.831424651183188 26.176080904901028, -0.2791910655796528 -0.8319265954196453 M-0.6889789160341024 62.298744117841125 C0.5763746037706733 49.92139524891972, -0.8215000495687127 36.492935158684844, -0.3082010205835104 0.8285354133695364" style="stroke: rgb(8, 127, 91); stroke-width: 1px; fill: none;"></path></g><g transform="translate(806.4444444444445 753.8888888888889) rotate(0 110 31)"><path d="M-1.7178441941403524 1.3332966510537043 C57.88589285655269 2.4666050074858155, 115.63447302061091 2.9247795699083294, 218.92165203139956 0.8100396886630431 M-0.12097879334590957 -0.3604896004006453 C48.9080707301804 1.8422715351547703, 100.05227945001485 1.1040851754542098, 220.2589030047976 0.5869845847798996 M219.38359795883298 1.6570708267390728 C220.0191288682446 22.337130753323436, 217.85933155741543 44.724416479468346, 221.642853487283 60.18068463727832 M220.47510377131402 -0.26585490070283413 C220.7547568286583 17.101413507759574, 220.80141516577453 35.41319523714483, 219.613919114694 61.48958539403975 M218.6862536178213 63.25067385190181 C160.19019991102562 60.60631406528176, 98.65095895382554 60.61615395007671, 0.8828643730700836 60.955864466003455 M220.63242661227682 61.674813213951154 C169.53567967501488 61.14526954166201, 120.01572269797708 61.00463904872933, 0.7241442667817064 62.19080981974785 M1.1934240944683552 61.77446408197284 C0.8333847397938371 42.58102527298033, 0.9717975730076432 25.64925562292337, -1.5355024449527264 -0.2385203130543232 M0.3386290427297354 61.96252160705626 C0.5431810239329934 48.739640253037216, -0.38952694144099953 34.39694116525352, 0.2932517286390066 -0.44580686651170254" style="stroke: rgb(8, 127, 91); stroke-width: 1px; fill: none;"></path></g><g transform="translate(1133.4444444444443 728.3888888888889) rotate(0 45 20.5)"><path d="M31.496123726461118 1.368422820473981 C39.81275703670275 -0.1167199488818722, 52.12288788419736 -0.8036812154754609, 60.783942748670235 0.5846086102150174 C69.44499761314312 1.9728984359054957, 78.75112580381459 6.110618848771432, 83.46245291329838 9.698161774616851 C88.17378002278217 13.28570470046227, 90.11145322352988 17.948595315546907, 89.05190540557294 22.109866165287528 C87.992357587616 26.27113701502815, 83.76031037820506 31.643624931638477, 77.1051660055567 34.665786873060576 C70.45002163290833 37.687948814482674, 58.47698443321822 39.665199994123945, 49.12103916968276 40.24283781382012 C39.7650939061473 40.82047563351629, 28.68143219922982 40.29243188364346, 20.969494424343935 38.131613791237605 C13.25755664945805 35.97079569883175, 5.868598836161892 31.311125455638233, 2.8494125203674443 27.277929259385004 C-0.1697737954270031 23.244733063131775, -0.0689886123125274 17.822377906098367, 2.8543765295772516 13.932436613718242 C5.77774167146703 10.042495321338116, 14.308611800613775 6.16102701278324, 20.38960337170612 3.93828150510425 C26.470594942798463 1.7155359974252593, 34.948549148509606 1.039733515634314, 39.34032595613131 0.5959635676442971 C43.73210276375301 0.15219361965428035, 46.77384947624076 1.0067184851240871, 46.740264217436334 1.2756618171641492 M32.36012727947774 2.3984637448309876 C40.858932423846 0.9826348329310166, 52.8163227615824 0.9126798844996331, 61.22879626560808 2.0595135379385816 C69.64126976963377 3.20634719137753, 78.11773454681617 5.957069612605448, 82.83496830363184 9.279465665464679 C87.55220206044751 12.60186171832391, 90.38314679865768 17.713425447219105, 89.53219880650212 21.993889855093972 C88.68125081434657 26.27435426296884, 84.44051322486438 31.896992804718536, 77.72928035069855 34.96225211271387 C71.01804747653271 38.0275114207092, 58.670640434474 39.992767956428, 49.26480156150716 40.38544570306598 C39.85896268854032 40.77812344970397, 28.886181353789624 39.39267550724103, 21.294247112897494 37.31831859254178 C13.702312872005365 35.24396167784253, 6.72997830939393 31.62104422886408, 3.7131961161543927 27.939304214870486 C0.6964139229148549 24.257564200876892, 0.4665549372277522 19.504219358618826, 3.193553953460267 15.227878508580208 C5.920552969692782 10.95153765854159, 15.313403656605892 4.664108049418433, 20.07519021354948 2.2812591146387717 C24.836976770493067 -0.10158982014088869, 29.983137028576678 1.0360284861201716, 31.764273295121797 0.9307848999022461 C33.545409561666915 0.8255413136843206, 30.673032462058696 1.1572169236610197, 30.762007812820194 1.6497975973312187" style="stroke: rgb(166, 30, 77); stroke-width: 1px; fill: none;"></path></g><g transform="translate(1133.4444444444443 810.3888888888889) rotate(0 45 20.5)"><path d="M28.264346258020808 1.2540395706778575 C36.13639898281822 -0.521670802843123, 47.61671563756033 -0.48258595980282126, 56.41826715597695 0.6132610350814502 C65.21981867439357 1.7091080299657218, 75.64556943049033 4.304805389520753, 81.07365536852049 7.829121539983486 C86.50174130655066 11.353437690446219, 89.3445644435835 17.590807438434542, 88.98678278415795 21.759157937857847 C88.62900112473241 25.92750843728115, 84.85144679466634 29.75935096314134, 78.92696541196727 32.83922453652332 C73.0024840292682 35.91909810990529, 62.41158349024825 39.21880894516751, 53.43989448796352 40.23839937814971 C44.468205485678794 41.25798981113191, 33.327090660100936 40.681656251574346, 25.096831398258914 38.95676713441653 C16.866572136416888 37.231878017258715, 8.086257115561796 33.661976832209675, 4.058338916911367 29.889064675202835 C0.030420718260937285 26.116152518195996, -1.258477193738131 20.470436931727416, 0.929322206356332 16.319294192375505 C3.117121606450795 12.168151453023594, 12.086891270608472 7.46223418828308, 17.185135317478146 4.982208239091362 C22.28337936434782 2.5021822898996433, 28.45661576574297 2.1733761720225955, 31.51878648757437 1.4391384972251942 C34.580957209405774 0.7049008224277928, 35.39626336509199 0.4245640301029733, 35.55815964846655 0.5767821903069539 M25.379615316336853 2.4804414106269483 C32.902750792498544 0.12217634860296167, 44.90182275346622 -1.206520112347746, 53.656497375174986 -0.48996439096242383 C62.41117199688375 0.22659133042289847, 72.0525085067497 3.2891662394212333, 77.90766304658945 6.779775738938882 C83.7628175864292 10.270385238456532, 88.13209996945848 16.337253736951997, 88.78742461421345 20.45369260614347 C89.44274925896842 24.570131475334943, 87.00755432423196 28.199554484741817, 81.8396109151193 31.478408954087712 C76.67166750600663 34.757263423433606, 66.7084579544407 38.60005321145727, 57.779764159537415 40.12681942221883 C48.851070364634126 41.65358563298039, 36.7662326949337 42.001546768940145, 28.267448145699582 40.639006218657045 C19.768663596465466 39.276465668373945, 11.249681755421147 35.74202275060611, 6.7870568641327225 31.951576120520237 C2.3244319728442973 28.16112949043436, 0.5715345168904555 22.237664687515327, 1.491698797969029 17.89632643814178 C2.4118630790476026 13.554988188768236, 8.571336271697652 8.693781388077905, 12.308042550604164 5.90354662427897 C16.044748829510674 3.113311860480035, 21.853055873607634 1.8068264334202344, 23.9119364714081 1.1549178553481703 C25.970817069208568 0.503009277276106, 24.143431323261865 1.3176799995636608, 24.661326137406967 1.9920951558465845" style="stroke: rgb(166, 30, 77); stroke-width: 1px; fill: none;"></path></g><g><g transform="translate(1136.4444444444443 749.3888888888889) rotate(0 -2.153555823955685 41.94682183513419)"><path d="M-0.7214464254677295 -0.9404037527740001 C-1.1828501371045907 12.974365157634022, -2.5062911259631315 69.68772530034184, -2.629550153762102 83.78452774956823 M-0.5052995140291752 -1.072841702308506 C-0.9042397805986306 13.134884056840093, -3.4185986625092726 71.06062868157403, -3.801812133882195 84.96648537257687" style="stroke: rgb(166, 30, 77); stroke-width: 1px; fill: none;"></path></g></g><g><g transform="translate(1222.4444444444443 752.3888888888889) rotate(0 -0.053178164865812505 36.8685936369281)"><path d="M-0.9404037527740001 -0.6295501537621021 C-1.0256348423659802 12.080524151772261, -0.31227469965815546 63.087972801178694, -0.2154722504317761 75.53899940773844 M-1.072841702308506 -1.8018121338821949 C-0.8651159431599083 10.648307728078217, 1.060628681574017 61.587088259365416, 0.9664853725768627 74.1954196577333" style="stroke: rgb(166, 30, 77); stroke-width: 1px; fill: none;"></path></g></g><g transform="translate(811.4444444444445 837.8888888888889) rotate(0 132.5 31)"><path d="M-0.8023985101547836 0.3920123184347748 C104.41205871360826 0.11311447121053186, 208.31726887481028 -0.520480146009393, 265.05192595463365 -1.3724198789281248 M0.5303903345818817 -0.4903033979854881 C61.068702185735674 0.7808347928688062, 121.05508004326764 0.9908454007493984, 265.2567603608699 0.2887875516328513 M263.91147692129016 -0.09753240272402763 C265.61270969484 12.34921082444489, 263.761812501885 29.78263694345951, 265.4814660064876 62.84559916332364 M265.7093161288649 -0.6011435631662607 C265.7505058853701 25.484539036452773, 265.22083725620064 48.39350006319583, 264.61268084682524 61.717157101258636 M265.48490321236034 61.78798784512621 C162.0832444140886 65.23031819486673, 60.149041908724605 63.92578236023957, -0.3313760319576859 63.44701737054163 M264.77142550948764 62.247584478774996 C210.70527348757466 63.10492551825622, 155.56004482555548 62.62361403269199, -0.07387992510077357 61.252663460558864 M0.8931661359965801 60.02255069091916 C-0.8980183744803071 44.29084154330194, 0.3939143275842071 24.667153178155417, -0.6005425937473774 -0.7915427796542645 M-0.8617038782685995 62.69209209643304 C0.2789661994203925 45.2388901181519, -0.04752020929008721 28.55415699668228, 0.08480125106871128 -0.5588096622377634" style="stroke: rgb(166, 30, 77); stroke-width: 1px; fill: none;"></path></g><g transform="translate(864.9444444444445 853.3888888888889) rotate(0 65 15.5)"><text x="65" y="23" font-family="Virgil" font-size="20px" fill="#364fc7" text-anchor="middle">Cuckoo filter</text></g><g transform="translate(1137.4444444444443 682.3888888888889) rotate(0 51 15.5)"><text x="51" y="23" font-family="Virgil" font-size="20px" fill="#364fc7" text-anchor="middle">Database</text></g><g transform="translate(835.4444444444445 932.3888888888889) rotate(0 95 15.5)"><text x="95" y="23" font-family="Virgil" font-size="20px" fill="#364fc7" text-anchor="middle">Beacon transmitter</text></g><g transform="translate(851.9444444444445 1013.3888888888889) rotate(0 76.5 15.5)"><text x="76.5" y="23" font-family="Virgil" font-size="20px" fill="#364fc7" text-anchor="middle">Beacon receiver</text></g><g transform="translate(818.9444444444445 770.3888888888889) rotate(0 96.5 15.5)"><text x="96.5" y="23" font-family="Virgil" font-size="20px" fill="#364fc7" text-anchor="middle">Check infection risk</text></g><g transform="translate(821.9444444444445 685.3888888888889) rotate(0 101.5 15.5)"><text x="101.5" y="23" font-family="Virgil" font-size="20px" fill="#364fc7" text-anchor="middle">Downloaded infected</text></g><g transform="translate(1113.4444444444443 871.8888888888889) rotate(0 83 37)"><text x="0" y="17.666666666666668" font-family="Virgil" font-size="16px" fill="#364fc7" text-anchor="start">- Seeds of sent</text><text x="0" y="42.333333333333336" font-family="Virgil" font-size="16px" fill="#364fc7" text-anchor="start">&nbsp; identifiers</text><text x="0" y="67" font-family="Virgil" font-size="16px" fill="#364fc7" text-anchor="start">- Received identifiers</text></g><g transform="translate(810.4444444444445 590.8888888888889) rotate(0 118 31)"><path d="M-1.0272284427147254 -0.28234388251146225 C58.46144852934329 0.5166488932009449, 120.18320020468653 -1.2597877431885487, 236.94061376714725 -1.0079212342092407 M-0.1586582657232709 0.2460208719892807 C85.17819981376155 -2.378057170492537, 169.33640978197243 -1.6647440523363188, 235.6780146624142 0.23584619576945973 M236.79336996003985 0.7613410837948322 C234.15030666086824 15.917474748566747, 234.3299308607355 30.124866500496864, 234.3338294737041 62.282525170594454 M235.27604191936553 -0.18051030673086643 C236.84083055544644 24.389517168700696, 235.49862950135022 49.09721516110003, 235.3961062375456 61.44419256411493 M235.77736587757767 63.47415975084149 C150.91999322516904 62.07849200743294, 66.79929506794018 62.89978085736242, -0.4836850980309351 61.820516148725616 M235.19369842217054 61.82938779456528 C146.97379737074783 61.745563516441194, 59.28974100507264 61.41086650957758, 0.02305727104623839 61.19837147297345 M-0.2703891284763813 62.04637931659818 C-0.6288181698694825 41.14212894402444, -0.2504558718577027 20.32453704923391, -1.375902820378542 -0.2050424925982952 M-0.8151616510003805 61.33194456063211 C-0.02663514588028193 49.105359620600936, -0.8830612060800195 34.942104377225036, -0.42917860113084316 -0.8802551869302988" style="stroke: rgb(8, 127, 91); stroke-width: 1px; fill: none;"></path></g><g transform="translate(841.4444444444445 607.3888888888889) rotate(0 79 15.5)"><text x="79" y="23" font-family="Virgil" font-size="20px" fill="#364fc7" text-anchor="middle">Upload contacts</text></g><g><g transform="translate(839.0555555555561 587.888888888889) rotate(0 -1.762725532877596 -102.82466651749797)"><path d="M0.053872746974229724 -1.1086308069527149 C-0.32685742369957715 -35.27358829056224, -2.4938799883757006 -170.97536332483094, -3.184349081168648 -204.94783042147756 M-0.020562273468822223 -0.701502613518387 C-0.7764747288554205 -35.11052546828365, -3.1393236612674063 -170.90689748038227, -3.579323812729444 -204.69309759268538" style="stroke: rgb(54, 79, 199); stroke-width: 1px; fill: none;"></path></g><g transform="translate(839.0555555555561 587.888888888889) rotate(0 -1.762725532877596 -102.82466651749797)"><path d="M5.27284395060079 -175.86224002736986 C3.956885670584178 -183.67123943593478, 1.5567112802106422 -188.22862231099336, -1.6546904401543996 -204.71557002270595 M7.670345287011432 -176.0752301492858 C4.3148241877298465 -184.82853745413004, 1.9154041345166233 -191.32934925835542, -3.5541639415237567 -204.20095462294296" style="stroke: rgb(54, 79, 199); stroke-width: 1px; fill: none;"></path></g><g transform="translate(839.0555555555561 587.888888888889) rotate(0 -1.762725532877596 -102.82466651749797)"><path d="M-15.245858857568901 -175.54155723106086 C-11.945166397324712 -183.4319227797947, -9.7285780369982 -188.0614601376503, -1.6546904401543996 -204.71557002270595 M-12.84835752115826 -175.7545473529768 C-10.834974039245871 -184.57011572450338, -7.865336454704259 -191.1548394812979, -3.5541639415237567 -204.20095462294296" style="stroke: rgb(54, 79, 199); stroke-width: 1px; fill: none;"></path></g></g><g><g transform="translate(712.111111111111 390.33333333333354) rotate(0 50.26232087715317 142.2387755270861)"><path d="M-0.4715804390609264 0.3406260900199414 C16.088779161677316 47.65520962203541, 83.39661372952439 236.1228193533917, 100.01754690814349 283.38458077237004 M-0.46177584310993547 -0.9817227596975864 C16.12318540846239 46.869148184365265, 84.44562207537048 237.66468168984474, 100.99622219336736 285.45927381386974" style="stroke: rgb(54, 79, 199); stroke-width: 1px; fill: none;"></path></g><g transform="translate(712.111111111111 390.33333333333354) rotate(0 50.26232087715317 142.2387755270861)"><path d="M82.50718447254823 262.22611034628386 C86.74116091883388 269.2448352992005, 94.37667405913406 280.42165297488174, 99.1973677119385 284.9546007612906 M81.27623350793348 262.99209742773706 C85.85665492734681 266.9981625215128, 91.62398306699417 273.2945457840761, 100.20008155798125 284.9546630909852" style="stroke: rgb(54, 79, 199); stroke-width: 1px; fill: none;"></path></g><g transform="translate(712.111111111111 390.33333333333354) rotate(0 50.26232087715317 142.2387755270861)"><path d="M101.85888699777185 255.3973760740272 C99.20182520029664 264.7616288888375, 99.97491934605576 278.36002346285767, 99.1973677119385 284.9546007612906 M100.6279360331571 256.1633631554804 C100.47609057799508 261.9531542300382, 101.47605040859497 269.9318231373932, 100.20008155798125 284.9546630909852" style="stroke: rgb(54, 79, 199); stroke-width: 1px; fill: none;"></path></g></g><g transform="translate(1121.4444444444443 991.8888888888889) rotate(0 11 10.5)"><path d="M0.9329424573712819 6.1110464787337815 C0.9329424573712819 6.1110464787337815, 0.9329424573712819 6.1110464787337815, 0.9329424573712819 6.1110464787337815 M0.9329424573712819 6.1110464787337815 C0.9329424573712819 6.1110464787337815, 0.9329424573712819 6.1110464787337815, 0.9329424573712819 6.1110464787337815 M0.6523064043931281 13.688369438551527 C2.5410083577352682 12.378608462389227, 3.5358506111411074 8.549105492062042, 8.949069967287713 3.0210401700562026 M0.5502073414250828 13.564500908028496 C2.905796601687937 9.78658503829134, 5.5567030435249665 6.808268042547177, 7.898748645632649 2.9605225584222166 M2.839742732098994 15.48709049164745 C6.450965337093488 12.494271620023984, 11.779190837105787 8.021882275898314, 14.457513570872486 -0.07880867410223313 M2.3228747200730417 15.751281986902086 C7.647493061499711 11.460693896063653, 11.62256373287417 6.156006338612988, 16.99940304280573 1.4678910155989664 M4.056539162480714 21.12732781094779 C6.829373048567085 14.752585028754279, 11.365110463641951 13.737282990672288, 18.658757480502253 3.8256994276688108 M5.267950443038227 19.161251602669253 C7.80305092115929 16.28356194003708, 10.661775281896531 14.406813928498, 19.35682655935002 4.318204488177658 M9.789301044683883 20.215498079319236 C11.778561637798123 17.360577695297618, 14.887173425562551 10.869586763848005, 22.005057585353804 7.3577090990735305 M9.741063324365744 20.932500602450904 C14.864613892569128 14.54887680463887, 19.24049006188955 10.562436564438, 21.122469773816714 6.361458392348708 M15.376478501147163 20.377951438724185 C17.559681602310377 16.747081160558984, 19.282378946581392 13.738106403544277, 24.1775023142599 10.877062469700073 M13.57952093101902 22.03908378314146 C16.816960349276 18.53602759205188, 19.302358958126945 14.715385883653301, 23.607759539482785 10.42358120361129" style="stroke: rgb(250, 82, 82); stroke-width: 0.5px; fill: none;"></path><path d="M5.634167555886238 0.750828326261626 C7.606016172100994 -0.4877936898076858, 11.673679171552227 -1.303000591954445, 13.940214448763463 -0.657389932035958 C16.2067497259747 -0.011779272117471096, 17.83608675407314 2.8402215173147187, 19.23337921915366 4.624492285772547 C20.630671684234184 6.408763054230375, 22.226208789258557 7.97447520623572, 22.32396923924659 10.04823467871101 C22.421729689234624 12.1219941511863, 21.297044134018414 15.272653006552613, 19.819941919081863 17.06704912062429 C18.342839704145312 18.861445234695967, 16.04329121501072 20.366556398723937, 13.461355949627276 20.81461136314107 C10.879420684243831 21.2626663275582, 6.537659218770275 20.78752308378958, 4.3283303267812 19.75537890712708 C2.119001434792124 18.723234730464583, 0.7968114340776643 16.86643181527346, 0.20538259769282163 14.62174630316608 C-0.38604623869202104 12.3770607910587, -0.21595927505880963 8.662722330124009, 0.7797573084721439 6.287265834482795 C1.7754738920030975 3.9118093388415827, 4.936827859346975 1.380835359207672, 6.179682098878542 0.369007329318805 C7.42253633841011 -0.6428207005700621, 8.192634488372683 0.06591027042032108, 8.236882745661548 0.21629765514959232 M9.79529323667376 -0.8617561948820924 C11.906279825068584 -0.8890072048058535, 14.79101681039935 1.0287915871553543, 16.91173166440708 2.6707050573440547 C19.032446518414808 4.312618527532755, 21.63937266935537 6.739639843841546, 22.51958236072013 8.98972462625011 C23.399792052084887 11.239809408658674, 23.176417757461536 14.241345088567105, 22.19298981259562 16.17121375179544 C21.209561867729704 18.10108241502378, 18.854807458118913 19.99699754334158, 16.619014691524626 20.568936605620134 C14.38322192493034 21.14087566789869, 11.032747453210227 20.177927252878714, 8.778233213029894 19.60284812546679 C6.523718972849561 19.027768998054864, 4.377215204023266 18.755013206270043, 3.0919292504426235 17.11846184114858 C1.8066432968619803 15.481910476027117, 1.04832451505376 12.230142674391018, 1.0665174915460351 9.783539934738014 C1.0847104680383104 7.33693719508501, 1.912033623689144 4.267918365937845, 3.2010871093962754 2.438845403230559 C4.490140595103407 0.6097724405232725, 7.730395635518863 -0.7529715867638451, 8.800838405788824 -1.1908978415057039 C9.871281176058785 -1.6288240962475626, 9.352789117683727 -0.7215453504623935, 9.62374373101604 -0.18871212522059366" style="stroke: rgb(201, 42, 42); stroke-width: 1px; fill: none;"></path></g><g transform="translate(1108.4444444444443 591.8888888888889) rotate(0 14 16)"><path d="M0 0 C0 0, 0 0, 0 0 M0 0 C0 0, 0 0, 0 0 M-0.32349197488742565 7.099018496324413 C1.0704540839090813 4.344204756551028, 3.427934327364491 3.118414925094731, 5.481232116701549 0.6948597397503667 M-0.5215425043972084 6.201908529599302 C1.7379718580167183 3.9094541106077596, 3.6598180369730438 1.9484983251047603, 4.852687540980524 0.2196451101300531 M1.370624361289631 11.988722405254423 C1.1917186065309349 10.219711171088635, 6.724392247485628 5.991999220734377, 10.225540684116018 -1.627026138167107 M-0.49944353465925584 12.341317056536257 C3.006416764966268 7.791781999331109, 7.002633099828796 4.259415903443328, 10.37728346283449 -0.05135461882802228 M-1.522855735435174 18.391111689527207 C7.516883578962605 11.555044566528597, 13.000044552760105 3.1054275797053936, 15.013848263307889 0.5074834718299082 M0.033610171587183046 18.556909565721327 C4.6878472319983935 14.563683457958778, 6.885078876774555 8.419354251275669, 16.3614153279955 0.9172630074364116 M-0.6867310514488008 24.76577270188844 C5.756728346177657 16.426894452910766, 9.800107252662096 11.510401365914351, 22.084723713153863 1.4955794451921705 M1.168935092370889 23.626201022132395 C5.87699069770644 18.127391113707617, 11.990382229229501 11.003248956063095, 21.90371505943861 0.026855956220579458 M-0.4607860324392661 30.537923598427525 C9.289831106892857 18.402296673094856, 20.409552473311336 9.111537817701397, 25.418344302710505 -1.165587626955217 M-0.4059581802646264 31.133175920460573 C6.351701326138419 23.206477245463937, 13.961775105196661 13.258104346365652, 26.452654507618757 0.02231349926560533 M3.6099570837334696 35.0386307358431 C12.5560141350974 22.82046749788102, 19.82552262968396 10.952847573662293, 31.1388023701748 1.9653373434230161 M3.2723920025394264 34.43459641818575 C10.56833482805586 24.587178861384878, 19.633263855958365 14.515923908037376, 30.263856772451675 1.4663896503880096 M9.086899664256908 32.67328962194767 C13.958479965890024 28.8101252360141, 17.988060159187434 19.7824361266303, 31.319790945762737 8.26490985480769 M6.475042769689299 33.729131948901674 C11.419005597783208 29.789023082977423, 17.314089438701536 23.726993906054332, 29.4312175208721 6.937116958849863 M11.824984739347025 33.53720575522203 C17.06952586060278 28.02818185200138, 25.676688088327353 19.996444904658915, 29.764135012623832 14.377499594120211 M12.155264788119718 34.485440061870406 C18.489002340469177 28.571396483098443, 22.59725204783411 22.174737783673542, 30.8539362477483 14.17292028735382 M16.547572386407424 34.5048714470669 C22.905864521437547 30.884580195769203, 27.076488285466056 26.514280760088802, 31.898039235278898 21.06827168291838 M17.652750383925756 34.35198965441354 C23.53510548762955 28.040370983216658, 27.23412734746706 23.502226073666293, 31.347252765867793 20.754606739472905 M22.96960669751054 34.48235916363465 C24.7763109125281 31.517638657065774, 26.821597821183648 28.200053104591106, 30.951729081894218 25.710995938254005 M23.632361761245487 33.33204071334021 C25.93552899814519 31.32986092601626, 28.231132029655218 28.654598052311634, 29.908686801182984 26.017063726296133" style="stroke: rgb(206, 212, 218); stroke-width: 0.5px; fill: none;"></path><path d="M1.0870182029902935 -0.544323455542326 C7.68057885915041 -0.4428486753255129, 11.559978596121073 0.59193790666759, 28.30687529966235 1.177590001374483 M0.6564509216696024 -0.4575600866228342 C6.742797515913845 -0.6453899176418781, 16.05856954045594 -1.0557952554523946, 28.13103031553328 0.9643611069768667 M27.364123415201902 1.6013752110302448 C28.199729586690665 10.060703820735217, 26.281869197934867 24.781861806660892, 28.912910412997007 31.098545778542757 M28.647137397900224 -0.030665958300232887 C27.889543294683097 13.01172270141542, 28.572372376695274 24.499582171067598, 28.410651499405503 32.55852780304849 M26.792454671114683 30.579429376870394 C17.28782424032688 30.753460792675614, 7.779726249724625 31.642365721836686, 0.804815124720335 33.23088537529111 M27.012436682358384 31.331094121560454 C18.74921089671552 31.52460891008377, 10.32295448668301 32.16743004322052, 0.9321340266615152 31.041600978001952 M-1.6603366620838642 33.88898454979062 C-1.0116361071169377 26.892675072699785, -0.4180142571032048 18.82640786245465, 0.4307095520198345 -1.2192144505679607 M-0.9297190960496664 31.529514586552978 C-0.5481090178340673 23.503762989863752, 1.0637323627620936 14.22023513279855, 0.30442565120756626 0.9306094404309988" style="stroke: rgb(0, 0, 0); stroke-width: 1px; fill: none;"></path></g><g transform="translate(1147.4444444444443 582.3888888888889) rotate(0 52 24.5)"><text x="0" y="18.5" font-family="Virgil" font-size="16px" fill="#364fc7" text-anchor="start">Authorization</text><text x="0" y="43" font-family="Virgil" font-size="16px" fill="#364fc7" text-anchor="start">switch</text></g><g transform="translate(1150.9444444444443 977.3888888888889) rotate(0 69.5 24.5)"><text x="0" y="18.5" font-family="Virgil" font-size="16px" fill="#364fc7" text-anchor="start">"possible infected"</text><text x="0" y="43" font-family="Virgil" font-size="16px" fill="#364fc7" text-anchor="start">LED</text></g><g><g transform="translate(1092.4444444444443 589.8888888888889) rotate(0 12.660274520218366 9.331365461051462)"><path d="M-1.0531371556222437 0.8163609586656091 C3.6019230005641782 4.325160233428081, 21.276710355033476 15.718881154308717, 25.359835747629404 18.431373818963767 M-1.9840962025523186 0.0922065970301631 C1.8568790852030124 3.8436551679174102, 23.28401327798764 15.731608407994111, 27.304645242989064 18.570524325072764" style="stroke: rgb(0, 0, 0); stroke-width: 4px; fill: none;"></path></g></g><g><g transform="translate(1027.4444444444443 819.8888888888889) rotate(0 48.17547677233813 86.0542321308236)"><path d="M-0.6962075762450695 0.5640870742499828 C15.33579918816686 29.429278669009605, 80.85035714581609 144.5231190217038, 97.04716112092137 173.1144679956138 M-0.05794878920540203 -1.0060037339664996 C15.780219970736653 27.564874095624937, 80.09671216169373 142.17609045098845, 96.0737577030994 171.178086311128" style="stroke: rgb(54, 79, 199); stroke-width: 1px; fill: none;"></path></g><g transform="translate(1027.4444444444443 819.8888888888889) rotate(0 48.17547677233813 86.0542321308236)"><path d="M74.3372798040616 153.28230680159842 C83.66095452591532 159.76823206870114, 90.40940013614235 167.39427262076342, 95.80361489826814 171.11475430106745 M73.29020815529996 152.08674942895388 C78.06895028481695 157.1504162957045, 85.06942663532118 161.57139668656203, 95.26668778123334 171.10588791457937" style="stroke: rgb(54, 79, 199); stroke-width: 1px; fill: none;"></path></g><g transform="translate(1027.4444444444443 819.8888888888889) rotate(0 48.17547677233813 86.0542321308236)"><path d="M92.26762409573632 143.30118682597208 C94.92810033079486 153.38867612692192, 95.01972552072229 164.72030772566922, 95.80361489826814 171.11475430106745 M91.2205524469747 142.10562945332754 C91.60989684948684 149.5344102632251, 94.21695260695475 156.4010357197406, 95.26668778123334 171.10588791457937" style="stroke: rgb(54, 79, 199); stroke-width: 1px; fill: none;"></path></g></g><g transform="translate(403.5555555555552 522.4444444444445) rotate(0 139.5 284.00000000000006)"><path d="M1.4760145270181921 -0.07481110483415424 C104.05866141560057 1.8109386930461213, 209.91919274464007 2.3669506351444527, 278.41355924307703 -0.9544782292227535 M-0.4836851777819052 0.5725352896524563 C76.18646399565257 -0.542570731852219, 152.71846165537704 -0.1050632330321527, 278.6845252349399 -0.6398082174517974 M278.52596557587384 -0.5156869933009148 C277.2257743587494 156.17201625108723, 277.9333845367431 312.9464336678386, 279.06818087548015 567.9590403035284 M279.1595854498446 0.14924944862723352 C280.16721769556403 201.57029340043667, 280.7027402280271 402.6273625902832, 279.0654450394213 567.8974979065358 M279.31487047096596 567.1286127990361 C186.81074277922716 567.4368905436193, 95.85564415548454 566.0480515628477, -0.9434440880179136 568.5715440872879 M279.3052051184434 567.6968355792594 C177.55357839349378 568.9545428287392, 74.91510467700216 568.5951516580861, -0.2861210487451449 567.5541328231103 M0.08973195999860764 568.2514410927892 C-2.1851476999521253 352.4921355992555, -2.5671829077005386 137.2212044343352, 0.4661361023783684 0.05579790621995926 M0.050636980682611465 568.297694530338 C-0.7083462839424609 353.712230784446, -0.4033184414207934 139.23930594846607, -0.2115499995648861 0.2699710033833981" style="stroke: rgb(0, 0, 0); stroke-width: 1px; fill: none;"></path></g><g transform="translate(411.0555555555552 532.9444444444445) rotate(0 131.5 22)"><text x="131.5" y="32" font-family="Virgil" font-size="28px" fill="#364fc7" text-anchor="middle">Epidemic Dosimeter</text></g><g transform="translate(432.5555555555552 918.9444444444445) rotate(0 118 31.000000000000057)"><path d="M-0.23164731598194685 -0.1775993645581141 C50.58013699906007 0.5267937220349854, 97.50579168550254 -0.94700676410579, 235.56694841654698 1.3204647391777617 M-0.3515168064910121 -0.6899261276463441 C69.50052467544208 -1.6888363378463644, 139.30667680305922 -2.176725893337454, 235.7947919084209 -0.6829822146518401 M236.18286592885852 -0.878748070448637 C237.5845146951452 22.45701760239899, 235.80307551000269 45.31462241709232, 237.08622903749347 63.36186884716153 M235.05033671297133 0.803471839055419 C236.63650049138815 15.114359287917615, 236.41097004581243 29.324697038903835, 236.30361598171294 61.847053265199065 M235.9799148555769 63.4743887530264 C187.55643932916928 60.83183018515716, 135.46318366293167 61.5007035118002, 1.0967236654282226 60.36931628573872 M236.5113226724932 62.401751119293365 C158.45585321286507 61.226621110472074, 81.16011427250498 60.73032686438498, 0.6691569962781003 62.70175054018734 M-0.7175249345600605 62.35388385131955 C-1.7421552229300141 45.272678625211114, 1.095797986947 26.084650431573387, 1.551827859133482 0.2825882323086262 M-0.9683151300996542 62.46035495959222 C-0.2842328438535333 41.326479382067916, -0.607362318970263 20.41224453635514, -0.5742391999810934 0.8995777126401663" style="stroke: rgb(8, 127, 91); stroke-width: 1px; fill: none;"></path></g><g transform="translate(431.5555555555552 999.9444444444446) rotate(0 118 31)"><path d="M-0.1775993645581141 1.5066670152737272 C93.89986882873575 -0.3678044492114491, 185.8956556932317 -0.15970775059432457, 237.32046473917777 -0.06934795025185196 M-0.6899261276463441 -0.32526601667870947 C55.73089466468929 0.4846750821364331, 111.18550447187553 0.6243715717396903, 235.31701778534816 0.5566165410226634 M235.12125192955136 1.9518913738429546 C235.348849353455 15.09668540172279, 235.49794333901255 30.93869546353817, 237.36186884716153 60.771121334284544 M236.80347183905542 0.389143044129014 C236.55521979700774 21.237187071144582, 235.97508141171187 42.4507649268955, 235.84705326519907 61.108164424076676 M237.4743887530264 63.30911973737885 C160.32000393064249 60.944844008931526, 85.35289257350368 63.07302319500898, -1.6306837142612827 62.460099293609254 M236.40175111929335 61.71938980990835 C155.83375740987816 62.89390897367549, 75.16238728782331 63.87587850336205, 0.7017505401873416 61.92242778317216 M0.35388385131955147 60.32738704606891 C1.1052339452877642 43.86991756595671, -0.05537208136171101 24.960982479155064, 0.2825882323086262 0.8165617696940899 M0.46035495959222317 61.794254476204515 C-0.003605653904378392 42.086251800507306, 0.2135009864345193 22.65601439885795, 0.8995777126401663 -0.48423314653337" style="stroke: rgb(8, 127, 91); stroke-width: 1px; fill: none;"></path></g><g transform="translate(456.5555555555552 935.4444444444445) rotate(0 95 15.500000000000057)"><text x="95" y="23" font-family="Virgil" font-size="20px" fill="#364fc7" text-anchor="middle">Beacon transmitter</text></g><g transform="translate(473.0555555555552 1016.4444444444446) rotate(0 76.5 15.5)"><text x="76.5" y="23" font-family="Virgil" font-size="20px" fill="#364fc7" text-anchor="middle">Beacon receiver</text></g><g><g transform="translate(670.9999999999998 951.2222222222222) rotate(0 66.96214996047115 40.422372931412724)"><path d="M-0.2582053251564502 -0.6292506270110607 C22.42095413685398 13.20121415199506, 112.33504355254553 68.70769529350936, 134.89853910464385 82.52556470508384 M-1.204920984003693 -1.6808188422583044 C21.26006030625285 11.585117205044059, 112.29213342496162 67.29292669149949, 135.12922090494595 81.04674708862485" style="stroke: rgb(54, 79, 199); stroke-width: 1px; fill: none;"></path></g><g transform="translate(670.9999999999998 951.2222222222222) rotate(0 66.96214996047115 40.422372931412724)"><path d="M104.6596877472244 74.91840320368607 C111.39288972697679 76.54028209734429, 116.92219893415266 77.98397636108348, 136.71515621074997 79.72989355419459 M106.12485865035576 74.18306825784344 C112.24645359247181 75.86750173836319, 117.92049080467264 77.22806155750601, 134.31314122320674 80.0644298551667" style="stroke: rgb(54, 79, 199); stroke-width: 1px; fill: none;"></path></g><g transform="translate(670.9999999999998 951.2222222222222) rotate(0 66.96214996047115 40.422372931412724)"><path d="M115.31385301214226 57.37962431535816 C119.82845818240742 62.520801411362314, 123.2059968308786 67.50671856250159, 136.71515621074997 79.72989355419459 M116.77902391527363 56.64428936951553 C120.68999341743765 61.885143450099925, 124.14634507889579 66.8964347485442, 134.31314122320674 80.0644298551667" style="stroke: rgb(54, 79, 199); stroke-width: 1px; fill: none;"></path></g></g><g transform="translate(713.7222222222216 1004.1111111111113) rotate(0 19.5 15.5)"><text x="0" y="23" font-family="Virgil" font-size="20px" fill="#364fc7" text-anchor="start">BLE</text></g><g transform="translate(560.0555555555571 432.50000000000057) rotate(0 62.5 15.5)"><text x="0" y="23" font-family="Virgil" font-size="20px" fill="#364fc7" text-anchor="start">WiFi / REST</text></g><g><g transform="translate(1048.4444444444443 1002.8888888888889) rotate(0 46.9367935598828 -78.42807089785117)"><path d="M0.3652800031006336 -0.36897032931447027 C15.857434879491725 -26.627598721534017, 78.41768782412012 -130.52437523081898, 93.83323366120457 -156.37793999388813 M-0.30268853148445496 -0.3581032861210407 C15.16837797422583 -26.59347281167284, 78.17197689532614 -130.35661904582756, 94.17627565125004 -156.49803850958125" style="stroke: rgb(54, 79, 199); stroke-width: 1px; fill: none;"></path></g><g transform="translate(1048.4444444444443 1002.8888888888889) rotate(0 46.9367935598828 -78.42807089785117)"><path d="M87.66115018863151 -127.36190523376067 C89.56135624481163 -139.98633138133263, 93.2435396920559 -147.59064972175412, 95.17537799412385 -156.82884564781563 M89.21768762495289 -127.74331656453509 C90.16611466704437 -135.7341958261253, 90.80025983627038 -144.11595515959496, 93.33660341920331 -156.31635163696484" style="stroke: rgb(54, 79, 199); stroke-width: 1px; fill: none;"></path></g><g transform="translate(1048.4444444444443 1002.8888888888889) rotate(0 46.9367935598828 -78.42807089785117)"><path d="M70.1345245385853 -138.0360513686504 C78.68286240697859 -146.72854323807925, 88.90876402648506 -150.34757625142603, 95.17537799412385 -156.82884564781563 M71.69106197490667 -138.41746269942482 C77.56478911453944 -143.36727589955177, 83.11395245747359 -148.755668267278, 93.33660341920331 -156.31635163696484" style="stroke: rgb(54, 79, 199); stroke-width: 1px; fill: none;"></path></g></g><g><g transform="translate(1050.4444444444443 914.8888888888889) rotate(0 40.94792161509395 -36.608557859985126)"><path d="M-1.0970018930733203 0.22161945775151248 C12.582846531520287 -12.048410317550104, 69.16679537420472 -60.787158430864416, 82.99284512326122 -72.97305505797267 M1.5873124127648772 -0.942523426618427 C15.533942786759386 -12.921073670989522, 69.74718640576427 -61.36167401950185, 82.91167370190844 -73.43873517772182" style="stroke: rgb(54, 79, 199); stroke-width: 1px; fill: none;"></path></g><g transform="translate(1050.4444444444443 914.8888888888889) rotate(0 40.94792161509395 -36.608557859985126)"><path d="M69.23264564325048 -45.27658620809567 C74.0494918702892 -57.0080686293124, 79.4658999498614 -67.58368669194932, 81.19863139426336 -71.70396751349791 M68.08417397302522 -47.15257965174866 C72.1875838169964 -54.160192184164, 75.74384394397819 -59.103182337469406, 82.18409153966233 -72.55728895960375" style="stroke: rgb(54, 79, 199); stroke-width: 1px; fill: none;"></path></g><g transform="translate(1050.4444444444443 914.8888888888889) rotate(0 40.94792161509395 -36.608557859985126)"><path d="M55.48071259585593 -60.50827488157561 C65.55243625863217 -66.3846994607763, 76.14158189798697 -71.23097548628397, 81.19863139426336 -71.70396751349791 M54.332240925630664 -62.3842683252286 C61.92883253854531 -65.57389762842818, 68.90239284977511 -66.73187426175045, 82.18409153966233 -72.55728895960375" style="stroke: rgb(54, 79, 199); stroke-width: 1px; fill: none;"></path></g></g><g><g transform="translate(914.4444444444445 835.8888888888889) rotate(0 0.5366225530486872 -9.634801877047835)"><path d="M-0.6429858036339283 -0.7677272133529186 C-0.4107079255084197 -3.4156055502593516, 1.0415517183641594 -14.32366951033473, 1.4396842412650586 -17.001989894360303 M1.7162309097312392 0.08224363664165146 C1.7057092667681477 -3.0413171680830415, 0.9828558614912133 -16.13137662431225, 0.8825843291543425 -19.351847390737383" style="stroke: rgb(54, 79, 199); stroke-width: 1px; fill: none;"></path></g><g transform="translate(914.4444444444445 835.8888888888889) rotate(0 0.5366225530486872 -9.634801877047835)"><path d="M3.773220194918092 -11.410504130905775 C4.1290714596687925 -13.739414603447155, 3.198786366437442 -15.62095517335829, 0.5804993716378706 -18.502605211852558 M4.13349827166192 -11.29461942250345 C3.553979054110429 -13.607193477782017, 1.8523965245547063 -16.502388436364246, 0.8518604810377164 -19.150634201482823" style="stroke: rgb(54, 79, 199); stroke-width: 1px; fill: none;"></path></g><g transform="translate(914.4444444444445 835.8888888888889) rotate(0 0.5366225530486872 -9.634801877047835)"><path d="M-2.4149820436412113 -11.136890565494188 C-0.17639822563963214 -13.515776628407172, 0.7735075470560182 -15.480450506934986, 0.5804993716378706 -18.502605211852558 M-2.0547039668973834 -11.021005857091863 C-0.7482808590587984 -13.371180510392746, -0.5655917740755205 -16.349689209344564, 0.8518604810377164 -19.150634201482823" style="stroke: rgb(54, 79, 199); stroke-width: 1px; fill: none;"></path></g></g><g><g transform="translate(1126.4444444444443 786.8888888888889) rotate(0 -45.97880272194743 0.013808875530912701)"><path d="M0.7648117728531361 -0.9709126062691211 C-14.718625646084547 -0.9118954805036386, -77.27142837569117 0.6142103446026643, -92.722417216748 0.9985303573310376 M-1.7626937355659902 0.6906904940865934 C-17.018724327888343 0.8446351686182122, -76.28587759515271 -0.4540622829335433, -91.6191599460505 -0.38975580343976635" style="stroke: rgb(54, 79, 199); stroke-width: 1px; fill: none;"></path></g><g transform="translate(1126.4444444444443 786.8888888888889) rotate(0 -45.97880272194743 0.013808875530912701)"><path d="M-64.94484761156805 -9.903812829885783 C-72.18344302445334 -5.280164128500864, -80.53055866906503 -3.994478100720543, -93.0545958483778 -2.3161970444954934 M-63.74326531202264 -10.324631473530236 C-72.14616073683975 -7.578838666073371, -81.76364307478988 -4.107447829856735, -91.32222959754989 -1.2649033305235209" style="stroke: rgb(54, 79, 199); stroke-width: 1px; fill: none;"></path></g><g transform="translate(1126.4444444444443 786.8888888888889) rotate(0 -45.97880272194743 0.013808875530912701)"><path d="M-65.15113927665922 10.616358858839277 C-72.43498167542629 8.777904240478968, -80.7171462638436 3.6028017342982537, -93.0545958483778 -2.3161970444954934 M-63.949556977113815 10.195540215194825 C-72.43761538361031 6.01236249862701, -81.98542422792994 2.553216171262891, -91.32222959754989 -1.2649033305235209" style="stroke: rgb(54, 79, 199); stroke-width: 1px; fill: none;"></path></g></g><g><g transform="translate(1062.4444444444443 739.8888888888889) rotate(0 1.9594234993774649 46.831738448617955)"><path d="M0.8770082183182237 0.4637064389884471 C1.4040190008779363 15.934524712214868, 3.037982832143704 77.9359570754071, 3.173516411334276 93.61069151684642 M0.7453305874206126 0.05278538038954128 C1.1322549867567917 15.603799070424092, 2.274598459197829 77.3188906050784, 2.643096783552319 92.80483885398135" style="stroke: rgb(54, 79, 199); stroke-width: 1px; fill: none;"></path></g><g transform="translate(1062.4444444444443 739.8888888888889) rotate(0 1.9594234993774649 46.831738448617955)"><path d="M-7.430631465153532 66.79014593321942 C-5.404844034770566 72.65655561279598, -0.6381520672473071 81.9421526304513, 2.0952899133600296 93.61940780198202 M-7.680896003605561 64.27061031531655 C-3.972582892636183 73.36175251645678, -2.057778848735719 82.6479198749914, 2.242607727069408 92.79759336737916" style="stroke: rgb(54, 79, 199); stroke-width: 1px; fill: none;"></path></g><g transform="translate(1062.4444444444443 739.8888888888889) rotate(0 1.9594234993774649 46.831738448617955)"><path d="M13.086109694960324 66.36197008764947 C8.94009922643113 72.50718572166568, 7.53218952154367 81.92164410533958, 2.0952899133600296 93.61940780198202 M12.835845156508295 63.84243446974659 C10.331461157936287 72.92927096757055, 6.032063400988912 82.34512613031615, 2.242607727069408 92.79759336737916" style="stroke: rgb(54, 79, 199); stroke-width: 1px; fill: none;"></path></g></g><g><g transform="translate(1130.4444444444443 749.8888888888889) rotate(0 -40.89854859163984 -57.96951918080447)"><path d="M1.0433729834854601 0.657285826653242 C-12.513304588447015 -18.759122259169818, -68.35448418979844 -96.87299242690206, -82.15586162135006 -116.59632418826223 M1.2653719983436167 -0.9682679552771152 C-12.466392796045792 -20.099991259668023, -69.25017626147097 -96.48498413154856, -83.06246918162331 -115.8698661387898" style="stroke: rgb(54, 79, 199); stroke-width: 1px; fill: none;"></path></g><g transform="translate(1130.4444444444443 749.8888888888889) rotate(0 -40.89854859163984 -57.96951918080447)"><path d="M-57.06093452220853 -99.40575255934236 C-63.24860590003089 -102.41780818290798, -70.83786868593805 -107.42417592794386, -84.24227935915813 -114.48694592202082 M-57.942413917761996 -99.29765532087622 C-63.57874123730001 -102.781396454317, -70.15215540344622 -107.60596475430985, -83.78555598018691 -115.99271960230544" style="stroke: rgb(54, 79, 199); stroke-width: 1px; fill: none;"></path></g><g transform="translate(1130.4444444444443 749.8888888888889) rotate(0 -40.89854859163984 -57.96951918080447)"><path d="M-73.63775000226182 -87.30909223815846 C-75.96945223852752 -93.27191018671478, -79.71261228932724 -101.08490857820712, -84.24227935915813 -114.48694592202082 M-74.5192293978153 -87.20099499969231 C-75.98937362255562 -93.77606174280136, -78.46683599877747 -101.5895839558229, -83.78555598018691 -115.99271960230544" style="stroke: rgb(54, 79, 199); stroke-width: 1px; fill: none;"></path></g></g><g><g transform="translate(1101.4444444444443 612.8888888888889) rotate(0 -28.37467563879676 0.4800556490534973)"><path d="M-0.7822777099907399 0.27266103699803357 C-10.102183364580075 0.0734750218689442, -46.10428010498484 -0.8716143898665905, -54.97908306792378 -0.7187717489898204 M-1.654653755519539 0.38856731632724406 C-10.785170324935265 0.7899117163755001, -47.10594163029765 1.8048972354270518, -55.96707356760278 1.6918182460404934" style="stroke: rgb(54, 79, 199); stroke-width: 1px; fill: none;"></path></g><g transform="translate(1101.4444444444443 612.8888888888889) rotate(0 -28.37467563879676 0.4800556490534973)"><path d="M-29.778011604416747 -7.967595740188898 C-41.12893741806525 -2.8874289580275008, -47.68514264716181 -2.1282796095413232, -56.74985843563452 -0.11654651409015049 M-30.134875835124035 -8.160876211677731 C-37.59008495866811 -4.803211464481979, -46.214101610126804 -2.1117084387244134, -55.65381158741191 1.1608640396781267" style="stroke: rgb(54, 79, 199); stroke-width: 1px; fill: none;"></path></g><g transform="translate(1101.4444444444443 612.8888888888889) rotate(0 -28.37467563879676 0.4800556490534973)"><path d="M-29.56741037048794 10.84233320446194 C-41.072686502113086 8.804153993440817, -47.70857535566833 2.4463302541694674, -56.74985843563452 -0.11654651409015049 M-29.92427460119523 10.649052732973107 C-37.34773372591232 7.96629105309551, -46.03940248286567 4.615420662652953, -55.65381158741191 1.1608640396781267" style="stroke: rgb(54, 79, 199); stroke-width: 1px; fill: none;"></path></g></g><g transform="translate(10 520.8333333333331) rotate(0 145.26851851851853 284.00000000000006)"><path d="M-0.05808717587896361 0.5802819465471244 C69.51925470670064 -2.8061655378418817, 142.61265663756134 -1.3624433533139682, 291.21033822728424 0.40854348926660783 M-0.43683274595436755 -0.12118329661380932 C75.52258315839384 -2.297152334921086, 150.00068578728926 -2.6240255569837414, 290.48636943072364 0.6763621766798328 M290.0940991667134 -0.25393839329481127 C288.84914428152865 159.7587510228157, 289.87269989409276 318.8512210175395, 290.01227577003067 568.4488803341985 M290.1747181613964 0.10555395111441612 C292.2029170536918 220.03298990502958, 292.4862041735572 440.47101164385685, 290.3848090131802 567.8010604046285 M291.3748330150282 568.6276560096542 C189.13505930773536 567.6950954448201, 90.44627528044559 568.1566674790129, -1.3310552099471427 568.5935158414724 M291.04416310460266 567.9772047914016 C216.35666601720948 566.8745900183413, 143.93474444774728 566.6977707680243, -0.050411774049863335 567.5424377723799 M-0.5183133319020271 567.6971557572484 C1.6543821996450425 398.14682405292984, 0.9720814889669419 226.85918308347462, -0.01458069831132889 0.17511181384325028 M0.2784305311739445 568.1201702974737 C0.9897664842307567 395.67723727896805, 1.136601882904768 224.3807787172496, 0.10260371938347818 -0.01586164012551308" style="stroke: rgb(0, 0, 0); stroke-width: 1px; fill: none;"></path></g><g transform="translate(46.999999999999886 523.2222222222225) rotate(0 102 44)"><text x="102" y="32" font-family="Virgil" font-size="28px" fill="#364fc7" text-anchor="middle">Testing Center</text><text x="102" y="76" font-family="Virgil" font-size="28px" fill="#364fc7" text-anchor="middle">Interfarce</text></g><g transform="translate(36.22222222222217 1000.6666666666663) rotate(0 118 31)"><path d="M-1.474248818372522 -1.2740876600236786 C89.96846045635579 -0.42299168838271417, 178.57315596703532 -0.30970589960588735, 235.29388869453055 1.2513096840900046 M0.6428922880995086 -0.4484243486139706 C91.48842533724299 -0.49426602407673015, 182.69093023651388 1.0791404493552146, 235.8319987054757 -0.5278311816628627 M235.34954316541553 1.7981377728283405 C237.56515534732492 25.599574388936162, 234.34481998298318 48.46020366251469, 237.75653023645282 63.471043813973665 M235.98693560995162 -0.6311720255762339 C236.1335591523722 20.69366293400526, 235.05783568311483 41.38950581289828, 236.4669795576483 61.570227241143584 M235.24490155246002 60.58636519744731 C156.3681430689723 61.9344639620291, 72.17919396645537 63.49605449347255, -0.7920489063379629 61.045349360185874 M235.19559217110898 62.525869202064136 C182.85238316166854 62.26726706994383, 128.9221791978145 61.42658558002586, -0.000738879692596942 61.612244758653006 M1.5138953439891338 63.24214969947934 C0.2098363995179534 38.30934060774743, 0.3652410864457488 17.26018706411123, 0.055915068835020065 -0.9237122647464275 M-0.1489266213029623 61.163063084706664 C-0.21340544793754812 45.88755444958806, -0.17505802486091848 27.951681663468477, -0.1430762466043234 -0.4334998372942209" style="stroke: rgb(8, 127, 91); stroke-width: 1px; fill: none;"></path></g><g transform="translate(36.6111111111112 916.3888888888888) rotate(0 118 31.000000000000057)"><path d="M-1.2740876600236786 1.0593869969987524 C70.22979274965813 2.4946226540008363, 140.22803516130375 1.0335023002101242, 237.25130968409002 1.4645271086246623 M-0.4484243486139706 0.11455205501905007 C56.22224125636967 -1.5740421278488377, 114.83285396160433 -1.685227094439123, 235.47216881833714 0.6867427519522956 M237.79813777282834 1.9084321968257427 C237.73377072062343 13.855328337475658, 236.9253985806927 32.09099324643612, 237.47104381397367 62.755944322794676 M235.36882797442377 0.695153409615159 C235.91384415756912 12.603487367928029, 235.66625963579864 26.43509441278875, 235.57022724114358 62.4391572419554 M234.58636519744732 63.532253979119744 C151.10620716261226 59.616399618653055, 68.67005396753397 60.31693492556486, -0.9546506398141278 60.769277532228195 M236.52586920206414 62.36302883807278 C149.5501465023001 60.04506807444019, 61.932019303421825 60.10085864412462, -0.38775524134699624 62.54039773914268 M1.2421496994793415 61.80814356729388 C-0.8671588688716292 47.380476576462385, 0.6724838227406145 32.889771713316435, -0.9237122647464275 -0.5147315748035908 M-0.8369369152933359 62.218161875382066 C0.7056226066127419 39.34083606526255, -0.22591806139796977 16.025577287003394, -0.4334998372942209 0.5293539706617594" style="stroke: rgb(8, 127, 91); stroke-width: 1px; fill: none;"></path></g><g transform="translate(76.72222222222217 1017.1666666666672) rotate(0 78.5 15.5)"><text x="78.5" y="23" font-family="Virgil" font-size="20px" fill="#364fc7" text-anchor="middle">Key transmitter</text></g><g transform="translate(95.1111111111112 932.8888888888888) rotate(0 59.5 15.500000000000057)"><text x="59.5" y="23" font-family="Virgil" font-size="20px" fill="#364fc7" text-anchor="middle">Ack receiver</text></g><g transform="translate(39.48148148148141 683.111111111111) rotate(0 118 31)"><path d="M-0.06932842448619454 -0.11508557309717087 C89.7553505772349 2.6133742496794676, 183.19363959825685 1.8065883374232747, 236.81345957801497 -0.37287123989504717 M0.7023807374030641 0.10378638331301882 C70.98938688726753 1.59204608336792, 141.56646060222522 0.972566885844207, 236.2032633659983 -0.7942542961965969 M237.05532045289874 1.373581875115633 C236.16950703356414 18.93118982501328, 235.67472327444702 38.59962617456913, 234.97880608960986 63.94875155761838 M236.33336775936186 -0.004887843504548073 C235.91596190501005 18.638749270141126, 235.75251756478102 38.194959244504574, 236.5365772191435 61.118945276364684 M236.4628808640923 62.541470600172765 C151.71023830758216 64.63446628802178, 65.66243068726736 63.352627909740804, -0.19582764934586133 60.53697682592555 M235.933771401896 62.002116122063335 C169.6639796288363 62.72007947660468, 104.16504345539134 62.129620973983, -0.008230014786166697 61.194418656947335 M1.2512659542262554 61.85887645557523 C0.22296191092580553 47.69972772561014, 0.17886937495321031 33.74930778592825, -0.7153622396290302 0.7493308670818806 M-0.4282154496759176 61.6120286937803 C-0.1358104941621423 46.62062317803502, -1.1425814029946924 31.43619970269501, -0.9463919457048178 0.714388882741332" style="stroke: rgb(8, 127, 91); stroke-width: 1px; fill: none;"></path></g><g transform="translate(87.98148148148141 699.611111111111) rotate(0 70.5 15.5)"><text x="70.5" y="23" font-family="Virgil" font-size="20px" fill="#364fc7" text-anchor="middle">User interface</text></g><g><g transform="translate(807.4814814814815 937.7222222222223) rotate(0 -66.92109590909547 48.94241536558184)"><path d="M0.9122475318610668 -0.09938953444361687 C-21.737160369726254 16.298459611198393, -112.05277085886516 82.13120505641444, -134.75443935005208 98.65813363931231 M-1.1522059477306903 -0.7733029081486167 C-23.780466264998893 15.569588905478357, -112.37985927502802 80.52626845811723, -134.4869014640919 97.13942682371564" style="stroke: rgb(54, 79, 199); stroke-width: 1px; fill: none;"></path></g><g transform="translate(807.4814814814815 937.7222222222223) rotate(0 -66.92109590909547 48.94241536558184)"><path d="M-118.10681451811871 72.0609715800236 C-124.34460660219277 81.17018100884705, -130.20952725182832 93.42019883121245, -135.49009715594565 95.88018535078592 M-117.43419090054414 72.2756155222158 C-123.01742922169296 78.74898006631351, -126.40488643991384 85.2408785171903, -133.89730019137477 97.78246215173132" style="stroke: rgb(54, 79, 199); stroke-width: 1px; fill: none;"></path></g><g transform="translate(807.4814814814815 937.7222222222223) rotate(0 -66.92109590909547 48.94241536558184)"><path d="M-105.8921757547124 88.55104745205438 C-116.99403954214314 91.2367739408759, -127.68578648007951 96.97045237270196, -135.49009715594565 95.88018535078592 M-105.21955213713782 88.76569139424657 C-113.97223290904934 90.89062412935806, -120.50792789412124 93.1323207818733, -133.89730019137477 97.78246215173132" style="stroke: rgb(54, 79, 199); stroke-width: 1px; fill: none;"></path></g></g><g><g transform="translate(281.0925925925926 1032.1666666666677) rotate(0 71.72109192400548 1.192601214432102)"><path d="M0.6206785865128039 -0.8239504404366016 C24.212237776733097 -0.15176079767168926, 117.96278452086776 2.5641994020729575, 141.55495635146892 3.2091528693007603 M0.36609995702281584 1.5310254483483732 C24.143469141583054 1.6674518744985622, 119.31014126969085 1.0118218407980415, 143.07608389098814 1.0166130015978887" style="stroke: rgb(54, 79, 199); stroke-width: 1px; fill: none;"></path></g><g transform="translate(281.0925925925926 1032.1666666666677) rotate(0 71.72109192400548 1.192601214432102)"><path d="M113.5498115686758 11.194182104649958 C124.17223132137002 8.965857636987042, 132.35897453641059 5.456952597701009, 143.29253683601192 1.416722244245775 M115.6307612197532 10.714789261328992 C125.59152323711837 8.20704392079252, 136.84289475165988 3.5030593978521614, 143.8302195350515 1.8982875837365463" style="stroke: rgb(54, 79, 199); stroke-width: 1px; fill: none;"></path></g><g transform="translate(281.0925925925926 1032.1666666666677) rotate(0 71.72109192400548 1.192601214432102)"><path d="M113.47467541859606 -9.326888943051006 C123.97876230020812 -5.389702155450312, 132.18808143138645 -2.7327073111441713, 143.29253683601192 1.416722244245775 M115.55562506967345 -9.806281786371972 C125.7032618368428 -4.440136702462143, 136.98346028153736 -1.2709539000870098, 143.8302195350515 1.8982875837365463" style="stroke: rgb(54, 79, 199); stroke-width: 1px; fill: none;"></path></g></g><g><g transform="translate(417.2037037037037 951.6111111111111) rotate(0 -67.44535335073351 1.5203100813822061)"><path d="M0.9968855090439319 0.6604070596396923 C-21.54532305744511 0.9051385114866358, -112.70606956915172 1.288049700000814, -135.4130463546349 1.6060820856856481 M-0.6419159009121358 -0.3624529297091068 C-23.199822384743364 0.18811049747868003, -113.4758971028699 2.7831695888391947, -135.88759221051095 3.4030730924735146" style="stroke: rgb(54, 79, 199); stroke-width: 1px; fill: none;"></path></g><g transform="translate(417.2037037037037 951.6111111111111) rotate(0 -67.44535335073351 1.5203100813822061)"><path d="M-106.89669187239951 -8.799794571790759 C-117.93318898642485 -5.119697521220188, -124.32466368011245 -1.6704902200390004, -135.77863862652538 2.701525659782656 M-108.21041091963298 -7.331923578251068 C-116.23451285484504 -4.530803891959476, -123.42410194539492 -2.2469854957489943, -135.48632118951735 3.156527474073537" style="stroke: rgb(54, 79, 199); stroke-width: 1px; fill: none;"></path></g><g transform="translate(417.2037037037037 951.6111111111111) rotate(0 -67.44535335073351 1.5203100813822061)"><path d="M-106.31800078721957 11.713252959323984 C-117.54393682325527 9.517399950328665, -124.10131284947012 7.085849785635389, -135.77863862652538 2.701525659782656 M-107.63171983445304 13.181123952863675 C-115.68733744082945 10.236591645249074, -123.03907220233113 6.772780709716101, -135.48632118951735 3.156527474073537" style="stroke: rgb(54, 79, 199); stroke-width: 1px; fill: none;"></path></g></g><g><g transform="translate(279.7037037037037 682.1666666666667) rotate(0 137.42548337653278 -153.13755851830567)"><path d="M-1.1784622482955456 -0.7511874742805957 C44.782844188561036 -52.11891471067515, 230.14456070537366 -256.26389461057613, 276.0294290013611 -307.3771197412578 M0.21846578696742647 1.1020027046464382 C45.96349184035635 -50.05611489985208, 229.62114643950636 -255.63392229210936, 275.3325559882261 -306.894336783052" style="stroke: rgb(54, 79, 199); stroke-width: 1px; fill: none;"></path></g><g transform="translate(279.7037037037037 682.1666666666667) rotate(0 137.42548337653278 -153.13755851830567)"><path d="M262.9613004099347 -277.3153540052942 C266.87778296646707 -289.33700329904497, 270.36692635391955 -295.9121131137976, 275.39197548979894 -306.65557636013676 M263.9329096317061 -278.7666098800025 C267.8745631974964 -288.36675540059224, 272.0139211016956 -298.751215563555, 274.6893134260364 -306.8560562419747" style="stroke: rgb(54, 79, 199); stroke-width: 1px; fill: none;"></path></g><g transform="translate(279.7037037037037 682.1666666666667) rotate(0 137.42548337653278 -153.13755851830567)"><path d="M247.65255363349632 -290.9814534678595 C256.5898163518746 -298.4550230754213, 265.0053021797557 -300.6323930385244, 275.39197548979894 -306.65557636013676 M248.62416285526768 -292.4327093425678 C258.10514835964955 -297.11426163533156, 267.75900354007985 -302.57593684642563, 274.6893134260364 -306.8560562419747" style="stroke: rgb(54, 79, 199); stroke-width: 1px; fill: none;"></path></g></g><g><g transform="translate(560.2592592592597 390.5000000000002) rotate(0 -138.38003444164488 153.10627715382935)"><path d="M0.11354474499821654 -0.6816141910851001 C-46.08472198460394 50.618414518926976, -230.99558997322586 255.84306909190835, -276.98750675775966 307.0612961966958 M0.22743787446990593 -1.346361463163048 C-45.9647016114942 50.081844898612, -229.96458869780193 256.44563507967047, -275.98307723238054 307.5589157708217" style="stroke: rgb(54, 79, 199); stroke-width: 1px; fill: none;"></path></g><g transform="translate(560.2592592592597 390.5000000000002) rotate(0 -138.38003444164488 153.10627715382935)"><path d="M-265.9577924261943 278.7147618549132 C-268.3348365010197 289.4641439363446, -272.5937777392262 298.64725146485563, -277.087254718532 307.80748175384895 M-264.5455963394747 278.83206389827666 C-266.8055662384594 285.6222874602871, -269.1199265918182 291.6717201236775, -276.7374047922242 307.4132745575388" style="stroke: rgb(54, 79, 199); stroke-width: 1px; fill: none;"></path></g><g transform="translate(560.2592592592597 390.5000000000002) rotate(0 -138.38003444164488 153.10627715382935)"><path d="M-250.66968472804604 292.4039461036425 C-257.8063417763635 298.8304972130672, -266.9091844094666 303.6763080671541, -277.087254718532 307.80748175384895 M-249.2574886413264 292.52124814700596 C-255.00947576801516 296.26318640795694, -260.78549689806033 299.21299986965903, -276.7374047922242 307.4132745575388" style="stroke: rgb(54, 79, 199); stroke-width: 1px; fill: none;"></path></g></g><g transform="translate(637.4259259259258 850) rotate(88.26429541107159 102 15.5)"><text x="0" y="23" font-family="Virgil" font-size="20px" fill="#364fc7" text-anchor="start">Ephemeral identifiers</text></g><g transform="translate(326.9259259259259 1003.4999999999989) rotate(0 25 24.5)"><text x="0" y="18.5" font-family="Virgil" font-size="16px" fill="#364fc7" text-anchor="start">Upload</text><text x="0" y="43" font-family="Virgil" font-size="16px" fill="#364fc7" text-anchor="start">key</text></g><g transform="translate(475.0370370370373 707.6666666666669) rotate(44.999999999999694 63 24.5)"><text x="63" y="18.5" font-family="Virgil" font-size="16px" fill="#364fc7" text-anchor="middle">Same as the</text><text x="63" y="43" font-family="Virgil" font-size="16px" fill="#364fc7" text-anchor="middle">one on the right</text></g><g transform="translate(326.8703703703703 902.7777777777778) rotate(0 19.5 15.5)"><text x="0" y="23" font-family="Virgil" font-size="20px" fill="#364fc7" text-anchor="start">BLE</text></g></svg>