<svg version="1.1" xmlns="http://www.w3.org/2000/svg" viewBox="0 0 1305.4444444444443 1100.4444444444446">
  <!-- svg-source:excalidraw -->
  <defs>
    <style>
      @font-face {
        font-family: "Virgil";
        src: url("https://excalidraw.com/FG_Virgil.woff2");
      }
      @font-face {
        font-family: "Cascadia";
        src: url("https://excalidraw.com/Cascadia.woff2");
      }
    </style>
  </defs>
  <rect x="0" y="0" width="1305.4444444444443" height="1100.4444444444446" fill="#ffffff"></rect><g transform="translate(188.5000000000001 10) rotate(0 413.5 191)"><path d="M0.7017765954136849 0.2580372139811516 C266.9689940230921 1.3599337908551097, 534.3431404668838 0.5549722525402903, 826.5354485943914 -0.36090013533830645 M0.12191184982657433 0.006902978569269181 C225.96017588879914 2.3071183693781494, 452.77201399393385 2.36966650608927, 827.1401264332235 0.043058130890131 M828.0046151798088 0.798352548710893 C828.4059086817792 120.8512742237908, 826.7266507600141 240.32065915909865, 826.2088310441519 382.0923290553921 M827.0568269571288 -0.1481596369321577 C826.173980355098 79.37148616796654, 825.3983458139104 158.1057754157615, 827.3184534113246 381.6464556512834 M827.1156515076757 382.21392701119186 C623.8475531114265 379.5580684349015, 421.1567938875407 380.4061372920945, 0.13500771075487136 382.15720584839585 M826.6196885965765 382.3882453419268 C611.80826945249 380.96103098442404, 396.56256304644046 380.83346529056877, 0.20421635136008265 382.12749650254847 M1.1367615395260349 382.61273366123027 C-0.317942811969929 268.5089041182946, 0.8086833915425965 156.06336474291115, -0.22577563592271654 0.5726735745490297 M-0.1712148393321879 381.61886339595685 C-0.619597380032082 232.0935825965284, 0.37706772944708294 82.50431797461532, -0.2582147003234036 0.22802948898353648" stroke="#000000" stroke-width="1" fill="none"></path></g><g transform="translate(739.4999999999989 105) rotate(0 45 20.5)"><path d="M56.9761504906876 0.020701121984494364 C65.78891092271465 0.9474955422036034, 76.08279386130873 4.903191470602959, 81.47979457023852 8.349220974055626 C86.87679527916832 11.795250477508294, 89.6362260962389 16.3574615022977, 89.35815474426639 20.696878142700502 C89.08008339229387 25.036294783103305, 85.59214022979867 31.20640582619439, 79.81136645840346 34.38572081647244 C74.03059268700824 37.565035806750494, 63.75416579997217 39.048745152444816, 54.67351211589505 39.772768084368806 C45.59285843181793 40.496791016292796, 33.62038354798297 40.34210521490944, 25.327444353940713 38.72985840801638 C17.03450515989846 37.11761160112333, 8.834458091396703 33.95708461505254, 4.915876951641529 30.099287243010494 C0.9972958118863553 26.241489870968454, -0.1412989120471948 19.900728488208742, 1.8159575154096714 15.583074175764144 C3.773213942866538 11.265419863319549, 9.542140393538375 6.789440994831379, 16.659415516382726 4.193361368342922 C23.776690639227077 1.5972817418544643, 37.19063339981567 0.4809391531818455, 44.519608252475784 0.006596416833399843 C51.8485831051359 -0.4677463195150458, 57.683501372786296 1.0769622418853178, 60.633264632343426 1.3473049502522478 C63.58302789190056 1.617647658619178, 62.433962549529284 1.3499505284342355, 62.21818780981856 1.6286526670349808 M58.85849493334899 0.0036521509099962657 C67.33267581144747 0.5699477197222279, 75.15639780775766 4.5093428464111245, 80.47469313354993 8.244341655988107 C85.79298845934221 11.97934046556509, 91.1059657537281 17.997563783324736, 90.76826688810266 22.413645008371894 C90.43056802247722 26.829726233419052, 84.44689183453002 31.558830293007286, 78.4484999397973 34.740829006271056 C72.45010804506458 37.92282771953482, 63.70402131597507 41.03941153247979, 54.7779155197063 41.50563728795451 C45.851809723437526 41.971863043429224, 33.280974142918495 39.84262015906263, 24.891865162184686 37.53818353911935 C16.50275618145088 35.23374691917607, 8.166125888057282 31.32393624498693, 4.443261635303465 27.67901756829483 C0.7203973825496477 24.034098891602735, 0.23586240560814398 19.680602978592518, 2.5546796456617855 15.66867147896677 C4.8734968857154275 11.656739979341022, 11.497084249944944 6.262653465350673, 18.356165075625313 3.6074285705403515 C25.215245901305682 0.9522036757300301, 37.223472441141524 -0.014142689857151503, 43.70916459974399 -0.2626778898951585 C50.19485675834646 -0.5112130899331655, 55.25866177379501 1.723890303739844, 57.27031802724012 2.1162173703123095 C59.28197428068523 2.5085444368847747, 55.81921412268045 1.9559912885964768, 55.77910212041468 2.0912845095396335" stroke="#a61e4d" stroke-width="1" fill="none"></path></g><g transform="translate(739.4999999999989 186.9999999999995) rotate(0 45 20.5)"><path d="M37.86647720032879 1.1829138318600343 C46.51253393984311 0.569462236383503, 59.850106208176186 1.5022288283908511, 67.84537270315677 3.53596590914432 C75.84063919813735 5.569702989897788, 82.28999125110968 9.632042716934622, 85.8380761702123 13.385336316380846 C89.38616108931492 17.138629915827067, 91.63194648485599 22.231078833748224, 89.13388221777251 26.05572750582166 C86.63581795068903 29.880376177895098, 78.29463163112436 33.7220730728444, 70.84969056771143 36.333228348821464 C63.4047495042985 38.944383624798526, 53.445523153603524 41.89821298625879, 44.46423583729492 41.722659161684035 C35.48294852098632 41.54710533710928, 24.058039967498626 38.04106325024388, 16.96196666985981 35.27990540137294 C9.865893372220992 32.518747552502006, 3.9636075018839594 29.27931418562635, 1.8877960514620185 25.155712068458435 C-0.18801539895992248 21.03210995129052, 0.6183422783290458 14.336469297263003, 4.507097967328164 10.538292698365451 C8.395853656327283 6.740116099467899, 19.070988175635417 4.243613396475091, 25.220330185456728 2.366652475073124 C31.36967219527804 0.48969155367115724, 37.888382915538166 -0.2894693768950531, 41.40315002625603 -0.7234728300463509 C44.91791713697389 -1.1574762831976486, 46.30253274258346 -0.6715817873029486, 46.308932849763885 -0.2373682438346627 M51.382125248530656 0.16828702494321846 C60.145243384584674 0.2509112731183336, 70.82309891907951 2.1260017593776954, 77.36427272312739 5.188067601058254 C83.90544652717526 8.250133442738813, 89.60623492573802 14.314906765449166, 90.62916807281789 18.54068207502657 C91.65210121989776 22.766457384603974, 88.6180150482672 27.17084184577235, 83.50187160560662 30.54271945852268 C78.38572816294605 33.91459707127301, 68.94902143366431 37.40832885821311, 59.93230741685447 38.77194775152853 C50.91559340004463 40.13556664484395, 38.242603670134216 39.920700733386404, 29.40158750474759 38.724432818415195 C20.560571339360962 37.52816490344399, 11.836631922597554 34.95912023633132, 6.886210424534703 31.59434026170129 C1.93578892647185 28.22956028707126, -1.4042920181566754 22.89900764932582, -0.3009414836295292 18.535752970634995 C0.8024090508976169 14.17249829194417, 6.73671045704742 8.386452132444562, 13.50631363169758 5.414812189556345 C20.27591680634774 2.443172246668128, 33.894218561231064 1.7788911039012811, 40.31667756427143 0.7059133133056896 C46.739136567311796 -0.3670644772899019, 50.2688204700277 -1.1692091790823582, 52.04106764993979 -1.0230545540172038 C53.81331482985188 -0.8768999289520494, 51.30709871672644 1.0255689199433395, 50.950160643743985 1.5828410636966161" stroke="#a61e4d" stroke-width="1" fill="none"></path></g><g><g transform="translate(742.4999999999989 126) rotate(0 -1.431684092702369 42.38716116514986)"><path d="M-0.9445965103805065 0.98184742256999 C-1.4255792987843354 14.995001714676617, -2.2805660697321097 69.26191462799906, -2.4430651240050794 83.20339915081858 M0.7603515923302622 0.45171337408013645 C0.04383155120226245 14.676141417743636, -3.0564821252940844 70.62799659592099, -3.62371977773495 84.32260895621963" stroke="#a61e4d" stroke-width="1" fill="none"></path></g></g><g><g transform="translate(828.4999999999989 129) rotate(0 -0.0789204342429457 37.449683467824954)"><path d="M0.5145212821662426 -1.14318855330348 C0.5839843206107617 11.207140202075244, 0.3259926013648511 62.088860482722524, 0.34534348770976075 74.6754952378571 M-0.6744937740359456 0.8710335108730942 C-0.7265839292202145 13.34715261102654, -0.5664801518712191 63.62658902437426, -0.4213966448698192 76.04255548895337" stroke="#a61e4d" stroke-width="1" fill="none"></path></g></g><g transform="translate(235.5000000000001 309.9999999999995) rotate(0 139.5 31)"><path d="M0.7612187416235238 -1.3094734908811358 C82.68032266823842 2.2498443210874743, 165.47225694116986 0.651832738173599, 277.9321153223674 -1.2923684028063565 M-0.1223043011093512 -0.15830764949263182 C60.12153501806333 -0.07953471635019949, 120.5143962612213 -0.7799648600044982, 279.6362845707738 0.6596390222300186 M278.3243844024837 -0.6405077092349529 C276.6219667694345 21.58379850573838, 277.0112772485986 37.741198745369914, 278.2126527540386 63.961090195924044 M279.60192721523345 -0.3713934663683176 C278.96106789637355 17.49182162731886, 279.0660256557539 35.84085176922381, 278.4540929738432 62.52194038592279 M278.2724090428711 60.84023003186113 C179.99119864544838 63.269876835544785, 80.30174989688126 63.27513500085479, 0.05189342279103099 62.29984354585755 M278.28988619478633 62.42653733048297 C213.3675895011371 62.70968601482755, 147.16135491614116 62.673546672403106, 0.1093804308998212 62.1671703652702 M-0.039362479001283646 61.93377612903714 C-0.5337832558527589 50.64785833321512, 0.3413746964558959 34.5179349526763, 0.06426079198718071 1.9326900132000446 M-0.7343019898980856 62.50864562951028 C0.6832739594206214 41.20586525872349, 0.27107702519744636 18.72080911584198, 0.37499343790113926 -0.6917590741068125" stroke="#a61e4d" stroke-width="1" fill="none"></path></g><g transform="translate(380.4999999999998 11.5) rotate(0 226 28.5)"><text x="226" y="41" font-family="Virgil, Segoe UI Emoji" font-size="36px" fill="#364fc7" text-anchor="middle" style="white-space: pre;" direction="ltr">Health Authority Backend</text></g><g transform="translate(735.4999999999989 67.5) rotate(0 51 15.5)"><text x="51" y="23" font-family="Virgil, Segoe UI Emoji" font-size="20px" fill="#364fc7" text-anchor="middle" style="white-space: pre;" direction="ltr">Database</text></g><g transform="translate(837.499999999999 116.94927536231887) rotate(0 81 49.5)"><text x="0" y="17.75" font-family="Virgil, Segoe UI Emoji" font-size="16px" fill="#364fc7" text-anchor="start" style="white-space: pre;" direction="ltr">- Hashes of infected</text><text x="0" y="42.5" font-family="Virgil, Segoe UI Emoji" font-size="16px" fill="#364fc7" text-anchor="start" style="white-space: pre;" direction="ltr">person contacts</text><text x="0" y="67.25" font-family="Virgil, Segoe UI Emoji" font-size="16px" fill="#364fc7" text-anchor="start" style="white-space: pre;" direction="ltr">- Keys for uploading</text><text x="0" y="92" font-family="Virgil, Segoe UI Emoji" font-size="16px" fill="#364fc7" text-anchor="start" style="white-space: pre;" direction="ltr">contacts</text></g><g transform="translate(308.5 190.9999999999995) rotate(0 68 33)"><path d="M-1.8668518550693989 1.1941039450466633 C45.45751332715153 2.6375733053684236, 88.52352813705801 0.42232174038887027, 134.38327104970813 -1.1231595389544964 M0.1575272623449564 -0.001519346609711647 C41.227706669643524 0.02272088207304468, 80.27010935880244 -0.27822934709489355, 135.96542345918715 0.9557984229177237 M135.21230871602893 1.3540314324200153 C137.08820094581694 14.94542237482965, 138.5511160087213 30.79986339658499, 135.0674845688045 64.54762076213956 M136.48577248491347 0.723619258031249 C136.33134473469107 20.908838338404898, 136.18017036821692 40.03696475215257, 136.60274499095976 65.10345861874521 M135.86139650270343 67.47058199718595 C106.57018404379487 65.10810182601213, 81.09068957194685 66.84413657695055, 1.0109563581645489 65.87436496093869 M136.80935805477202 66.5226619001478 C98.20958162732421 67.5558865905553, 62.13488492704927 65.90411009795963, -0.3621883448213339 66.80640712939203 M-1.5847496278584003 64.55071364715695 C1.9317619094625116 45.93663472123444, 2.3949287423864005 27.14444376528263, 0.7789940349757671 -1.1789376847445965 M0.5751223508268595 65.73099676333368 C0.555485324151814 48.50221465080976, 0.5069072406366467 29.442780301347376, -0.5665225442498922 -0.6097334865480661" stroke="#087f5b" stroke-width="1" fill="none"></path></g><g transform="translate(556.4999999999993 255.9999999999995) rotate(0 224.50000000000006 61.5)"><path d="M-0.41410239741697297 0.12295028529081341 C135.0624077911646 1.9932209791128177, 272.5448392372657 2.6990088440450686, 449.02086554533514 0.46363807071256624 M0.3807576213334559 0.29481938725647916 C101.77709268378783 -0.041148414129620045, 203.58232738545118 0.44077834576265273, 448.84256209280414 0.30699934662079803 M450.0399723760784 0.5065656788647175 C450.6135751109012 45.13340201135725, 449.9132745365985 90.56210678257048, 447.0226888172329 124.21189664676785 M449.6180889550597 -0.22805031575262547 C448.91671557551257 32.845763641409576, 449.7551690471732 67.4309663772583, 448.7078512255103 122.68650660477579 M448.669509373097 122.4995055625308 C343.40533589828425 121.6587418972886, 236.70312788724098 122.19054644679117, -0.4289938222369193 123.9511300016635 M449.21118730575427 122.7969384625525 C325.9242068627068 122.75709110318607, 204.0226969057433 123.38464402548068, -0.22054819279465668 123.30850880912385 M1.7930391542613506 122.79301534965634 C1.6022108523361385 74.04937891159207, 2.8450331418029964 25.58832380287349, -0.38706331327557564 0.06680487468838692 M-0.6165739353746176 122.35956553183496 C-1.1002369849942624 81.63683720175177, -0.939216527249664 40.8160005800426, 0.12448304332792759 0.9209844823926687" stroke="#087f5b" stroke-width="1" fill="none"></path></g><g transform="translate(323.4999999999999 211.4999999999995) rotate(0 53 12.5)"><text x="53" y="18" font-family="Virgil, Segoe UI Emoji" font-size="16px" fill="#364fc7" text-anchor="middle" style="white-space: pre;" direction="ltr">Create filter</text></g><g transform="translate(598.4999999999989 265.4999999999995) rotate(0 184 15.5)"><text x="184" y="23" font-family="Virgil, Segoe UI Emoji" font-size="20px" fill="#364fc7" text-anchor="middle" style="white-space: pre;" direction="ltr">REST and static content web server</text></g><g transform="translate(305.5 327.4999999999995) rotate(0 65 15.5)"><text x="65" y="23" font-family="Virgil, Segoe UI Emoji" font-size="20px" fill="#364fc7" text-anchor="middle" style="white-space: pre;" direction="ltr">Cuckoo filter</text></g><g><g transform="translate(725.4999999999989 169.9999999999996) rotate(0 -135.2021838898072 25.338570313900703)"><path d="M0.6636816211044787 -1.0244676657021046 C-44.35541406199336 7.707813518494367, -225.12373345419763 42.96243242546916, -270.0786911062896 51.701608293503526 M-0.4470242571551353 1.0520828644651918 C-45.6341664626915 9.500679418565705, -226.25231238660405 41.908786237062884, -271.0680494007189 49.94737789881415" stroke="#364fc7" stroke-width="1" fill="none"></path></g><g transform="translate(725.4999999999989 169.9999999999996) rotate(0 -135.2021838898072 25.338570313900703)"><path d="M-246.8415162862481 34.735485966711096 C-251.90944135848798 41.13594706941199, -260.2522187754073 44.600811778460454, -271.40992055428217 51.48492424664087 M-244.40786175254894 35.673482158615045 C-252.44587497414227 38.7764598879985, -257.53691430341917 43.11760467836565, -271.1278589308728 50.88154784132726" stroke="#364fc7" stroke-width="1" fill="none"></path></g><g transform="translate(725.4999999999989 169.9999999999996) rotate(0 -135.2021838898072 25.338570313900703)"><path d="M-243.21520196407988 54.93374942728307 C-249.2653749989303 55.2343896321974, -258.7068902965743 52.579377458726206, -271.40992055428217 51.48492424664087 M-240.78154743038073 55.87174561918702 C-249.5180140825195 54.05506917981445, -255.49745616946063 53.44788589814857, -271.1278589308728 50.88154784132726" stroke="#364fc7" stroke-width="1" fill="none"></path></g></g><g><g transform="translate(365.4999999999998 264.9999999999995) rotate(0 -0.45233184284064976 21.642273296983916)"><path d="M0.9887167163193225 -0.05538654997944836 C0.8351321009298165 6.99497731650869, -0.7450199735661347 35.60752265577515, -0.9641540579497814 42.91946870610118 M0.048654263047501534 -1.1300684340577574 C-0.25608356423365564 6.063604210537548, -1.7622743286409726 37.24254883827952, -1.8933804020006209 44.41461502802558" stroke="#364fc7" stroke-width="1" fill="none"></path></g><g transform="translate(365.4999999999998 264.9999999999995) rotate(0 -0.45233184284064976 21.642273296983916)"><path d="M-8.608200126455634 24.013606150293146 C-6.581639837081175 31.087995961948977, -3.123720945932816 35.901349301080074, -3.430907378317788 42.449941222043705 M-9.12208969065687 24.050452592441236 C-6.132389605684194 30.279274684010314, -4.395345149785211 34.08721736134666, -2.6829377043712883 43.694072293536735" stroke="#364fc7" stroke-width="1" fill="none"></path></g><g transform="translate(365.4999999999998 264.9999999999995) rotate(0 -0.45233184284064976 21.642273296983916)"><path d="M6.093090553685175 24.543646198733175 C3.7587834734600762 31.582036118055967, 2.858561545343237 36.23826113279632, -3.430907378317788 42.449941222043705 M5.579200989483939 24.580492640881264 C4.7195585339183594 30.53010485883167, 2.611692516078695 34.19942320867948, -2.6829377043712883 43.694072293536735" stroke="#364fc7" stroke-width="1" fill="none"></path></g></g><g><g transform="translate(750.4999999999989 228.9999999999995) rotate(0 -0.5831513111339746 12.736772997537628)"><path d="M0.8282276563346385 0.1771989293396472 C0.5428183091183503 4.1159327852229275, -0.7191058543821176 20.707969787468514, -1.0304818458855152 24.810817260295153 M-0.19609155342914164 -0.7753755780961364 C-0.7018620967461416 3.858061300326759, -1.7227552968853463 21.785730714111903, -1.994530278602615 26.248921573171394" stroke="#364fc7" stroke-width="1" fill="none"></path></g><g transform="translate(750.4999999999989 228.9999999999995) rotate(0 -0.5831513111339746 12.736772997537628)"><path d="M-5.382003795722766 14.228009040639519 C-4.371548287859281 18.47149923749957, -3.1141108930951082 23.90855527863778, -2.8158695357077197 26.06097518398121 M-5.749253286515286 14.643175125127364 C-3.8859364829918555 18.084411458752108, -2.8572827281688737 21.700665444437078, -2.0520076310462163 26.476755277146587" stroke="#364fc7" stroke-width="1" fill="none"></path></g><g transform="translate(750.4999999999989 228.9999999999995) rotate(0 -0.5831513111339746 12.736772997537628)"><path d="M3.1602005956435795 14.736765799691812 C1.117535124369932 18.857673134629202, -0.6731524087442429 24.113188897819803, -2.8158695357077193 26.06097518398121 M2.7929511048510602 15.151931884179657 C2.1644027510489177 18.458361016034846, 0.7062242320564788 21.92650420151329, -2.052007631046216 26.476755277146587" stroke="#364fc7" stroke-width="1" fill="none"></path></g></g><g><g transform="translate(812.4999999999989 247.9999999999995) rotate(0 -0.24476997702811332 -9.370656304089351)"><path d="M0.28895463421940804 -0.670851594954729 C0.42479593232274054 -3.842217515657345, 0.5603515096008777 -15.50561338936289, 0.5226599402725696 -18.482023102790116 M-1.0184829121548682 1.5913473723549396 C-0.9693462213594466 -1.9881179085156573, -0.20908281681127847 -16.629983630555994, -0.15098905471153556 -20.332659980533645" stroke="#364fc7" stroke-width="1" fill="none"></path></g><g transform="translate(812.4999999999989 247.9999999999995) rotate(0 -0.24476997702811332 -9.370656304089351)"><path d="M2.2457424129089016 -10.88130729305191 C2.3387559383313197 -13.729376399943265, 1.4943121880525307 -16.362790612179346, -0.5956768795009704 -19.658650391334668 M3.025386021305774 -10.954686367601212 C1.983245576023892 -13.50844752794828, 1.514312223478818 -15.359950973453182, 0.1530839158594609 -19.926297547966243" stroke="#364fc7" stroke-width="1" fill="none"></path></g><g transform="translate(812.4999999999989 247.9999999999995) rotate(0 -0.24476997702811332 -9.370656304089351)"><path d="M-4.248482483379731 -11.113731503170756 C-2.364379661966245 -13.913374318080212, -1.4187919803676206 -16.48272443517235, -0.5956768795009703 -19.658650391334668 M-3.4688388749828585 -11.187110577720059 C-2.893156595952991 -13.652495155704072, -1.7440844247106655 -15.446091204739053, 0.1530839158594608 -19.926297547966243" stroke="#364fc7" stroke-width="1" fill="none"></path></g></g><g><g transform="translate(520.4999999999993 341.9999999999995) rotate(0 13.268524230956075 -0.6443357196232284)"><path d="M-1.1471750311553477 -0.08592889979481688 C3.190374234070381 0.05465281133850425, 20.606299887845914 0.20188621009389568, 25.326078004390002 0.11134990975260739 M0.45141934814862905 -1.1766455175261945 C5.243160688805704 -1.2803906598469863, 23.255988460012404 -1.161046741384392, 27.68422349306755 -1.4277661364059895" stroke="#364fc7" stroke-width="1" fill="none"></path></g><g transform="translate(520.4999999999993 341.9999999999995) rotate(0 13.268524230956075 -0.6443357196232284)"><path d="M15.466722286407652 2.5586356632723137 C19.724352710944885 3.5349653468261377, 21.85239493619317 0.9723930359287642, 28.331134292658305 -2.6687988420483513 M15.479882117550975 2.9277874172311042 C19.839397389542306 1.200868639189303, 24.678671978390703 0.11523497671666871, 28.004856148477725 -1.7040524791300378" stroke="#364fc7" stroke-width="1" fill="none"></path></g><g transform="translate(520.4999999999993 341.9999999999995) rotate(0 13.268524230956075 -0.6443357196232284)"><path d="M15.271235213487628 -6.3383155453466875 C19.521839284662455 -3.2094404130849585, 21.69713696516926 -3.621336091015823, 28.331134292658305 -2.6687988420483513 M15.284395044630951 -5.9691637913878965 C19.78777674641608 -4.5009538811852945, 24.697280171575095 -2.3903530266609847, 28.004856148477725 -1.7040524791300378" stroke="#364fc7" stroke-width="1" fill="none"></path></g></g><g transform="translate(781.4444444444445 510.8888888888889) rotate(0 257 287)"><path d="M-0.272630076110363 -0.1264039233326912 C178.1394034769386 -0.7388780847638845, 355.00968440547587 -0.8118892446607351, 514.7216116860509 -0.682302637398243 M-0.1581817962229252 -0.393485476821661 C190.44586544148623 -1.7687947600334883, 381.88571819067005 -1.3364674180001022, 514.3922112844884 -0.36908645853400235 M513.239648719132 -0.5166787818074227 C515.0815471328348 147.97665670849383, 514.6034054912179 295.0563493154943, 513.6866202786565 573.2474710270762 M513.8173022650183 0.19763469472527506 C515.5850036297292 134.6103905785829, 515.3079096708746 268.66367151737217, 514.0550877712667 573.9418068148195 M514.7349185422063 574.0529508396983 C391.8465600732714 573.0648753976673, 268.00873413607474 572.1408907270282, -0.16845627278089526 573.6472565934062 M514.1616301678121 573.6498304583132 C364.9119982752949 575.3593452230542, 215.45437306612726 575.2199669376462, 0.03326806053519249 574.2825500942766 M-0.35434990376234055 574.7757954880595 C0.26549130369722856 433.90421185456216, 0.6147391884475948 293.250137681514, -0.27833476513624195 -0.2974478915333748 M-0.3933865644037724 573.6371496655047 C-1.9298586419671773 380.5187752809375, -1.6457206061929464 187.73550602942703, -0.3203425742685795 -0.05640251860022545" stroke="#000000" stroke-width="1" fill="none"></path></g><g transform="translate(929.9444444444445 519.8888888888889) rotate(0 131.5 22)"><text x="131.5" y="32" font-family="Virgil, Segoe UI Emoji" font-size="28px" fill="#364fc7" text-anchor="middle" style="white-space: pre;" direction="ltr">Epidemic Dosimeter</text></g><g transform="translate(811.4444444444445 915.8888888888889) rotate(0 118 31)"><path d="M0.4451571764068737 -1.5899504637966049 C50.368693673632734 -1.0754604840628401, 97.5555212859114 -0.2127569845133085, 236.39951044224574 -0.9242743561148061 M-0.024210201796597983 0.5864754764185495 C72.43550694817391 -2.0331503089886334, 146.21541258215854 -1.6607846956793693, 235.33564953691445 -0.5170860026233843 M235.74307830259204 -1.8672555796802044 C237.98773425910622 18.704548801854255, 235.33882528636605 41.78525287210942, 235.50496954843402 62.38507245853543 M235.38375400938094 -0.8102131728082895 C236.71246529269965 17.161498741805556, 237.492996401079 36.259833810105924, 236.98724918998778 61.50564990006387 M236.7161001051618 62.455657864072336 C184.7659306325139 62.41511848437162, 132.30345313243836 63.5473808863534, -1.6513367987472873 63.39846766967589 M236.6771810345759 61.96433281426096 C182.4694227700421 62.41060075308654, 128.85846642873136 62.17226930753808, 0.13285040100760978 62.49683423833335 M-0.4552709348499775 61.61670385673642 C1.5142114901170136 44.05494240485132, -0.4962621188536286 26.732793532311916, 0.22973890230059624 1.726552952080965 M0.4470647517591715 62.262632166966796 C-0.16375138852745297 47.35987548306584, 0.2791904559358954 34.84924488253891, 0.7213858906179667 0.01832601986825466" stroke="#087f5b" stroke-width="1" fill="none"></path></g><g transform="translate(810.4444444444445 996.8888888888889) rotate(0 118 31)"><path d="M-0.7438245708457811 -1.512374496707524 C49.250303146253124 -0.29220910332002736, 100.09563729168607 0.32415333141016855, 237.46461352265422 -0.1682735584837332 M0.6529369427464775 0.5948409152189797 C91.21669149822236 1.1298385231236403, 181.94977829982173 0.23458582255351001, 235.62605915336914 0.4395002820388622 M234.52917106077075 1.6162744648754597 C235.3083806404844 12.882554211094977, 238.06114403102546 24.042499271035197, 235.80857939645648 61.93604635074735 M236.34155296720564 -0.8967200163751841 C236.78861193347723 21.680366997420787, 236.75063107896597 43.67606935240328, 236.3332622591406 62.90251097641885 M235.004495919872 60.98054174185477 C184.75274581089602 63.00014086363608, 136.63163763777362 63.06906090861102, 0.6596727451865806 63.510649301437816 M236.05792307899694 62.58744866060534 C148.47158056210716 62.966886428195245, 61.64363560554983 62.840651702361136, 0.7887471040589861 61.4875624313208 M-1.4046518094837666 62.052504409104586 C-1.9090455174818635 48.06236866675317, -0.8576905131712556 30.821611128747463, 1.7783438675105572 -1.563171397894621 M-0.8006416615098715 62.22635725699365 C0.7104667320474982 43.33892859891057, 0.8485684886202216 24.573118211701512, -0.5970907863229513 -0.16934659518301487" stroke="#087f5b" stroke-width="1" fill="none"></path></g><g transform="translate(808.4444444444445 673.8888888888889) rotate(0 131 31)"><path d="M-0.7905451191057101 1.4750452482682839 C72.38532477598174 2.8359581876519604, 145.589161773033 1.8302276932362478, 262.97733619688296 0.4248317380191937 M-0.014160524541705102 -0.03208095264696553 C54.80197759074208 -0.1583672173045152, 109.26438185627687 -0.9912668885823005, 261.3517983814719 0.7870792302237801 M261.53133613988757 1.126808512955904 C262.71092415425926 17.516573275998237, 261.07384837243706 37.68061858713627, 263.19591445848346 61.986825454980135 M262.9581977073103 -0.8384704235941172 C262.1195450251177 18.152316097915175, 261.72210143256933 37.91242596842349, 261.40667503513396 61.61062095128 M263.57494943211526 62.160840836639274 C177.52271181092087 59.90072494093672, 90.68294332948327 62.27688350722352, 1.1785605667288408 63.18416776787273 M262.3108496292614 61.65456767728177 C167.79430018257767 60.472684996458796, 72.00767568677969 59.98384176145573, -0.7895397750872307 62.61279756428917 M1.2576237432658672 60.75571118667722 C0.7087196731194854 43.50246182642877, -0.831424651183188 26.176080904901028, -0.2791910655796528 -0.8319265954196453 M-0.6889789160341024 62.298744117841125 C0.5763746037706733 49.92139524891972, -0.8215000495687127 36.492935158684844, -0.3082010205835104 0.8285354133695364" stroke="#087f5b" stroke-width="1" fill="none"></path></g><g transform="translate(806.4444444444445 753.8888888888889) rotate(0 110 31)"><path d="M-1.7178441941403524 1.3332966510537043 C57.88589285655269 2.4666050074858155, 115.63447302061091 2.9247795699083294, 218.92165203139956 0.8100396886630431 M-0.12097879334590957 -0.3604896004006453 C48.9080707301804 1.8422715351547703, 100.05227945001485 1.1040851754542098, 220.2589030047976 0.5869845847798996 M219.38359795883298 1.6570708267390728 C220.0191288682446 22.337130753323436, 217.85933155741543 44.724416479468346, 221.642853487283 60.18068463727832 M220.47510377131402 -0.26585490070283413 C220.7547568286583 17.101413507759574, 220.80141516577453 35.41319523714483, 219.613919114694 61.48958539403975 M218.6862536178213 63.25067385190181 C160.19019991102562 60.60631406528176, 98.65095895382554 60.61615395007671, 0.8828643730700836 60.955864466003455 M220.63242661227682 61.674813213951154 C169.53567967501488 61.14526954166201, 120.01572269797708 61.00463904872933, 0.7241442667817064 62.19080981974785 M1.1934240944683552 61.77446408197284 C0.8333847397938371 42.58102527298033, 0.9717975730076432 25.64925562292337, -1.5355024449527264 -0.2385203130543232 M0.3386290427297354 61.96252160705626 C0.5431810239329934 48.739640253037216, -0.38952694144099953 34.39694116525352, 0.2932517286390066 -0.44580686651170254" stroke="#087f5b" stroke-width="1" fill="none"></path></g><g transform="translate(1133.4444444444443 728.3888888888889) rotate(0 45 20.5)"><path d="M31.496123726461118 1.368422820473981 C39.81275703670275 -0.1167199488818722, 52.12288788419736 -0.8036812154754609, 60.783942748670235 0.5846086102150174 C69.44499761314312 1.9728984359054957, 78.75112580381459 6.110618848771432, 83.46245291329838 9.698161774616851 C88.17378002278217 13.28570470046227, 90.11145322352988 17.948595315546907, 89.05190540557294 22.109866165287528 C87.992357587616 26.27113701502815, 83.76031037820506 31.643624931638477, 77.1051660055567 34.665786873060576 C70.45002163290833 37.687948814482674, 58.47698443321822 39.665199994123945, 49.12103916968276 40.24283781382012 C39.7650939061473 40.82047563351629, 28.68143219922982 40.29243188364346, 20.969494424343935 38.131613791237605 C13.25755664945805 35.97079569883175, 5.868598836161892 31.311125455638233, 2.8494125203674443 27.277929259385004 C-0.1697737954270031 23.244733063131775, -0.0689886123125274 17.822377906098367, 2.8543765295772516 13.932436613718242 C5.77774167146703 10.042495321338116, 14.308611800613775 6.16102701278324, 20.38960337170612 3.93828150510425 C26.470594942798463 1.7155359974252593, 34.948549148509606 1.039733515634314, 39.34032595613131 0.5959635676442971 C43.73210276375301 0.15219361965428035, 46.77384947624076 1.0067184851240871, 46.740264217436334 1.2756618171641492 M32.36012727947774 2.3984637448309876 C40.858932423846 0.9826348329310166, 52.8163227615824 0.9126798844996331, 61.22879626560808 2.0595135379385816 C69.64126976963377 3.20634719137753, 78.11773454681617 5.957069612605448, 82.83496830363184 9.279465665464679 C87.55220206044751 12.60186171832391, 90.38314679865768 17.713425447219105, 89.53219880650212 21.993889855093972 C88.68125081434657 26.27435426296884, 84.44051322486438 31.896992804718536, 77.72928035069855 34.96225211271387 C71.01804747653271 38.0275114207092, 58.670640434474 39.992767956428, 49.26480156150716 40.38544570306598 C39.85896268854032 40.77812344970397, 28.886181353789624 39.39267550724103, 21.294247112897494 37.31831859254178 C13.702312872005365 35.24396167784253, 6.72997830939393 31.62104422886408, 3.7131961161543927 27.939304214870486 C0.6964139229148549 24.257564200876892, 0.4665549372277522 19.504219358618826, 3.193553953460267 15.227878508580208 C5.920552969692782 10.95153765854159, 15.313403656605892 4.664108049418433, 20.07519021354948 2.2812591146387717 C24.836976770493067 -0.10158982014088869, 29.983137028576678 1.0360284861201716, 31.764273295121797 0.9307848999022461 C33.545409561666915 0.8255413136843206, 30.673032462058696 1.1572169236610197, 30.762007812820194 1.6497975973312187" stroke="#a61e4d" stroke-width="1" fill="none"></path></g><g transform="translate(1133.4444444444443 810.3888888888889) rotate(0 45 20.5)"><path d="M28.264346258020808 1.2540395706778575 C36.13639898281822 -0.521670802843123, 47.61671563756033 -0.48258595980282126, 56.41826715597695 0.6132610350814502 C65.21981867439357 1.7091080299657218, 75.64556943049033 4.304805389520753, 81.07365536852049 7.829121539983486 C86.50174130655066 11.353437690446219, 89.3445644435835 17.590807438434542, 88.98678278415795 21.759157937857847 C88.62900112473241 25.92750843728115, 84.85144679466634 29.75935096314134, 78.92696541196727 32.83922453652332 C73.0024840292682 35.91909810990529, 62.41158349024825 39.21880894516751, 53.43989448796352 40.23839937814971 C44.468205485678794 41.25798981113191, 33.327090660100936 40.681656251574346, 25.096831398258914 38.95676713441653 C16.866572136416888 37.231878017258715, 8.086257115561796 33.661976832209675, 4.058338916911367 29.889064675202835 C0.030420718260937285 26.116152518195996, -1.258477193738131 20.470436931727416, 0.929322206356332 16.319294192375505 C3.117121606450795 12.168151453023594, 12.086891270608472 7.46223418828308, 17.185135317478146 4.982208239091362 C22.28337936434782 2.5021822898996433, 28.45661576574297 2.1733761720225955, 31.51878648757437 1.4391384972251942 C34.580957209405774 0.7049008224277928, 35.39626336509199 0.4245640301029733, 35.55815964846655 0.5767821903069539 M25.379615316336853 2.4804414106269483 C32.902750792498544 0.12217634860296167, 44.90182275346622 -1.206520112347746, 53.656497375174986 -0.48996439096242383 C62.41117199688375 0.22659133042289847, 72.0525085067497 3.2891662394212333, 77.90766304658945 6.779775738938882 C83.7628175864292 10.270385238456532, 88.13209996945848 16.337253736951997, 88.78742461421345 20.45369260614347 C89.44274925896842 24.570131475334943, 87.00755432423196 28.199554484741817, 81.8396109151193 31.478408954087712 C76.67166750600663 34.757263423433606, 66.7084579544407 38.60005321145727, 57.779764159537415 40.12681942221883 C48.851070364634126 41.65358563298039, 36.7662326949337 42.001546768940145, 28.267448145699582 40.639006218657045 C19.768663596465466 39.276465668373945, 11.249681755421147 35.74202275060611, 6.7870568641327225 31.951576120520237 C2.3244319728442973 28.16112949043436, 0.5715345168904555 22.237664687515327, 1.491698797969029 17.89632643814178 C2.4118630790476026 13.554988188768236, 8.571336271697652 8.693781388077905, 12.308042550604164 5.90354662427897 C16.044748829510674 3.113311860480035, 21.853055873607634 1.8068264334202344, 23.9119364714081 1.1549178553481703 C25.970817069208568 0.503009277276106, 24.143431323261865 1.3176799995636608, 24.661326137406967 1.9920951558465845" stroke="#a61e4d" stroke-width="1" fill="none"></path></g><g><g transform="translate(1136.4444444444443 749.3888888888889) rotate(0 -0.7644473409699231 42.134213158269404)"><path d="M-0.7214464254677295 -0.9404037527740001 C-1.1828501371045907 12.974365157634022, -2.5062911259631315 69.68772530034184, -2.629550153762102 83.78452774956823 M1.1006554718222468 1.1802803316805512 C1.023993522763873 15.254670668253675, 0.2592871639536073 71.27735787124374, -0.24810944811440994 85.20883006931282" stroke="#a61e4d" stroke-width="1" fill="none"></path></g></g><g><g transform="translate(1222.4444444444443 752.3888888888889) rotate(0 -0.25494754892781657 37.45472462698814)"><path d="M-0.9404037527740001 -0.6295501537621021 C-1.0256348423659802 12.080524151772261, -0.31227469965815546 63.087972801178694, -0.2154722504317761 75.53899940773844 M0.7667455476801841 1.6543320701736959 C0.4787468472402541 14.069063134314492, -0.9298377859313041 61.49023531001992, -1.2766406455356627 73.69939934802241" stroke="#a61e4d" stroke-width="1" fill="none"></path></g></g><g transform="translate(811.4444444444445 837.8888888888889) rotate(0 132.5 31)"><path d="M-0.8023985101547836 0.3920123184347748 C104.41205871360826 0.11311447121053186, 208.31726887481028 -0.520480146009393, 265.05192595463365 -1.3724198789281248 M0.5303903345818817 -0.4903033979854881 C61.068702185735674 0.7808347928688062, 121.05508004326764 0.9908454007493984, 265.2567603608699 0.2887875516328513 M263.91147692129016 -0.09753240272402763 C265.61270969484 12.34921082444489, 263.761812501885 29.78263694345951, 265.4814660064876 62.84559916332364 M265.7093161288649 -0.6011435631662607 C265.7505058853701 25.484539036452773, 265.22083725620064 48.39350006319583, 264.61268084682524 61.717157101258636 M265.48490321236034 61.78798784512621 C162.0832444140886 65.23031819486673, 60.149041908724605 63.92578236023957, -0.3313760319576859 63.44701737054163 M264.77142550948764 62.247584478774996 C210.70527348757466 63.10492551825622, 155.56004482555548 62.62361403269199, -0.07387992510077357 61.252663460558864 M0.8931661359965801 60.02255069091916 C-0.8980183744803071 44.29084154330194, 0.3939143275842071 24.667153178155417, -0.6005425937473774 -0.7915427796542645 M-0.8617038782685995 62.69209209643304 C0.2789661994203925 45.2388901181519, -0.04752020929008721 28.55415699668228, 0.08480125106871128 -0.5588096622377634" stroke="#a61e4d" stroke-width="1" fill="none"></path></g><g transform="translate(864.9444444444445 853.3888888888889) rotate(0 65 15.5)"><text x="65" y="23" font-family="Virgil, Segoe UI Emoji" font-size="20px" fill="#364fc7" text-anchor="middle" style="white-space: pre;" direction="ltr">Cuckoo filter</text></g><g transform="translate(1137.4444444444443 682.3888888888889) rotate(0 51 15.5)"><text x="51" y="23" font-family="Virgil, Segoe UI Emoji" font-size="20px" fill="#364fc7" text-anchor="middle" style="white-space: pre;" direction="ltr">Database</text></g><g transform="translate(835.4444444444445 932.3888888888889) rotate(0 95 15.5)"><text x="95" y="23" font-family="Virgil, Segoe UI Emoji" font-size="20px" fill="#364fc7" text-anchor="middle" style="white-space: pre;" direction="ltr">Beacon transmitter</text></g><g transform="translate(851.9444444444445 1013.3888888888889) rotate(0 76.5 15.5)"><text x="76.5" y="23" font-family="Virgil, Segoe UI Emoji" font-size="20px" fill="#364fc7" text-anchor="middle" style="white-space: pre;" direction="ltr">Beacon receiver</text></g><g transform="translate(818.9444444444445 770.3888888888889) rotate(0 96.5 15.5)"><text x="96.5" y="23" font-family="Virgil, Segoe UI Emoji" font-size="20px" fill="#364fc7" text-anchor="middle" style="white-space: pre;" direction="ltr">Check infection risk</text></g><g transform="translate(821.9444444444445 685.3888888888889) rotate(0 101.5 15.5)"><text x="101.5" y="23" font-family="Virgil, Segoe UI Emoji" font-size="20px" fill="#364fc7" text-anchor="middle" style="white-space: pre;" direction="ltr">Downloaded infected</text></g><g transform="translate(1113.4444444444443 871.8888888888889) rotate(0 83 37)"><text x="0" y="17.666666666666668" font-family="Virgil, Segoe UI Emoji" font-size="16px" fill="#364fc7" text-anchor="start" style="white-space: pre;" direction="ltr">- Seeds of sent</text><text x="0" y="42.333333333333336" font-family="Virgil, Segoe UI Emoji" font-size="16px" fill="#364fc7" text-anchor="start" style="white-space: pre;" direction="ltr">identifiers</text><text x="0" y="67" font-family="Virgil, Segoe UI Emoji" font-size="16px" fill="#364fc7" text-anchor="start" style="white-space: pre;" direction="ltr">- Received identifiers</text></g><g transform="translate(810.4444444444445 590.8888888888889) rotate(0 118 31)"><path d="M-1.0272284427147254 -0.28234388251146225 C58.46144852934329 0.5166488932009449, 120.18320020468653 -1.2597877431885487, 236.94061376714725 -1.0079212342092407 M-0.1586582657232709 0.2460208719892807 C85.17819981376155 -2.378057170492537, 169.33640978197243 -1.6647440523363188, 235.6780146624142 0.23584619576945973 M236.79336996003985 0.7613410837948322 C234.15030666086824 15.917474748566747, 234.3299308607355 30.124866500496864, 234.3338294737041 62.282525170594454 M235.27604191936553 -0.18051030673086643 C236.84083055544644 24.389517168700696, 235.49862950135022 49.09721516110003, 235.3961062375456 61.44419256411493 M235.77736587757767 63.47415975084149 C150.91999322516904 62.07849200743294, 66.79929506794018 62.89978085736242, -0.4836850980309351 61.820516148725616 M235.19369842217054 61.82938779456528 C146.97379737074783 61.745563516441194, 59.28974100507264 61.41086650957758, 0.02305727104623839 61.19837147297345 M-0.2703891284763813 62.04637931659818 C-0.6288181698694825 41.14212894402444, -0.2504558718577027 20.32453704923391, -1.375902820378542 -0.2050424925982952 M-0.8151616510003805 61.33194456063211 C-0.02663514588028193 49.105359620600936, -0.8830612060800195 34.942104377225036, -0.42917860113084316 -0.8802551869302988" stroke="#087f5b" stroke-width="1" fill="none"></path></g><g transform="translate(830.4444444444445 608.6084010840109) rotate(0 90 15.5)"><text x="90" y="23" font-family="Virgil, Segoe UI Emoji" font-size="20px" fill="#364fc7" text-anchor="middle" style="white-space: pre;" direction="ltr">Upload used seeds</text></g><g><g transform="translate(839.0555555555561 587.888888888889) rotate(0 -1.9126525327175727 -102.01204817370979)"><path d="M0.053872746974229724 -1.1086308069527149 C-0.32685742369957715 -35.27358829056224, -2.4938799883757006 -170.97536332483094, -3.184349081168648 -204.94783042147756 M-1.376982790203765 0.9237340740580113 C-1.794784255960141 -33.07970834024561, -3.2626191845588606 -169.51510228214477, -3.8791778124093526 -203.645516141532" stroke="#364fc7" stroke-width="1" fill="none"></path></g><g transform="translate(839.0555555555561 587.888888888889) rotate(0 -1.9126525327175727 -102.01204817370979)"><path d="M4.924174416672191 -174.796070910536 C3.6191932693677007 -182.60927450858202, 1.230002504142492 -187.17083965789732, -1.954544439834308 -203.66798857155257 M7.3216757530828325 -175.00906103245194 C3.978919173374619 -183.7671805980785, 1.5922725113182024 -190.272856172169, -3.854017941203665 -203.15337317178958" stroke="#364fc7" stroke-width="1" fill="none"></path></g><g transform="translate(839.0555555555561 587.888888888889) rotate(0 -1.9126525327175727 -102.01204817370979)"><path d="M-15.595055647190303 -174.5111148224777 C-12.283254941412903 -182.397646192941, -10.055564322003676 -187.0233272205958, -1.954544439834308 -203.66798857155257 M-13.197554310779662 -174.72410494439364 C-11.171251292366415 -183.53513653679727, -8.188702351503679 -190.11537557990033, -3.854017941203665 -203.15337317178958" stroke="#364fc7" stroke-width="1" fill="none"></path></g></g><g><g transform="translate(712.111111111111 390.33333333333354) rotate(0 49.77298323454124 141.90513088551347)"><path d="M-0.4715804390609264 0.3406260900199414 C16.088779161677316 47.65520962203541, 83.39661372952439 236.1228193533917, 100.01754690814349 283.38458077237004 M1.4817011010926215 -0.5261491580586881 C17.823367092295168 46.9392084764658, 82.34191151301651 236.76212630214474, 99.04954690462495 284.3364109290856" stroke="#364fc7" stroke-width="1" fill="none"></path></g><g transform="translate(712.111111111111 390.33333333333354) rotate(0 49.77298323454124 141.90513088551347)"><path d="M80.72845782423335 260.96612722792196 C84.9023023618031 268.03281716799944, 92.47825826476587 279.2582598416215, 97.25069242319609 283.83173787650645 M79.4975068596186 261.73211430937516 C84.03725830142156 265.772839889572, 89.76321163051267 272.10300326296726, 98.25340626923884 283.8318002062011" stroke="#364fc7" stroke-width="1" fill="none"></path></g><g transform="translate(712.111111111111 390.33333333333354) rotate(0 49.77298323454124 141.90513088551347)"><path d="M100.12900701893946 254.27742830140213 C97.3950784018023 263.63979540122546, 98.09129351065421 277.2371562304872, 97.25069242319609 283.83173787650645 M98.89805605432471 255.04341538285533 C98.69278723433497 260.8336247346032, 99.63933868452659 268.81157549257017, 98.25340626923884 283.8318002062011" stroke="#364fc7" stroke-width="1" fill="none"></path></g></g><g transform="translate(1121.4444444444443 991.8888888888889) rotate(0 11 10.5)"><path d="M0.9329424573712819 6.1110464787337815 C0.9329424573712819 6.1110464787337815, 0.9329424573712819 6.1110464787337815, 0.9329424573712819 6.1110464787337815 M0.9329424573712819 6.1110464787337815 C0.9329424573712819 6.1110464787337815, 0.9329424573712819 6.1110464787337815, 0.9329424573712819 6.1110464787337815 M0.6523064043931281 13.688369438551527 C2.5410083577352682 12.378608462389227, 3.5358506111411074 8.549105492062042, 8.949069967287713 3.0210401700562026 M0.5502073414250828 13.564500908028496 C2.905796601687937 9.78658503829134, 5.5567030435249665 6.808268042547177, 7.898748645632649 2.9605225584222166 M2.839742732098994 15.48709049164745 C6.450965337093488 12.494271620023984, 11.779190837105787 8.021882275898314, 14.457513570872486 -0.07880867410223313 M2.3228747200730417 15.751281986902086 C7.647493061499711 11.460693896063653, 11.62256373287417 6.156006338612988, 16.99940304280573 1.4678910155989664 M4.056539162480714 21.12732781094779 C6.829373048567085 14.752585028754279, 11.365110463641951 13.737282990672288, 18.658757480502253 3.8256994276688108 M5.267950443038227 19.161251602669253 C7.80305092115929 16.28356194003708, 10.661775281896531 14.406813928498, 19.35682655935002 4.318204488177658 M9.789301044683883 20.215498079319236 C11.778561637798123 17.360577695297618, 14.887173425562551 10.869586763848005, 22.005057585353804 7.3577090990735305 M9.741063324365744 20.932500602450904 C14.864613892569128 14.54887680463887, 19.24049006188955 10.562436564438, 21.122469773816714 6.361458392348708 M15.376478501147163 20.377951438724185 C17.559681602310377 16.747081160558984, 19.282378946581392 13.738106403544277, 24.1775023142599 10.877062469700073 M13.57952093101902 22.03908378314146 C16.816960349276 18.53602759205188, 19.302358958126945 14.715385883653301, 23.607759539482785 10.42358120361129" stroke="#fa5252" stroke-width="0.5" fill="none"></path><path d="M5.634167555886238 0.750828326261626 C7.606016172100994 -0.4877936898076858, 11.673679171552227 -1.303000591954445, 13.940214448763463 -0.657389932035958 C16.2067497259747 -0.011779272117471096, 17.83608675407314 2.8402215173147187, 19.23337921915366 4.624492285772547 C20.630671684234184 6.408763054230375, 22.226208789258557 7.97447520623572, 22.32396923924659 10.04823467871101 C22.421729689234624 12.1219941511863, 21.297044134018414 15.272653006552613, 19.819941919081863 17.06704912062429 C18.342839704145312 18.861445234695967, 16.04329121501072 20.366556398723937, 13.461355949627276 20.81461136314107 C10.879420684243831 21.2626663275582, 6.537659218770275 20.78752308378958, 4.3283303267812 19.75537890712708 C2.119001434792124 18.723234730464583, 0.7968114340776643 16.86643181527346, 0.20538259769282163 14.62174630316608 C-0.38604623869202104 12.3770607910587, -0.21595927505880963 8.662722330124009, 0.7797573084721439 6.287265834482795 C1.7754738920030975 3.9118093388415827, 4.936827859346975 1.380835359207672, 6.179682098878542 0.369007329318805 C7.42253633841011 -0.6428207005700621, 8.192634488372683 0.06591027042032108, 8.236882745661548 0.21629765514959232 M9.79529323667376 -0.8617561948820924 C11.906279825068584 -0.8890072048058535, 14.79101681039935 1.0287915871553543, 16.91173166440708 2.6707050573440547 C19.032446518414808 4.312618527532755, 21.63937266935537 6.739639843841546, 22.51958236072013 8.98972462625011 C23.399792052084887 11.239809408658674, 23.176417757461536 14.241345088567105, 22.19298981259562 16.17121375179544 C21.209561867729704 18.10108241502378, 18.854807458118913 19.99699754334158, 16.619014691524626 20.568936605620134 C14.38322192493034 21.14087566789869, 11.032747453210227 20.177927252878714, 8.778233213029894 19.60284812546679 C6.523718972849561 19.027768998054864, 4.377215204023266 18.755013206270043, 3.0919292504426235 17.11846184114858 C1.8066432968619803 15.481910476027117, 1.04832451505376 12.230142674391018, 1.0665174915460351 9.783539934738014 C1.0847104680383104 7.33693719508501, 1.912033623689144 4.267918365937845, 3.2010871093962754 2.438845403230559 C4.490140595103407 0.6097724405232725, 7.730395635518863 -0.7529715867638451, 8.800838405788824 -1.1908978415057039 C9.871281176058785 -1.6288240962475626, 9.352789117683727 -0.7215453504623935, 9.62374373101604 -0.18871212522059366" stroke="#c92a2a" stroke-width="1" fill="none"></path></g><g transform="translate(1108.4444444444443 591.8888888888889) rotate(0 14 16)"><path d="M0 0 C0 0, 0 0, 0 0 M0 0 C0 0, 0 0, 0 0 M-0.32349197488742565 7.099018496324413 C1.0704540839090813 4.344204756551028, 3.427934327364491 3.118414925094731, 5.481232116701549 0.6948597397503667 M-0.5215425043972084 6.201908529599302 C1.7379718580167183 3.9094541106077596, 3.6598180369730438 1.9484983251047603, 4.852687540980524 0.2196451101300531 M1.370624361289631 11.988722405254423 C1.1917186065309349 10.219711171088635, 6.724392247485628 5.991999220734377, 10.225540684116018 -1.627026138167107 M-0.49944353465925584 12.341317056536257 C3.006416764966268 7.791781999331109, 7.002633099828796 4.259415903443328, 10.37728346283449 -0.05135461882802228 M-1.522855735435174 18.391111689527207 C7.516883578962605 11.555044566528597, 13.000044552760105 3.1054275797053936, 15.013848263307889 0.5074834718299082 M0.033610171587183046 18.556909565721327 C4.6878472319983935 14.563683457958778, 6.885078876774555 8.419354251275669, 16.3614153279955 0.9172630074364116 M-0.6867310514488008 24.76577270188844 C5.756728346177657 16.426894452910766, 9.800107252662096 11.510401365914351, 22.084723713153863 1.4955794451921705 M1.168935092370889 23.626201022132395 C5.87699069770644 18.127391113707617, 11.990382229229501 11.003248956063095, 21.90371505943861 0.026855956220579458 M-0.4607860324392661 30.537923598427525 C9.289831106892857 18.402296673094856, 20.409552473311336 9.111537817701397, 25.418344302710505 -1.165587626955217 M-0.4059581802646264 31.133175920460573 C6.351701326138419 23.206477245463937, 13.961775105196661 13.258104346365652, 26.452654507618757 0.02231349926560533 M3.6099570837334696 35.0386307358431 C12.5560141350974 22.82046749788102, 19.82552262968396 10.952847573662293, 31.1388023701748 1.9653373434230161 M3.2723920025394264 34.43459641818575 C10.56833482805586 24.587178861384878, 19.633263855958365 14.515923908037376, 30.263856772451675 1.4663896503880096 M9.086899664256908 32.67328962194767 C13.958479965890024 28.8101252360141, 17.988060159187434 19.7824361266303, 31.319790945762737 8.26490985480769 M6.475042769689299 33.729131948901674 C11.419005597783208 29.789023082977423, 17.314089438701536 23.726993906054332, 29.4312175208721 6.937116958849863 M11.824984739347025 33.53720575522203 C17.06952586060278 28.02818185200138, 25.676688088327353 19.996444904658915, 29.764135012623832 14.377499594120211 M12.155264788119718 34.485440061870406 C18.489002340469177 28.571396483098443, 22.59725204783411 22.174737783673542, 30.8539362477483 14.17292028735382 M16.547572386407424 34.5048714470669 C22.905864521437547 30.884580195769203, 27.076488285466056 26.514280760088802, 31.898039235278898 21.06827168291838 M17.652750383925756 34.35198965441354 C23.53510548762955 28.040370983216658, 27.23412734746706 23.502226073666293, 31.347252765867793 20.754606739472905 M22.96960669751054 34.48235916363465 C24.7763109125281 31.517638657065774, 26.821597821183648 28.200053104591106, 30.951729081894218 25.710995938254005 M23.632361761245487 33.33204071334021 C25.93552899814519 31.32986092601626, 28.231132029655218 28.654598052311634, 29.908686801182984 26.017063726296133" stroke="#ced4da" stroke-width="0.5" fill="none"></path><path d="M1.0870182029902935 -0.544323455542326 C7.68057885915041 -0.4428486753255129, 11.559978596121073 0.59193790666759, 28.30687529966235 1.177590001374483 M0.6564509216696024 -0.4575600866228342 C6.742797515913845 -0.6453899176418781, 16.05856954045594 -1.0557952554523946, 28.13103031553328 0.9643611069768667 M27.364123415201902 1.6013752110302448 C28.199729586690665 10.060703820735217, 26.281869197934867 24.781861806660892, 28.912910412997007 31.098545778542757 M28.647137397900224 -0.030665958300232887 C27.889543294683097 13.01172270141542, 28.572372376695274 24.499582171067598, 28.410651499405503 32.55852780304849 M26.792454671114683 30.579429376870394 C17.28782424032688 30.753460792675614, 7.779726249724625 31.642365721836686, 0.804815124720335 33.23088537529111 M27.012436682358384 31.331094121560454 C18.74921089671552 31.52460891008377, 10.32295448668301 32.16743004322052, 0.9321340266615152 31.041600978001952 M-1.6603366620838642 33.88898454979062 C-1.0116361071169377 26.892675072699785, -0.4180142571032048 18.82640786245465, 0.4307095520198345 -1.2192144505679607 M-0.9297190960496664 31.529514586552978 C-0.5481090178340673 23.503762989863752, 1.0637323627620936 14.22023513279855, 0.30442565120756626 0.9306094404309988" stroke="#000000" stroke-width="1" fill="none"></path></g><g transform="translate(1147.4444444444443 582.3888888888889) rotate(0 52 24.5)"><text x="0" y="18.5" font-family="Virgil, Segoe UI Emoji" font-size="16px" fill="#364fc7" text-anchor="start" style="white-space: pre;" direction="ltr">Authorization</text><text x="0" y="43" font-family="Virgil, Segoe UI Emoji" font-size="16px" fill="#364fc7" text-anchor="start" style="white-space: pre;" direction="ltr">switch</text></g><g transform="translate(1151.9444444444443 977.3888888888889) rotate(0 68.5 24.5)"><text x="0" y="18.5" font-family="Virgil, Segoe UI Emoji" font-size="16px" fill="#364fc7" text-anchor="start" style="white-space: pre;" direction="ltr">"possibly infected"</text><text x="0" y="43" font-family="Virgil, Segoe UI Emoji" font-size="16px" fill="#364fc7" text-anchor="start" style="white-space: pre;" direction="ltr">LED</text></g><g><g transform="translate(1092.4444444444443 589.8888888888889) rotate(0 12.153349296003569 10.271620079427919)"><path d="M-1.0531371556222437 0.8163609586656091 C3.6019230005641782 4.325160233428081, 21.276710355033476 15.718881154308717, 25.359835747629404 18.431373818963767 M3.570635603517294 -1.2087826167047027 C8.027313601424297 2.968187685559193, 18.554181800136963 18.35634107803305, 22.774309047311544 21.75202277556062" stroke="#000000" stroke-width="4" fill="none"></path></g></g><g><g transform="translate(1027.4444444444443 819.8888888888889) rotate(0 48.17547677233813 86.46454841925294)"><path d="M-0.6962075762450695 0.5640870742499828 C15.33579918816686 29.429278669009605, 80.85035714581609 144.5231190217038, 97.04716112092137 173.1144679956138 M1.1391447168868036 -0.18537115710787466 C17.02993374380283 28.378413773101446, 80.8431757784169 142.63133329632072, 96.64887524577789 171.57698894453236" stroke="#364fc7" stroke-width="1" fill="none"></path></g><g transform="translate(1027.4444444444443 819.8888888888889) rotate(0 48.17547677233813 86.46454841925294)"><path d="M74.96518289795259 153.62043070979067 C84.26922161531013 160.12861444161697, 90.99807005944307 167.77721970590844, 96.37873244094662 171.5136569344718 M73.91811124919096 152.42487333714612 C78.68394398391993 157.5031955623773, 85.67148644291937 161.93906838913128, 95.84180532391183 171.50479054798373" stroke="#364fc7" stroke-width="1" fill="none"></path></g><g transform="translate(1027.4444444444443 819.8888888888889) rotate(0 48.17547677233813 86.46454841925294)"><path d="M92.92224552809702 143.68746015295773 C95.55319707523888 153.7791769506849, 95.61530564754199 165.11549730629568, 96.37873244094662 171.5136569344718 M91.87517387933539 142.49190278031318 C92.24504276307123 149.9234210344348, 94.83261791155168 156.79314101350897, 95.84180532391183 171.50479054798373" stroke="#364fc7" stroke-width="1" fill="none"></path></g></g><g transform="translate(403.5555555555552 522.4444444444445) rotate(0 139.5 284.00000000000006)"><path d="M1.4760145270181921 -0.07481110483415424 C104.05866141560057 1.8109386930461213, 209.91919274464007 2.3669506351444527, 278.41355924307703 -0.9544782292227535 M-0.4836851777819052 0.5725352896524563 C76.18646399565257 -0.542570731852219, 152.71846165537704 -0.1050632330321527, 278.6845252349399 -0.6398082174517974 M278.52596557587384 -0.5156869933009148 C277.2257743587494 156.17201625108723, 277.9333845367431 312.9464336678386, 279.06818087548015 567.9590403035284 M279.1595854498446 0.14924944862723352 C280.16721769556403 201.57029340043667, 280.7027402280271 402.6273625902832, 279.0654450394213 567.8974979065358 M279.31487047096596 567.1286127990361 C186.81074277922716 567.4368905436193, 95.85564415548454 566.0480515628477, -0.9434440880179136 568.5715440872879 M279.3052051184434 567.6968355792594 C177.55357839349378 568.9545428287392, 74.91510467700216 568.5951516580861, -0.2861210487451449 567.5541328231103 M0.08973195999860764 568.2514410927892 C-2.1851476999521253 352.4921355992555, -2.5671829077005386 137.2212044343352, 0.4661361023783684 0.05579790621995926 M0.050636980682611465 568.297694530338 C-0.7083462839424609 353.712230784446, -0.4033184414207934 139.23930594846607, -0.2115499995648861 0.2699710033833981" stroke="#000000" stroke-width="1" fill="none"></path></g><g transform="translate(411.0555555555552 532.9444444444445) rotate(0 131.5 22)"><text x="131.5" y="32" font-family="Virgil, Segoe UI Emoji" font-size="28px" fill="#364fc7" text-anchor="middle" style="white-space: pre;" direction="ltr">Epidemic Dosimeter</text></g><g transform="translate(432.5555555555552 918.9444444444445) rotate(0 118 31.000000000000057)"><path d="M-0.23164731598194685 -0.1775993645581141 C50.58013699906007 0.5267937220349854, 97.50579168550254 -0.94700676410579, 235.56694841654698 1.3204647391777617 M-0.3515168064910121 -0.6899261276463441 C69.50052467544208 -1.6888363378463644, 139.30667680305922 -2.176725893337454, 235.7947919084209 -0.6829822146518401 M236.18286592885852 -0.878748070448637 C237.5845146951452 22.45701760239899, 235.80307551000269 45.31462241709232, 237.08622903749347 63.36186884716153 M235.05033671297133 0.803471839055419 C236.63650049138815 15.114359287917615, 236.41097004581243 29.324697038903835, 236.30361598171294 61.847053265199065 M235.9799148555769 63.4743887530264 C187.55643932916928 60.83183018515716, 135.46318366293167 61.5007035118002, 1.0967236654282226 60.36931628573872 M236.5113226724932 62.401751119293365 C158.45585321286507 61.226621110472074, 81.16011427250498 60.73032686438498, 0.6691569962781003 62.70175054018734 M-0.7175249345600605 62.35388385131955 C-1.7421552229300141 45.272678625211114, 1.095797986947 26.084650431573387, 1.551827859133482 0.2825882323086262 M-0.9683151300996542 62.46035495959222 C-0.2842328438535333 41.326479382067916, -0.607362318970263 20.41224453635514, -0.5742391999810934 0.8995777126401663" stroke="#087f5b" stroke-width="1" fill="none"></path></g><g transform="translate(431.5555555555552 999.9444444444446) rotate(0 118 31)"><path d="M-0.1775993645581141 1.5066670152737272 C93.89986882873575 -0.3678044492114491, 185.8956556932317 -0.15970775059432457, 237.32046473917777 -0.06934795025185196 M-0.6899261276463441 -0.32526601667870947 C55.73089466468929 0.4846750821364331, 111.18550447187553 0.6243715717396903, 235.31701778534816 0.5566165410226634 M235.12125192955136 1.9518913738429546 C235.348849353455 15.09668540172279, 235.49794333901255 30.93869546353817, 237.36186884716153 60.771121334284544 M236.80347183905542 0.389143044129014 C236.55521979700774 21.237187071144582, 235.97508141171187 42.4507649268955, 235.84705326519907 61.108164424076676 M237.4743887530264 63.30911973737885 C160.32000393064249 60.944844008931526, 85.35289257350368 63.07302319500898, -1.6306837142612827 62.460099293609254 M236.40175111929335 61.71938980990835 C155.83375740987816 62.89390897367549, 75.16238728782331 63.87587850336205, 0.7017505401873416 61.92242778317216 M0.35388385131955147 60.32738704606891 C1.1052339452877642 43.86991756595671, -0.05537208136171101 24.960982479155064, 0.2825882323086262 0.8165617696940899 M0.46035495959222317 61.794254476204515 C-0.003605653904378392 42.086251800507306, 0.2135009864345193 22.65601439885795, 0.8995777126401663 -0.48423314653337" stroke="#087f5b" stroke-width="1" fill="none"></path></g><g transform="translate(456.5555555555552 935.4444444444445) rotate(0 95 15.500000000000057)"><text x="95" y="23" font-family="Virgil, Segoe UI Emoji" font-size="20px" fill="#364fc7" text-anchor="middle" style="white-space: pre;" direction="ltr">Beacon transmitter</text></g><g transform="translate(473.0555555555552 1016.4444444444446) rotate(0 76.5 15.5)"><text x="76.5" y="23" font-family="Virgil, Segoe UI Emoji" font-size="20px" fill="#364fc7" text-anchor="middle" style="white-space: pre;" direction="ltr">Beacon receiver</text></g><g><g transform="translate(670.9999999999998 951.2222222222222) rotate(0 67.32016688974372 41.679830399731486)"><path d="M-0.2582053251564502 -0.6292506270110607 C22.42095413685398 13.20121415199506, 112.33504355254553 68.70769529350936, 134.89853910464385 82.52556470508384 M1.807098149796948 1.654788848469034 C24.417433929439575 15.717282051320923, 111.77051699312374 70.3661454441575, 133.86806000428797 83.9889114264741" stroke="#364fc7" stroke-width="1" fill="none"></path></g><g transform="translate(670.9999999999998 951.2222222222222) rotate(0 67.32016688974372 41.679830399731486)"><path d="M103.46048040559378 77.55800459153114 C110.18001709748074 79.24085736404257, 115.69681384206501 80.74565881279207, 135.45399531009198 82.67205789204384 M104.92565130872515 76.82266964568852 C111.03447228968494 78.56953378794961, 116.69561374616436 79.99307268294963, 133.05198032254876 83.00659419301594" stroke="#364fc7" stroke-width="1" fill="none"></path></g><g transform="translate(670.9999999999998 951.2222222222222) rotate(0 67.32016688974372 41.679830399731486)"><path d="M114.29463500652153 60.12983496678181 C118.75964475107483 65.30925943517818, 122.08831935572054 70.33394454990871, 135.45399531009198 82.67205789204384 M115.7598059096529 59.394500020939184 C119.62049178976841 64.6731679573841, 123.02648255958583 69.72441479492626, 133.05198032254876 83.00659419301594" stroke="#364fc7" stroke-width="1" fill="none"></path></g></g><g transform="translate(713.7222222222216 1004.1111111111113) rotate(0 19.5 15.5)"><text x="0" y="23" font-family="Virgil, Segoe UI Emoji" font-size="20px" fill="#364fc7" text-anchor="start" style="white-space: pre;" direction="ltr">BLE</text></g><g transform="translate(560.0555555555571 432.50000000000057) rotate(0 62.5 15.5)"><text x="0" y="23" font-family="Virgil, Segoe UI Emoji" font-size="20px" fill="#364fc7" text-anchor="start" style="white-space: pre;" direction="ltr">WiFi / REST</text></g><g><g transform="translate(1048.4444444444443 1002.8888888888889) rotate(0 46.46557346829678 -78.37345516160127)"><path d="M0.3652800031006336 -0.36897032931447027 C15.857434879491725 -26.627598721534017, 78.41768782412012 -130.52437523081898, 93.83323366120457 -156.37793999388813 M-0.9020867246109993 -1.6082836975436658 C14.340428173073258 -27.188324247477574, 76.78835506283058 -129.04609543877652, 92.79763586970978 -155.03893323945812" stroke="#364fc7" stroke-width="1" fill="none"></path></g><g transform="translate(1048.4444444444443 1002.8888888888889) rotate(0 46.46557346829678 -78.37345516160127)"><path d="M86.17598651988517 -125.92436840623702 C88.11617517690962 -138.5410660468293, 91.83813024422547 -146.13733162155566, 93.79673821258359 -155.3697403776925 M87.73252395620655 -126.30577973701145 C88.71084442921767 -134.29032062048682, 89.37486225345474 -142.66603148293464, 91.95796363766306 -154.8572463668417" stroke="#364fc7" stroke-width="1" fill="none"></path></g><g transform="translate(1048.4444444444443 1002.8888888888889) rotate(0 46.46557346829678 -78.37345516160127)"><path d="M68.68814665285457 -136.66194071895904 C77.26260654233377 -145.32290530216716, 87.51379877237738 -148.9102048345023, 93.79673821258359 -155.3697403776925 M70.24468408917595 -137.04335204973347 C76.1374889994375 -141.9691457290005, 81.70564824151369 -147.33370292660152, 91.95796363766306 -154.8572463668417" stroke="#364fc7" stroke-width="1" fill="none"></path></g></g><g><g transform="translate(1050.4444444444443 914.8888888888889) rotate(0 40.94792161509395 -36.37571780011058)"><path d="M-1.0970018930733203 0.22161945775151248 C12.582846531520287 -12.048410317550104, 69.16679537420472 -60.787158430864416, 82.99284512326122 -72.97305505797267 M0.5279333837237208 -0.707634272268042 C14.056680942416811 -12.827561931402112, 69.15074407670957 -59.619339818845816, 82.56604334934615 -71.42148371218704" stroke="#364fc7" stroke-width="1" fill="none"></path></g><g transform="translate(1050.4444444444443 914.8888888888889) rotate(0 40.94792161509395 -36.37571780011058)"><path d="M68.2946221808922 -43.58187296452763 C73.33603418453838 -55.18661838478357, 78.97526868994012 -65.64091491615048, 80.85300104170106 -69.68671604796313 M67.14615051066694 -45.45786640818062 C71.3983744940104 -52.38390924780663, 75.10184193186814 -57.24674994710035, 81.83846118710004 -70.54003749406897" stroke="#364fc7" stroke-width="1" fill="none"></path></g><g transform="translate(1050.4444444444443 914.8888888888889) rotate(0 40.94792161509395 -36.37571780011058)"><path d="M54.888606366123 -59.118884979712455 C65.05642686402673 -64.75688860422032, 75.73828347157975 -69.36699687923391, 80.85300104170106 -69.68671604796313 M53.74013469589774 -60.99487842336544 C61.40110247083101 -64.02789573116061, 68.43591104858197 -65.02985128513187, 81.83846118710004 -70.54003749406897" stroke="#364fc7" stroke-width="1" fill="none"></path></g></g><g><g transform="translate(914.4444444444445 835.8888888888889) rotate(0 0.39834921881555374 -8.57849864169026)"><path d="M-0.6429858036339283 -0.7677272133529186 C-0.4107079255084197 -3.4156055502593516, 1.0415517183641594 -14.32366951033473, 1.4396842412650586 -17.001989894360303 M1.220307920118794 1.4436120542977005 C1.2415103954480342 -1.4250346612837164, 0.2597475015527258 -15.265019215038047, 0.19747300430200987 -18.60060933767818" stroke="#364fc7" stroke-width="1" fill="none"></path></g><g transform="translate(914.4444444444445 835.8888888888889) rotate(0 0.39834921881555374 -8.57849864169026)"><path d="M3.1196734637306514 -10.672430947687165 C3.465812015278334 -12.997510605202102, 2.525936501694263 -14.875051230206594, -0.10461195321446204 -17.751367158793354 M3.479951540474479 -10.55654623928484 C2.8907407016454574 -12.86534484041926, 1.1795469367786764 -15.756531172651954, 0.16674915618538383 -18.39939614842362" stroke="#364fc7" stroke-width="1" fill="none"></path></g><g transform="translate(914.4444444444445 835.8888888888889) rotate(0 0.39834921881555374 -8.57849864169026)"><path d="M-3.0674512717005746 -10.375448058108173 C-0.8386904643758706 -12.757609492200709, 0.10129750507598412 -14.725383838534423, -0.10461195321446193 -17.751367158793354 M-2.707173194956747 -10.259563349705848 C-1.4106271064855684 -12.613086331915243, -1.237877350253179 -15.594702227899191, 0.16674915618538383 -18.39939614842362" stroke="#364fc7" stroke-width="1" fill="none"></path></g></g><g><g transform="translate(1126.4444444444443 786.8888888888889) rotate(0 -46.37995997315738 0.7821357199409817)"><path d="M0.7648117728531361 -0.9709126062691211 C-14.718625646084547 -0.9118954805036386, -77.27142837569117 0.6142103446026643, -92.722417216748 0.9985303573310376 M-0.292800775738433 1.1337543301004915 C-15.925564128430562 1.340623195093746, -78.21504714188166 2.25274756374148, -93.5247317191679 2.5351840461511164" stroke="#364fc7" stroke-width="1" fill="none"></path></g><g transform="translate(1126.4444444444443 786.8888888888889) rotate(0 -46.37995997315738 0.7821357199409817)"><path d="M-67.12222580964416 -7.718554744628049 C-74.27127054313485 -2.863749129576745, -82.5328077695701 -1.3451738485154934, -94.9601676214952 0.6087428050953894 M-65.92064351009876 -8.139373388272501 C-74.22615698913931 -5.141694323705639, -83.75183870485044 -1.4204814082833712, -93.2278013706673 1.6600365190673618" stroke="#364fc7" stroke-width="1" fill="none"></path></g><g transform="translate(1126.4444444444443 786.8888888888889) rotate(0 -46.37995997315738 0.7821357199409817)"><path d="M-66.78946857799585 12.79995580098966 C-74.15347124956733 11.196616699399595, -82.51977729272781 6.254926458417258, -94.9601676214952 0.6087428050953894 M-65.58788627845044 12.379137157345207 C-74.16061000772952 8.444313040955956, -83.7986780326476 5.235549831672493, -93.2278013706673 1.6600365190673618" stroke="#364fc7" stroke-width="1" fill="none"></path></g></g><g><g transform="translate(1062.4444444444443 739.8888888888889) rotate(0 1.525907607465058 47.3026390942652)"><path d="M0.8770082183182237 0.4637064389884471 C1.4040190008779363 15.934524712214868, 3.037982832143704 77.9359570754071, 3.173516411334276 93.61069151684642 M-0.12170119640417387 -0.3384516258817165 C0.3489689581872275 15.233913988989466, 2.6943049500665315 79.48091132821826, 2.8415670636575667 94.94372981441207" stroke="#364fc7" stroke-width="1" fill="none"></path></g><g transform="translate(1062.4444444444443 739.8888888888889) rotate(0 1.525907607465058 47.3026390942652)"><path d="M-7.352820645512946 68.97612676045352 C-5.291028583534222 74.8274827138537, -0.4880236313823101 84.09890783315299, 2.2937601934652774 95.75829876241274 M-7.603085183964975 66.45659114255065 C-3.8583916817780386 75.53425857454454, -1.9070417639175083 84.80616314481237, 2.4410780071746556 94.93648432780988" stroke="#364fc7" stroke-width="1" fill="none"></path></g><g transform="translate(1062.4444444444443 739.8888888888889) rotate(0 1.525907607465058 47.3026390942652)"><path d="M13.161880682943885 68.45937557269397 C9.05306874962766 74.61617970358637, 7.6820859254970255 84.04312331986625, 2.2937601934652774 95.75829876241274 M12.911616144491855 65.9398399547911 C10.444541641009177 75.04004309901548, 6.182307591305313 84.46846356703263, 2.4410780071746556 94.93648432780988" stroke="#364fc7" stroke-width="1" fill="none"></path></g></g><g><g transform="translate(1130.4444444444443 749.8888888888889) rotate(0 -41.07118072635029 -58.92484165461269)"><path d="M1.0433729834854601 0.657285826653242 C-12.513304588447015 -18.759122259169818, -68.35448418979844 -96.87299242690206, -82.15586162135006 -116.59632418826223 M0.13200507047586152 -0.04324305969290432 C-13.524949515533322 -19.821397642372176, -69.42920725839522 -99.06023666280322, -83.18573443618602 -118.5069691358786" stroke="#364fc7" stroke-width="1" fill="none"></path></g><g transform="translate(1130.4444444444443 749.8888888888889) rotate(0 -41.07118072635029 -58.92484165461269)"><path d="M-57.44870641406473 -101.65551608913935 C-63.574691833678415 -104.75974087342352, -71.10258458730328 -109.85597795351708, -84.36554461372084 -117.12404891910963 M-58.3301858096182 -101.54741885067321 C-63.8989075683598 -105.12850086237472, -70.40696500565946 -110.04877655479594, -83.90882123474962 -118.62982259939425" stroke="#364fc7" stroke-width="1" fill="none"></path></g><g transform="translate(1130.4444444444443 749.8888888888889) rotate(0 -41.07118072635029 -58.92484165461269)"><path d="M-74.21261610680907 -89.8194975778598 C-76.43943593731731 -95.81563810250502, -80.07781692084731 -103.65803250236794, -84.36554461372084 -117.12404891910963 M-75.09409550236253 -89.71140033939366 C-76.4519184554944 -96.32056160701812, -78.81779514675455 -104.16538944066262, -83.90882123474962 -118.62982259939425" stroke="#364fc7" stroke-width="1" fill="none"></path></g></g><g><g transform="translate(1101.4444444444443 612.8888888888889) rotate(0 -27.454129689643196 -0.14611604055596672)"><path d="M-0.7822777099907399 0.27266103699803357 C-10.102183364580075 0.0734750218689442, -46.10428010498484 -0.8716143898665905, -54.97908306792378 -0.7187717489898204 M1.007887762924656 -0.6297958639170975 C-8.550489649136242 -0.7291867887880653, -46.700146029054494 0.42436484367586685, -55.916147142210974 0.4412983340118082" stroke="#364fc7" stroke-width="1" fill="none"></path></g><g transform="translate(1101.4444444444443 612.8888888888889) rotate(0 -27.454129689643196 -0.14611604055596672)"><path d="M-29.790674557208565 -9.38527167570972 C-41.11687699831567 -4.241444772692789, -47.64902238675405 -3.4190498412939547, -56.698932010242714 -1.3670664261188357 M-30.147538787915853 -9.578552147198554 C-37.58320423806882 -6.167779215882497, -46.186793870934295 -3.422580128025035, -55.6028851620201 -0.0896558723505585" stroke="#364fc7" stroke-width="1" fill="none"></path></g><g transform="translate(1101.4444444444443 612.8888888888889) rotate(0 -27.454129689643196 -0.14611604055596672)"><path d="M-29.457750414109878 9.422889885099131 C-40.98457856798283 7.448242086118521, -47.64268999136319 1.1543326416553468, -56.698932010242714 -1.3670664261188357 M-29.814614644817166 9.229609413610298 C-37.25783361389745 6.6016545242930675, -45.968369530174755 3.305047938294064, -55.6028851620201 -0.0896558723505585" stroke="#364fc7" stroke-width="1" fill="none"></path></g></g><g transform="translate(10 520.8333333333331) rotate(0 145.26851851851853 284.00000000000006)"><path d="M-0.05808717587896361 0.5802819465471244 C69.51925470670064 -2.8061655378418817, 142.61265663756134 -1.3624433533139682, 291.21033822728424 0.40854348926660783 M-0.43683274595436755 -0.12118329661380932 C75.52258315839384 -2.297152334921086, 150.00068578728926 -2.6240255569837414, 290.48636943072364 0.6763621766798328 M290.0940991667134 -0.25393839329481127 C288.84914428152865 159.7587510228157, 289.87269989409276 318.8512210175395, 290.01227577003067 568.4488803341985 M290.1747181613964 0.10555395111441612 C292.2029170536918 220.03298990502958, 292.4862041735572 440.47101164385685, 290.3848090131802 567.8010604046285 M291.3748330150282 568.6276560096542 C189.13505930773536 567.6950954448201, 90.44627528044559 568.1566674790129, -1.3310552099471427 568.5935158414724 M291.04416310460266 567.9772047914016 C216.35666601720948 566.8745900183413, 143.93474444774728 566.6977707680243, -0.050411774049863335 567.5424377723799 M-0.5183133319020271 567.6971557572484 C1.6543821996450425 398.14682405292984, 0.9720814889669419 226.85918308347462, -0.01458069831132889 0.17511181384325028 M0.2784305311739445 568.1201702974737 C0.9897664842307567 395.67723727896805, 1.136601882904768 224.3807787172496, 0.10260371938347818 -0.01586164012551308" stroke="#000000" stroke-width="1" fill="none"></path></g><g transform="translate(46.999999999999886 523.2222222222225) rotate(0 102 44)"><text x="102" y="32" font-family="Virgil, Segoe UI Emoji" font-size="28px" fill="#364fc7" text-anchor="middle" style="white-space: pre;" direction="ltr">Testing Center</text><text x="102" y="76" font-family="Virgil, Segoe UI Emoji" font-size="28px" fill="#364fc7" text-anchor="middle" style="white-space: pre;" direction="ltr">Interfarce</text></g><g transform="translate(36.22222222222217 1000.6666666666663) rotate(0 118 31)"><path d="M-1.474248818372522 -1.2740876600236786 C89.96846045635579 -0.42299168838271417, 178.57315596703532 -0.30970589960588735, 235.29388869453055 1.2513096840900046 M0.6428922880995086 -0.4484243486139706 C91.48842533724299 -0.49426602407673015, 182.69093023651388 1.0791404493552146, 235.8319987054757 -0.5278311816628627 M235.34954316541553 1.7981377728283405 C237.56515534732492 25.599574388936162, 234.34481998298318 48.46020366251469, 237.75653023645282 63.471043813973665 M235.98693560995162 -0.6311720255762339 C236.1335591523722 20.69366293400526, 235.05783568311483 41.38950581289828, 236.4669795576483 61.570227241143584 M235.24490155246002 60.58636519744731 C156.3681430689723 61.9344639620291, 72.17919396645537 63.49605449347255, -0.7920489063379629 61.045349360185874 M235.19559217110898 62.525869202064136 C182.85238316166854 62.26726706994383, 128.9221791978145 61.42658558002586, -0.000738879692596942 61.612244758653006 M1.5138953439891338 63.24214969947934 C0.2098363995179534 38.30934060774743, 0.3652410864457488 17.26018706411123, 0.055915068835020065 -0.9237122647464275 M-0.1489266213029623 61.163063084706664 C-0.21340544793754812 45.88755444958806, -0.17505802486091848 27.951681663468477, -0.1430762466043234 -0.4334998372942209" stroke="#087f5b" stroke-width="1" fill="none"></path></g><g transform="translate(36.6111111111112 916.3888888888888) rotate(0 118 31.000000000000057)"><path d="M-1.2740876600236786 1.0593869969987524 C70.22979274965813 2.4946226540008363, 140.22803516130375 1.0335023002101242, 237.25130968409002 1.4645271086246623 M-0.4484243486139706 0.11455205501905007 C56.22224125636967 -1.5740421278488377, 114.83285396160433 -1.685227094439123, 235.47216881833714 0.6867427519522956 M237.79813777282834 1.9084321968257427 C237.73377072062343 13.855328337475658, 236.9253985806927 32.09099324643612, 237.47104381397367 62.755944322794676 M235.36882797442377 0.695153409615159 C235.91384415756912 12.603487367928029, 235.66625963579864 26.43509441278875, 235.57022724114358 62.4391572419554 M234.58636519744732 63.532253979119744 C151.10620716261226 59.616399618653055, 68.67005396753397 60.31693492556486, -0.9546506398141278 60.769277532228195 M236.52586920206414 62.36302883807278 C149.5501465023001 60.04506807444019, 61.932019303421825 60.10085864412462, -0.38775524134699624 62.54039773914268 M1.2421496994793415 61.80814356729388 C-0.8671588688716292 47.380476576462385, 0.6724838227406145 32.889771713316435, -0.9237122647464275 -0.5147315748035908 M-0.8369369152933359 62.218161875382066 C0.7056226066127419 39.34083606526255, -0.22591806139796977 16.025577287003394, -0.4334998372942209 0.5293539706617594" stroke="#087f5b" stroke-width="1" fill="none"></path></g><g transform="translate(76.72222222222217 1017.1666666666672) rotate(0 78.5 15.5)"><text x="78.5" y="23" font-family="Virgil, Segoe UI Emoji" font-size="20px" fill="#364fc7" text-anchor="middle" style="white-space: pre;" direction="ltr">Key transmitter</text></g><g transform="translate(95.1111111111112 932.8888888888888) rotate(0 59.5 15.500000000000057)"><text x="59.5" y="23" font-family="Virgil, Segoe UI Emoji" font-size="20px" fill="#364fc7" text-anchor="middle" style="white-space: pre;" direction="ltr">Ack receiver</text></g><g transform="translate(39.48148148148141 683.111111111111) rotate(0 118 31)"><path d="M-0.06932842448619454 -0.11508557309717087 C89.7553505772349 2.6133742496794676, 183.19363959825685 1.8065883374232747, 236.81345957801497 -0.37287123989504717 M0.7023807374030641 0.10378638331301882 C70.98938688726753 1.59204608336792, 141.56646060222522 0.972566885844207, 236.2032633659983 -0.7942542961965969 M237.05532045289874 1.373581875115633 C236.16950703356414 18.93118982501328, 235.67472327444702 38.59962617456913, 234.97880608960986 63.94875155761838 M236.33336775936186 -0.004887843504548073 C235.91596190501005 18.638749270141126, 235.75251756478102 38.194959244504574, 236.5365772191435 61.118945276364684 M236.4628808640923 62.541470600172765 C151.71023830758216 64.63446628802178, 65.66243068726736 63.352627909740804, -0.19582764934586133 60.53697682592555 M235.933771401896 62.002116122063335 C169.6639796288363 62.72007947660468, 104.16504345539134 62.129620973983, -0.008230014786166697 61.194418656947335 M1.2512659542262554 61.85887645557523 C0.22296191092580553 47.69972772561014, 0.17886937495321031 33.74930778592825, -0.7153622396290302 0.7493308670818806 M-0.4282154496759176 61.6120286937803 C-0.1358104941621423 46.62062317803502, -1.1425814029946924 31.43619970269501, -0.9463919457048178 0.714388882741332" stroke="#087f5b" stroke-width="1" fill="none"></path></g><g transform="translate(87.98148148148141 699.611111111111) rotate(0 70.5 15.5)"><text x="70.5" y="23" font-family="Virgil, Segoe UI Emoji" font-size="20px" fill="#364fc7" text-anchor="middle" style="white-space: pre;" direction="ltr">User interface</text></g><g><g transform="translate(807.4814814814815 937.7222222222223) rotate(0 -67.4035756369644 49.51153636623684)"><path d="M0.9122475318610668 -0.09938953444361687 C-21.737160369726254 16.298459611198393, -112.05277085886516 82.13120505641444, -134.75443935005208 98.65813363931231 M-0.06796124325133857 -1.1971729853656143 C-22.978135137539713 15.385442487717135, -113.00312220649973 83.8613033881434, -135.71939880578992 100.2202457178393" stroke="#364fc7" stroke-width="1" fill="none"></path></g><g transform="translate(807.4814814814815 937.7222222222223) rotate(0 -67.4035756369644 49.51153636623684)"><path d="M-119.37133614259358 75.12064625470778 C-125.59642551855599 84.23796773783964, -131.44869121760598 96.49634106512114, -136.72259449764368 98.96100424490959 M-118.698712525019 75.33529019689998 C-124.27366962164231 81.81436205475273, -127.65287280481171 88.3117102804022, -135.1297975330728 100.86328104585499" stroke="#364fc7" stroke-width="1" fill="none"></path></g><g transform="translate(807.4814814814815 937.7222222222223) rotate(0 -67.4035756369644 49.51153636623684)"><path d="M-107.13561387800429 91.5950841221943 C-118.23307114748896 94.29526257205545, -128.92049464588408 100.04347613742954, -136.72259449764368 98.96100424490959 M-106.46299026042972 91.80972806438649 C-115.21280382388169 93.94422914630302, -121.74567889896855 96.19540615996011, -135.1297975330728 100.86328104585499" stroke="#364fc7" stroke-width="1" fill="none"></path></g></g><g><g transform="translate(281.0925925925926 1032.1666666666677) rotate(0 70.52117623328074 1.192601214432102)"><path d="M0.6206785865128039 -0.8239504404366016 C24.212237776733097 -0.15176079767168926, 117.96278452086776 2.5641994020729575, 141.55495635146892 3.2091528693007603 M-0.5126038849074395 1.3578716329950842 C22.91066925803302 1.7342730308569088, 116.85046085870408 0.7887030986058774, 140.54826297236292 1.313050043571584" stroke="#364fc7" stroke-width="1" fill="none"></path></g><g transform="translate(281.0925925925926 1032.1666666666677) rotate(0 70.52117623328074 1.192601214432102)"><path d="M110.94218146960802 11.271188083699776 C121.58707449625432 9.108382559461145, 129.79779771776026 5.665409262343629, 140.7647159173867 1.7131592862194702 M113.0231311206854 10.79179524037881 C123.01620293470975 8.369005462065715, 134.29819424634957 3.749208429668891, 141.30239861642627 2.1947246257102417" stroke="#364fc7" stroke-width="1" fill="none"></path></g><g transform="translate(281.0925925925926 1032.1666666666677) rotate(0 70.52117623328074 1.192601214432102)"><path d="M111.02676468921075 -9.249846199805557 C121.5053347345002 -5.246325395261154, 129.69064350942634 -2.523409855205519, 140.7647159173867 1.7131592862194702 M113.10771434028814 -9.729239043126523 C123.22638227347491 -4.2796896174932595, 134.4759221677741 -1.0263334296212099, 141.30239861642627 2.1947246257102417" stroke="#364fc7" stroke-width="1" fill="none"></path></g></g><g><g transform="translate(417.2037037037037 951.6111111111111) rotate(0 -67.20808042279549 1.2449419595849918)"><path d="M0.9968855090439319 0.6604070596396923 C-21.54532305744511 0.9051385114866358, -112.70606956915172 1.288049700000814, -135.4130463546349 1.6060820856856481 M0.061111671952530644 -0.03848317938856782 C-22.075583236310976 0.29604447732335454, -110.33940273968675 1.8925748029458584, -133.06377448777874 2.5283670985585376" stroke="#364fc7" stroke-width="1" fill="none"></path></g><g transform="translate(417.2037037037037 951.6111111111111) rotate(0 -67.20808042279549 1.2449419595849918)"><path d="M-104.00813667774756 -9.509706883673061 C-115.06338206487897 -5.876315705721872, -121.47341594002101 -2.474352075890473, -132.95482090379318 1.8268196658676787 M-105.32185572498102 -8.04183589013337 C-113.36304727075867 -5.28666917420907, -120.57077540144408 -3.049024950758648, -132.66250346678515 2.28182148015856" stroke="#364fc7" stroke-width="1" fill="none"></path></g><g transform="translate(417.2037037037037 951.6111111111111) rotate(0 -67.20808042279549 1.2449419595849918)"><path d="M-103.5505186208269 11.006398694623702 C-114.76049676869678 8.761957321002162, -121.3017223061539 6.2822867925139905, -132.95482090379318 1.8268196658676787 M-104.86423766806037 12.474269688163393 C-112.90300149554974 9.482513868072232, -120.23895138181305 5.9716719138300745, -132.66250346678515 2.28182148015856" stroke="#364fc7" stroke-width="1" fill="none"></path></g></g><g><g transform="translate(279.7037037037037 682.1666666666667) rotate(0 137.42548337653278 -152.9541422924374)"><path d="M-1.1784622482955456 -0.7511874742805957 C44.782844188561036 -52.11891471067515, 230.14456070537366 -256.26389461057613, 276.0294290013611 -307.3771197412578 M0.4037063420098277 1.4688351563829931 C46.274177369403965 -49.80494224202889, 229.59433620674227 -254.7606680484617, 275.62183376344854 -306.06684902086346" stroke="#364fc7" stroke-width="1" fill="none"></path></g><g transform="translate(279.7037037037037 682.1666666666667) rotate(0 137.42548337653278 -152.9541422924374)"><path d="M263.2060151631462 -276.50569115727717 C267.1369612410826 -288.5211667759443, 270.64044497329434 -295.0905405476059, 275.6812532650214 -305.82808859794824 M264.1776243849176 -277.95694703198546 C268.13536277802035 -287.55068388658907, 272.2907731172809 -297.92872318165956, 274.97859120125884 -306.0285684797862" stroke="#364fc7" stroke-width="1" fill="none"></path></g><g transform="translate(279.7037037037037 682.1666666666667) rotate(0 137.42548337653278 -152.9541422924374)"><path d="M247.91915178731188 -290.19626494051994 C256.86400509278656 -297.65599996256947, 265.2867892046553 -299.8197580658073, 275.6812532650214 -305.82808859794824 M248.89076100908323 -291.64752081522823 C258.3799930059263 -296.313842341421, 268.0420178107093 -301.76028057598336, 274.97859120125884 -306.0285684797862" stroke="#364fc7" stroke-width="1" fill="none"></path></g></g><g><g transform="translate(560.2592592592597 390.5000000000002) rotate(0 -138.43698100638073 153.989227213382)"><path d="M0.11354474499821654 -0.6816141910851001 C-46.08472198460394 50.618414518926976, -230.99558997322586 255.84306909190835, -276.98750675775966 307.0612961966958 M-1.2859829932171851 1.5749344132561238 C-47.10233326689482 53.154207055336556, -228.75175468923302 257.6260627089382, -274.58982660254384 308.6600686178491" stroke="#364fc7" stroke-width="1" fill="none"></path></g><g transform="translate(560.2592592592597 390.5000000000002) rotate(0 -138.43698100638073 153.989227213382)"><path d="M-264.609072726633 279.7981072880019 C-266.9721172165671 290.55308935523414, -271.2169492242831 299.7418390049887, -275.6940040886953 308.9086346008763 M-263.19687663991334 279.91540933136537 C-265.44672398565297 286.70951547199104, -267.7510012745981 292.76298023847636, -275.3441541623875 308.51442740456616" stroke="#364fc7" stroke-width="1" fill="none"></path></g><g transform="translate(560.2592592592597 390.5000000000002) rotate(0 -138.43698100638073 153.989227213382)"><path d="M-249.29910038485338 293.4628337499471 C-256.42883606072735 299.90275476655813, -265.5244970818442 304.76195697481256, -275.6940040886953 308.9086346008763 M-247.88690429813374 293.58013579331055 C-253.63366541007184 297.33156798519923, -259.40455425056376 300.29095148594405, -275.3441541623875 308.51442740456616" stroke="#364fc7" stroke-width="1" fill="none"></path></g></g><g transform="translate(637.4259259259258 850) rotate(88.26429541107159 102 15.5)"><text x="0" y="23" font-family="Virgil, Segoe UI Emoji" font-size="20px" fill="#364fc7" text-anchor="start" style="white-space: pre;" direction="ltr">Ephemeral identifiers</text></g><g transform="translate(326.9259259259259 1003.4999999999989) rotate(0 25 24.5)"><text x="0" y="18.5" font-family="Virgil, Segoe UI Emoji" font-size="16px" fill="#364fc7" text-anchor="start" style="white-space: pre;" direction="ltr">Upload</text><text x="0" y="43" font-family="Virgil, Segoe UI Emoji" font-size="16px" fill="#364fc7" text-anchor="start" style="white-space: pre;" direction="ltr">key</text></g><g transform="translate(475.0370370370373 707.6666666666669) rotate(44.999999999999694 63 24.5)"><text x="63" y="18.5" font-family="Virgil, Segoe UI Emoji" font-size="16px" fill="#364fc7" text-anchor="middle" style="white-space: pre;" direction="ltr">Same as the</text><text x="63" y="43" font-family="Virgil, Segoe UI Emoji" font-size="16px" fill="#364fc7" text-anchor="middle" style="white-space: pre;" direction="ltr">one on the right</text></g><g transform="translate(326.8703703703703 902.7777777777778) rotate(0 19.5 15.5)"><text x="0" y="23" font-family="Virgil, Segoe UI Emoji" font-size="20px" fill="#364fc7" text-anchor="start" style="white-space: pre;" direction="ltr">BLE</text></g></svg>