G04 Layer_Color=16711935*
%FSLAX44Y44*%
%MOMM*%
G71*
G01*
G75*
%ADD89C,1.7032*%
%ADD90R,1.7032X1.7032*%
%ADD91C,2.0032*%
%ADD92R,2.0032X2.0032*%
%ADD93C,2.9532*%
%ADD94C,1.7112*%
%ADD95R,1.7112X1.7112*%
G04:AMPARAMS|DCode=96|XSize=0.2032mm|YSize=0.2032mm|CornerRadius=0mm|HoleSize=0mm|Usage=FLASHONLY|Rotation=0.000|XOffset=0mm|YOffset=0mm|HoleType=Round|Shape=RoundedRectangle|*
%AMROUNDEDRECTD96*
21,1,0.2032,0.2032,0,0,0.0*
21,1,0.2032,0.2032,0,0,0.0*
1,1,0.0000,0.1016,-0.1016*
1,1,0.0000,-0.1016,-0.1016*
1,1,0.0000,-0.1016,0.1016*
1,1,0.0000,0.1016,0.1016*
%
%ADD96ROUNDEDRECTD96*%
%ADD97C,3.3782*%
%ADD98C,0.8032*%
D89*
X71120Y443230D02*
D03*
Y417830D02*
D03*
X13970Y443230D02*
D03*
Y417830D02*
D03*
X295402Y75438D02*
D03*
X933450Y459740D02*
D03*
X711200Y232410D02*
D03*
X638810Y31750D02*
D03*
X227330Y24130D02*
D03*
X745490D02*
D03*
X928370Y381000D02*
D03*
D90*
X71120Y392430D02*
D03*
X13970D02*
D03*
D91*
X36830Y281940D02*
D03*
Y307340D02*
D03*
Y332740D02*
D03*
D92*
Y358140D02*
D03*
D93*
X201490Y349250D02*
D03*
Y119250D02*
D03*
X781490Y349250D02*
D03*
Y119250D02*
D03*
D94*
X250190Y361950D02*
D03*
Y336550D02*
D03*
X275590Y361950D02*
D03*
Y336550D02*
D03*
X300990Y361950D02*
D03*
Y336550D02*
D03*
X326390Y361950D02*
D03*
Y336550D02*
D03*
X351790Y361950D02*
D03*
Y336550D02*
D03*
X377190Y361950D02*
D03*
Y336550D02*
D03*
X402590Y361950D02*
D03*
Y336550D02*
D03*
X427990Y361950D02*
D03*
Y336550D02*
D03*
X453390Y361950D02*
D03*
Y336550D02*
D03*
X478790Y361950D02*
D03*
Y336550D02*
D03*
X504190Y361950D02*
D03*
Y336550D02*
D03*
X529590Y361950D02*
D03*
Y336550D02*
D03*
X554990Y361950D02*
D03*
Y336550D02*
D03*
X580390Y361950D02*
D03*
Y336550D02*
D03*
X605790Y361950D02*
D03*
Y336550D02*
D03*
X631190Y361950D02*
D03*
Y336550D02*
D03*
X656590Y361950D02*
D03*
Y336550D02*
D03*
X681990Y361950D02*
D03*
Y336550D02*
D03*
X707390Y361950D02*
D03*
Y336550D02*
D03*
X732790Y361950D02*
D03*
D95*
Y336550D02*
D03*
D96*
X126490Y349250D02*
D03*
Y119250D02*
D03*
X856490Y349250D02*
D03*
Y119250D02*
D03*
D97*
X836676Y693166D02*
D03*
Y57150D02*
D03*
X134620D02*
D03*
Y693166D02*
D03*
D98*
X360680Y236220D02*
D03*
M02*
