G04 Layer_Physical_Order=2*
G04 Layer_Color=16711680*
%FSLAX44Y44*%
%MOMM*%
G71*
G01*
G75*
%ADD24C,0.6000*%
%ADD26C,0.3000*%
%ADD27C,0.4000*%
%ADD28C,0.4500*%
%ADD36R,16.8910X2.5400*%
%ADD59C,1.5000*%
%ADD60R,1.5000X1.5000*%
%ADD61C,1.8000*%
%ADD62R,1.8000X1.8000*%
%ADD63C,2.7500*%
%ADD64C,1.5080*%
%ADD65R,1.5080X1.5080*%
%ADD66C,3.1750*%
%ADD67C,0.6000*%
%ADD68R,4.4450X4.0640*%
G36*
X876449Y681482D02*
X876473Y681363D01*
X876459Y681242D01*
X877070Y673479D01*
X877135Y673247D01*
X877145Y673005D01*
X878962Y665433D01*
X879064Y665214D01*
X879111Y664977D01*
X882091Y657783D01*
X882225Y657582D01*
X882309Y657355D01*
X886377Y650715D01*
X886541Y650538D01*
X886659Y650327D01*
X891717Y644406D01*
X891906Y644256D01*
X892056Y644067D01*
X897977Y639009D01*
X898188Y638891D01*
X898366Y638727D01*
X905005Y634659D01*
X905232Y634575D01*
X905433Y634441D01*
X912627Y631461D01*
X912864Y631414D01*
X913083Y631313D01*
X920655Y629495D01*
X920897Y629485D01*
X921129Y629420D01*
X928892Y628809D01*
X929013Y628823D01*
X929132Y628799D01*
X990589D01*
Y124057D01*
X929132D01*
X929013Y124033D01*
X928892Y124047D01*
X921129Y123436D01*
X920897Y123371D01*
X920655Y123361D01*
X913083Y121544D01*
X912864Y121442D01*
X912627Y121395D01*
X905433Y118415D01*
X905232Y118281D01*
X905005Y118197D01*
X898366Y114129D01*
X898188Y113965D01*
X897977Y113847D01*
X892056Y108789D01*
X891906Y108600D01*
X891717Y108450D01*
X886659Y102529D01*
X886541Y102318D01*
X886377Y102141D01*
X882309Y95501D01*
X882225Y95274D01*
X882091Y95073D01*
X879111Y87879D01*
X879064Y87642D01*
X878962Y87423D01*
X877145Y79851D01*
X877135Y79609D01*
X877070Y79377D01*
X876459Y71614D01*
X876473Y71493D01*
X876449Y71374D01*
Y3567D01*
X94847D01*
Y71374D01*
X94823Y71493D01*
X94837Y71614D01*
X94226Y79377D01*
X94161Y79609D01*
X94151Y79851D01*
X92333Y87423D01*
X92232Y87642D01*
X92185Y87879D01*
X89205Y95073D01*
X89071Y95274D01*
X88987Y95501D01*
X84919Y102140D01*
X84755Y102318D01*
X84637Y102529D01*
X79579Y108450D01*
X79390Y108600D01*
X79240Y108789D01*
X73319Y113847D01*
X73108Y113965D01*
X72930Y114129D01*
X66291Y118197D01*
X66064Y118281D01*
X65863Y118415D01*
X58669Y121395D01*
X58432Y121442D01*
X58213Y121544D01*
X50641Y123361D01*
X50399Y123371D01*
X50167Y123436D01*
X42404Y124047D01*
X42283Y124033D01*
X42164Y124057D01*
X0D01*
Y628799D01*
X42164D01*
X42283Y628823D01*
X42404Y628809D01*
X50167Y629420D01*
X50399Y629485D01*
X50641Y629495D01*
X58213Y631312D01*
X58432Y631414D01*
X58669Y631461D01*
X65863Y634441D01*
X66064Y634575D01*
X66291Y634659D01*
X72930Y638727D01*
X73108Y638891D01*
X73319Y639009D01*
X79240Y644067D01*
X79390Y644256D01*
X79579Y644406D01*
X84636Y650327D01*
X84755Y650538D01*
X84919Y650715D01*
X88987Y657355D01*
X89071Y657582D01*
X89205Y657783D01*
X92185Y664977D01*
X92232Y665214D01*
X92333Y665433D01*
X94151Y673005D01*
X94161Y673247D01*
X94226Y673479D01*
X94837Y681242D01*
X94823Y681363D01*
X94847Y681482D01*
Y746749D01*
X876449Y746749D01*
Y681482D01*
D02*
G37*
%LPC*%
G36*
X351790Y346172D02*
X349300Y345844D01*
X346979Y344883D01*
X344986Y343354D01*
X343457Y341361D01*
X342496Y339040D01*
X342168Y336550D01*
X342496Y334060D01*
X343457Y331739D01*
X344986Y329746D01*
X346979Y328217D01*
X349300Y327256D01*
X351790Y326928D01*
X354280Y327256D01*
X356601Y328217D01*
X358594Y329746D01*
X360123Y331739D01*
X361084Y334060D01*
X361412Y336550D01*
X361084Y339040D01*
X360123Y341361D01*
X358594Y343354D01*
X356601Y344883D01*
X354280Y345844D01*
X351790Y346172D01*
D02*
G37*
G36*
X402590D02*
X400100Y345844D01*
X397779Y344883D01*
X395786Y343354D01*
X394257Y341361D01*
X393296Y339040D01*
X392968Y336550D01*
X393296Y334060D01*
X394257Y331739D01*
X395786Y329746D01*
X397779Y328217D01*
X400100Y327256D01*
X402590Y326928D01*
X405080Y327256D01*
X407401Y328217D01*
X409394Y329746D01*
X410923Y331739D01*
X411884Y334060D01*
X412212Y336550D01*
X411884Y339040D01*
X410923Y341361D01*
X409394Y343354D01*
X407401Y344883D01*
X405080Y345844D01*
X402590Y346172D01*
D02*
G37*
G36*
X377190D02*
X374700Y345844D01*
X372379Y344883D01*
X370386Y343354D01*
X368857Y341361D01*
X367896Y339040D01*
X367568Y336550D01*
X367896Y334060D01*
X368857Y331739D01*
X370386Y329746D01*
X372379Y328217D01*
X374700Y327256D01*
X377190Y326928D01*
X379680Y327256D01*
X382001Y328217D01*
X383994Y329746D01*
X385523Y331739D01*
X386484Y334060D01*
X386812Y336550D01*
X386484Y339040D01*
X385523Y341361D01*
X383994Y343354D01*
X382001Y344883D01*
X379680Y345844D01*
X377190Y346172D01*
D02*
G37*
G36*
X326390D02*
X323900Y345844D01*
X321579Y344883D01*
X319586Y343354D01*
X318057Y341361D01*
X317096Y339040D01*
X316768Y336550D01*
X317096Y334060D01*
X318057Y331739D01*
X319586Y329746D01*
X321579Y328217D01*
X323900Y327256D01*
X326390Y326928D01*
X328880Y327256D01*
X331201Y328217D01*
X333194Y329746D01*
X334723Y331739D01*
X335684Y334060D01*
X336012Y336550D01*
X335684Y339040D01*
X334723Y341361D01*
X333194Y343354D01*
X331201Y344883D01*
X328880Y345844D01*
X326390Y346172D01*
D02*
G37*
G36*
X36830Y343835D02*
X33958Y343457D01*
X31282Y342349D01*
X28985Y340585D01*
X27222Y338288D01*
X26113Y335612D01*
X25735Y332740D01*
X26113Y329868D01*
X27222Y327192D01*
X28985Y324895D01*
X31282Y323131D01*
X33958Y322023D01*
X36830Y321645D01*
X39702Y322023D01*
X42378Y323131D01*
X44675Y324895D01*
X46438Y327192D01*
X47547Y329868D01*
X47925Y332740D01*
X47547Y335612D01*
X46438Y338288D01*
X44675Y340585D01*
X42378Y342349D01*
X39702Y343457D01*
X36830Y343835D01*
D02*
G37*
G36*
X275590Y346172D02*
X273100Y345844D01*
X270779Y344883D01*
X268786Y343354D01*
X267257Y341361D01*
X266296Y339040D01*
X265968Y336550D01*
X266296Y334060D01*
X267257Y331739D01*
X268786Y329746D01*
X270779Y328217D01*
X273100Y327256D01*
X275590Y326928D01*
X278080Y327256D01*
X280401Y328217D01*
X282394Y329746D01*
X283923Y331739D01*
X284884Y334060D01*
X285212Y336550D01*
X284884Y339040D01*
X283923Y341361D01*
X282394Y343354D01*
X280401Y344883D01*
X278080Y345844D01*
X275590Y346172D01*
D02*
G37*
G36*
X300990D02*
X298500Y345844D01*
X296179Y344883D01*
X294186Y343354D01*
X292657Y341361D01*
X291696Y339040D01*
X291368Y336550D01*
X291696Y334060D01*
X292657Y331739D01*
X294186Y329746D01*
X296179Y328217D01*
X298500Y327256D01*
X300990Y326928D01*
X303480Y327256D01*
X305801Y328217D01*
X307794Y329746D01*
X309323Y331739D01*
X310284Y334060D01*
X310612Y336550D01*
X310284Y339040D01*
X309323Y341361D01*
X307794Y343354D01*
X305801Y344883D01*
X303480Y345844D01*
X300990Y346172D01*
D02*
G37*
G36*
X554990D02*
X552500Y345844D01*
X550179Y344883D01*
X548186Y343354D01*
X546657Y341361D01*
X545696Y339040D01*
X545368Y336550D01*
X545696Y334060D01*
X546657Y331739D01*
X548186Y329746D01*
X550179Y328217D01*
X552500Y327256D01*
X554990Y326928D01*
X557480Y327256D01*
X559801Y328217D01*
X561794Y329746D01*
X563323Y331739D01*
X564284Y334060D01*
X564612Y336550D01*
X564284Y339040D01*
X563323Y341361D01*
X561794Y343354D01*
X559801Y344883D01*
X557480Y345844D01*
X554990Y346172D01*
D02*
G37*
G36*
X580390D02*
X577900Y345844D01*
X575579Y344883D01*
X573586Y343354D01*
X572057Y341361D01*
X571096Y339040D01*
X570768Y336550D01*
X571096Y334060D01*
X572057Y331739D01*
X573586Y329746D01*
X575579Y328217D01*
X577900Y327256D01*
X580390Y326928D01*
X582880Y327256D01*
X585201Y328217D01*
X587194Y329746D01*
X588723Y331739D01*
X589684Y334060D01*
X590012Y336550D01*
X589684Y339040D01*
X588723Y341361D01*
X587194Y343354D01*
X585201Y344883D01*
X582880Y345844D01*
X580390Y346172D01*
D02*
G37*
G36*
X605790D02*
X603300Y345844D01*
X600979Y344883D01*
X598986Y343354D01*
X597457Y341361D01*
X596496Y339040D01*
X596168Y336550D01*
X596496Y334060D01*
X597457Y331739D01*
X598986Y329746D01*
X600979Y328217D01*
X603300Y327256D01*
X605790Y326928D01*
X608280Y327256D01*
X610601Y328217D01*
X612594Y329746D01*
X614123Y331739D01*
X615084Y334060D01*
X615412Y336550D01*
X615084Y339040D01*
X614123Y341361D01*
X612594Y343354D01*
X610601Y344883D01*
X608280Y345844D01*
X605790Y346172D01*
D02*
G37*
G36*
X529590D02*
X527100Y345844D01*
X524779Y344883D01*
X522786Y343354D01*
X521257Y341361D01*
X520296Y339040D01*
X519968Y336550D01*
X520296Y334060D01*
X521257Y331739D01*
X522786Y329746D01*
X524779Y328217D01*
X527100Y327256D01*
X529590Y326928D01*
X532080Y327256D01*
X534401Y328217D01*
X536394Y329746D01*
X537923Y331739D01*
X538884Y334060D01*
X539212Y336550D01*
X538884Y339040D01*
X537923Y341361D01*
X536394Y343354D01*
X534401Y344883D01*
X532080Y345844D01*
X529590Y346172D01*
D02*
G37*
G36*
X453390D02*
X450900Y345844D01*
X448579Y344883D01*
X446586Y343354D01*
X445057Y341361D01*
X444096Y339040D01*
X443768Y336550D01*
X444096Y334060D01*
X445057Y331739D01*
X446586Y329746D01*
X448579Y328217D01*
X450900Y327256D01*
X453390Y326928D01*
X455880Y327256D01*
X458201Y328217D01*
X460194Y329746D01*
X461723Y331739D01*
X462684Y334060D01*
X463012Y336550D01*
X462684Y339040D01*
X461723Y341361D01*
X460194Y343354D01*
X458201Y344883D01*
X455880Y345844D01*
X453390Y346172D01*
D02*
G37*
G36*
X478790D02*
X476300Y345844D01*
X473979Y344883D01*
X471986Y343354D01*
X470457Y341361D01*
X469496Y339040D01*
X469168Y336550D01*
X469496Y334060D01*
X470457Y331739D01*
X471986Y329746D01*
X473979Y328217D01*
X476300Y327256D01*
X478790Y326928D01*
X481280Y327256D01*
X483601Y328217D01*
X485594Y329746D01*
X487123Y331739D01*
X488084Y334060D01*
X488412Y336550D01*
X488084Y339040D01*
X487123Y341361D01*
X485594Y343354D01*
X483601Y344883D01*
X481280Y345844D01*
X478790Y346172D01*
D02*
G37*
G36*
X504190D02*
X501700Y345844D01*
X499379Y344883D01*
X497386Y343354D01*
X495857Y341361D01*
X494896Y339040D01*
X494568Y336550D01*
X494896Y334060D01*
X495857Y331739D01*
X497386Y329746D01*
X499379Y328217D01*
X501700Y327256D01*
X504190Y326928D01*
X506680Y327256D01*
X509001Y328217D01*
X510994Y329746D01*
X512523Y331739D01*
X513484Y334060D01*
X513812Y336550D01*
X513484Y339040D01*
X512523Y341361D01*
X510994Y343354D01*
X509001Y344883D01*
X506680Y345844D01*
X504190Y346172D01*
D02*
G37*
G36*
X36830Y318435D02*
X33958Y318057D01*
X31282Y316949D01*
X28985Y315185D01*
X27222Y312887D01*
X26113Y310212D01*
X25735Y307340D01*
X26113Y304468D01*
X27222Y301793D01*
X28985Y299495D01*
X31282Y297731D01*
X33958Y296623D01*
X36830Y296245D01*
X39702Y296623D01*
X42378Y297731D01*
X44675Y299495D01*
X46438Y301793D01*
X47547Y304468D01*
X47925Y307340D01*
X47547Y310212D01*
X46438Y312887D01*
X44675Y315185D01*
X42378Y316949D01*
X39702Y318057D01*
X36830Y318435D01*
D02*
G37*
G36*
X201490Y135076D02*
X198403Y134772D01*
X195434Y133871D01*
X192697Y132409D01*
X190299Y130441D01*
X188331Y128043D01*
X186868Y125306D01*
X185968Y122338D01*
X185664Y119250D01*
X185968Y116163D01*
X186868Y113194D01*
X188331Y110457D01*
X190299Y108059D01*
X192697Y106091D01*
X195434Y104628D01*
X198403Y103728D01*
X201490Y103424D01*
X204578Y103728D01*
X207546Y104628D01*
X210283Y106091D01*
X212681Y108059D01*
X214649Y110457D01*
X216112Y113194D01*
X217012Y116163D01*
X217316Y119250D01*
X217012Y122338D01*
X216112Y125306D01*
X214649Y128043D01*
X212681Y130441D01*
X210283Y132409D01*
X207546Y133871D01*
X204578Y134772D01*
X201490Y135076D01*
D02*
G37*
G36*
X781490D02*
X778402Y134772D01*
X775434Y133871D01*
X772697Y132409D01*
X770299Y130441D01*
X768331Y128043D01*
X766869Y125306D01*
X765968Y122338D01*
X765664Y119250D01*
X765968Y116163D01*
X766869Y113194D01*
X768331Y110457D01*
X770299Y108059D01*
X772697Y106091D01*
X775434Y104628D01*
X778402Y103728D01*
X781490Y103424D01*
X784577Y103728D01*
X787546Y104628D01*
X790283Y106091D01*
X792681Y108059D01*
X794649Y110457D01*
X796112Y113194D01*
X797012Y116163D01*
X797316Y119250D01*
X797012Y122338D01*
X796112Y125306D01*
X794649Y128043D01*
X792681Y130441D01*
X790283Y132409D01*
X787546Y133871D01*
X784577Y134772D01*
X781490Y135076D01*
D02*
G37*
G36*
X126490Y134071D02*
X123598Y133787D01*
X120818Y132943D01*
X118256Y131573D01*
X116010Y129730D01*
X114166Y127484D01*
X112797Y124922D01*
X111953Y122142D01*
X111669Y119250D01*
X111953Y116358D01*
X112797Y113578D01*
X114166Y111016D01*
X116010Y108770D01*
X118256Y106926D01*
X120818Y105557D01*
X123598Y104713D01*
X126490Y104429D01*
X129382Y104713D01*
X132162Y105557D01*
X134724Y106926D01*
X136970Y108770D01*
X138813Y111016D01*
X140183Y113578D01*
X141027Y116358D01*
X141311Y119250D01*
X141027Y122142D01*
X140183Y124922D01*
X138813Y127484D01*
X136970Y129730D01*
X134724Y131573D01*
X132162Y132943D01*
X129382Y133787D01*
X126490Y134071D01*
D02*
G37*
G36*
X295402Y85020D02*
X292922Y84693D01*
X290611Y83736D01*
X288626Y82213D01*
X287104Y80229D01*
X286146Y77918D01*
X285820Y75438D01*
X286146Y72958D01*
X287104Y70647D01*
X288626Y68663D01*
X290611Y67140D01*
X292922Y66182D01*
X295402Y65856D01*
X297882Y66182D01*
X300193Y67140D01*
X302177Y68663D01*
X303700Y70647D01*
X304657Y72958D01*
X304984Y75438D01*
X304657Y77918D01*
X303700Y80229D01*
X302177Y82213D01*
X300193Y83736D01*
X297882Y84693D01*
X295402Y85020D01*
D02*
G37*
G36*
X638810Y41332D02*
X636330Y41006D01*
X634019Y40048D01*
X632034Y38525D01*
X630512Y36541D01*
X629554Y34230D01*
X629228Y31750D01*
X629554Y29270D01*
X630512Y26959D01*
X632034Y24975D01*
X634019Y23452D01*
X636330Y22494D01*
X638810Y22168D01*
X641290Y22494D01*
X643601Y23452D01*
X645585Y24975D01*
X647108Y26959D01*
X648065Y29270D01*
X648392Y31750D01*
X648065Y34230D01*
X647108Y36541D01*
X645585Y38525D01*
X643601Y40048D01*
X641290Y41006D01*
X638810Y41332D01*
D02*
G37*
G36*
X134620Y75111D02*
X131116Y74766D01*
X127746Y73744D01*
X124641Y72084D01*
X121919Y69851D01*
X119686Y67129D01*
X118026Y64024D01*
X117004Y60654D01*
X116658Y57150D01*
X117004Y53646D01*
X118026Y50276D01*
X119686Y47171D01*
X121919Y44449D01*
X124641Y42216D01*
X127746Y40556D01*
X131116Y39534D01*
X134620Y39188D01*
X138124Y39534D01*
X141494Y40556D01*
X144599Y42216D01*
X147321Y44449D01*
X149554Y47171D01*
X151214Y50276D01*
X152236Y53646D01*
X152582Y57150D01*
X152236Y60654D01*
X151214Y64024D01*
X149554Y67129D01*
X147321Y69851D01*
X144599Y72084D01*
X141494Y73744D01*
X138124Y74766D01*
X134620Y75111D01*
D02*
G37*
G36*
X836676D02*
X833172Y74766D01*
X829802Y73744D01*
X826697Y72084D01*
X823975Y69851D01*
X821742Y67129D01*
X820082Y64024D01*
X819060Y60654D01*
X818715Y57150D01*
X819060Y53646D01*
X820082Y50276D01*
X821742Y47171D01*
X823975Y44449D01*
X826697Y42216D01*
X829802Y40556D01*
X833172Y39534D01*
X836676Y39188D01*
X840180Y39534D01*
X843550Y40556D01*
X846655Y42216D01*
X849377Y44449D01*
X851610Y47171D01*
X853270Y50276D01*
X854292Y53646D01*
X854638Y57150D01*
X854292Y60654D01*
X853270Y64024D01*
X851610Y67129D01*
X849377Y69851D01*
X846655Y72084D01*
X843550Y73744D01*
X840180Y74766D01*
X836676Y75111D01*
D02*
G37*
G36*
X538480Y267988D02*
X536529Y267600D01*
X534875Y266495D01*
X533770Y264841D01*
X533739Y264683D01*
X467360D01*
X465702Y264353D01*
X464296Y263414D01*
X454136Y253254D01*
X453197Y251848D01*
X452867Y250190D01*
Y250165D01*
X452490Y249601D01*
X452102Y247650D01*
X452490Y245699D01*
X453595Y244045D01*
X455249Y242940D01*
X455967Y242797D01*
X456385Y241419D01*
X447134Y232169D01*
X369778D01*
X365769Y236177D01*
X365778Y236220D01*
X365390Y238171D01*
X364285Y239825D01*
X362631Y240930D01*
X360680Y241318D01*
X358729Y240930D01*
X357075Y239825D01*
X355970Y238171D01*
X355582Y236220D01*
X355970Y234269D01*
X357075Y232615D01*
X358729Y231510D01*
X360680Y231122D01*
X360723Y231131D01*
X365777Y226077D01*
X366934Y225303D01*
X368300Y225031D01*
X448612D01*
X449978Y225303D01*
X451136Y226077D01*
X466404Y241344D01*
X468041Y241670D01*
X469695Y242775D01*
X470800Y244429D01*
X471188Y246380D01*
X470800Y248331D01*
X469695Y249985D01*
X468041Y251090D01*
X466359Y251425D01*
X465743Y252605D01*
X469155Y256017D01*
X535940D01*
X537598Y256347D01*
X539004Y257286D01*
X539766Y258048D01*
X540431Y258180D01*
X542085Y259285D01*
X543190Y260939D01*
X543578Y262890D01*
X543190Y264841D01*
X542085Y266495D01*
X540431Y267600D01*
X538480Y267988D01*
D02*
G37*
G36*
X36830Y293035D02*
X33958Y292657D01*
X31282Y291549D01*
X28985Y289785D01*
X27222Y287488D01*
X26113Y284812D01*
X25735Y281940D01*
X26113Y279068D01*
X27222Y276392D01*
X28985Y274095D01*
X31282Y272332D01*
X33958Y271223D01*
X36830Y270845D01*
X39702Y271223D01*
X42378Y272332D01*
X44675Y274095D01*
X46438Y276392D01*
X47547Y279068D01*
X47925Y281940D01*
X47547Y284812D01*
X46438Y287488D01*
X44675Y289785D01*
X42378Y291549D01*
X39702Y292657D01*
X36830Y293035D01*
D02*
G37*
G36*
X163816Y306088D02*
X161865Y305700D01*
X160211Y304595D01*
X159106Y302941D01*
X158718Y300990D01*
X158727Y300947D01*
X140015Y282236D01*
X139111Y282840D01*
X137160Y283228D01*
X135209Y282840D01*
X133555Y281735D01*
X132450Y280081D01*
X132062Y278130D01*
X132450Y276179D01*
X133555Y274525D01*
X135209Y273420D01*
X137160Y273032D01*
X139111Y273420D01*
X140765Y274525D01*
X140789Y274561D01*
X140956D01*
X142322Y274833D01*
X143479Y275607D01*
X144699Y276826D01*
X146006Y276337D01*
X146290Y274909D01*
X147395Y273255D01*
X149049Y272150D01*
X150055Y271950D01*
X151112Y270756D01*
X151500Y268806D01*
X152605Y267152D01*
X154259Y266047D01*
X155863Y265728D01*
X156229Y265640D01*
X157269Y264574D01*
X157487Y263479D01*
X158592Y261825D01*
X160246Y260720D01*
X162197Y260332D01*
X164148Y260720D01*
X165802Y261825D01*
X166907Y263479D01*
X167295Y265430D01*
X167287Y265473D01*
X180297Y278483D01*
X180340Y278475D01*
X182291Y278863D01*
X183945Y279968D01*
X185050Y281622D01*
X185438Y283573D01*
X185050Y285524D01*
X183945Y287178D01*
X182291Y288283D01*
X181196Y288501D01*
X180130Y289541D01*
X180042Y289907D01*
X179723Y291511D01*
X178618Y293165D01*
X176964Y294270D01*
X175014Y294658D01*
X173820Y295715D01*
X173620Y296721D01*
X172515Y298375D01*
X170861Y299480D01*
X169945Y299662D01*
X168914Y300990D01*
X168526Y302941D01*
X167421Y304595D01*
X165767Y305700D01*
X163816Y306088D01*
D02*
G37*
G36*
X711200Y241992D02*
X708720Y241665D01*
X706409Y240708D01*
X704425Y239185D01*
X702902Y237201D01*
X701945Y234890D01*
X701618Y232410D01*
X701945Y229930D01*
X702902Y227619D01*
X704425Y225634D01*
X706409Y224112D01*
X708720Y223155D01*
X711200Y222828D01*
X713680Y223155D01*
X715991Y224112D01*
X717975Y225634D01*
X719498Y227619D01*
X720455Y229930D01*
X720782Y232410D01*
X720455Y234890D01*
X719498Y237201D01*
X717975Y239185D01*
X715991Y240708D01*
X713680Y241665D01*
X711200Y241992D01*
D02*
G37*
G36*
X856490Y134071D02*
X853598Y133787D01*
X850818Y132943D01*
X848256Y131573D01*
X846010Y129730D01*
X844166Y127484D01*
X842797Y124922D01*
X841953Y122142D01*
X841669Y119250D01*
X841953Y116358D01*
X842797Y113578D01*
X844166Y111016D01*
X846010Y108770D01*
X848256Y106926D01*
X850818Y105557D01*
X853598Y104713D01*
X856490Y104429D01*
X859381Y104713D01*
X862162Y105557D01*
X864724Y106926D01*
X866970Y108770D01*
X868813Y111016D01*
X870183Y113578D01*
X871027Y116358D01*
X871311Y119250D01*
X871027Y122142D01*
X870183Y124922D01*
X868813Y127484D01*
X866970Y129730D01*
X864724Y131573D01*
X862162Y132943D01*
X859381Y133787D01*
X856490Y134071D01*
D02*
G37*
G36*
X576580Y160038D02*
X574629Y159650D01*
X572975Y158545D01*
X571870Y156891D01*
X571482Y154940D01*
Y130810D01*
X571870Y128859D01*
X572975Y127205D01*
X574629Y126100D01*
X576580Y125712D01*
X578531Y126100D01*
X580185Y127205D01*
X581290Y128859D01*
X581678Y130810D01*
Y154940D01*
X581290Y156891D01*
X580185Y158545D01*
X578531Y159650D01*
X576580Y160038D01*
D02*
G37*
G36*
X551530Y277798D02*
X549579Y277410D01*
X547925Y276305D01*
X546820Y274651D01*
X546432Y272700D01*
X546820Y270749D01*
X547452Y269804D01*
Y202699D01*
X543141Y198388D01*
X532486D01*
X531541Y199020D01*
X529590Y199408D01*
X527639Y199020D01*
X525985Y197915D01*
X524880Y196261D01*
X524492Y194310D01*
X524821Y192658D01*
X524118Y191388D01*
X520499D01*
X519348Y192539D01*
X519448Y193040D01*
X519060Y194991D01*
X517955Y196645D01*
X516301Y197750D01*
X514350Y198138D01*
X512399Y197750D01*
X510745Y196645D01*
X509640Y194991D01*
X509252Y193040D01*
X509640Y191089D01*
X510745Y189435D01*
X511385Y189008D01*
X511466Y188886D01*
X515926Y184426D01*
X515926Y184426D01*
X517249Y183542D01*
X518810Y183232D01*
X518810Y183232D01*
X547990D01*
X547990Y183232D01*
X549551Y183542D01*
X550874Y184426D01*
X561684Y195236D01*
X561684Y195236D01*
X562568Y196559D01*
X562878Y198120D01*
Y262534D01*
X563510Y263479D01*
X563898Y265430D01*
X563510Y267381D01*
X562405Y269035D01*
X560751Y270140D01*
X558800Y270528D01*
X557334Y270236D01*
X557267Y270268D01*
X556368Y271167D01*
X556336Y271234D01*
X556628Y272700D01*
X556240Y274651D01*
X555135Y276305D01*
X553481Y277410D01*
X551530Y277798D01*
D02*
G37*
G36*
X928370Y390582D02*
X925890Y390256D01*
X923579Y389298D01*
X921594Y387775D01*
X920072Y385791D01*
X919115Y383480D01*
X918788Y381000D01*
X919115Y378520D01*
X920072Y376209D01*
X921594Y374225D01*
X923579Y372702D01*
X925890Y371744D01*
X928370Y371418D01*
X930850Y371744D01*
X933161Y372702D01*
X935145Y374225D01*
X936668Y376209D01*
X937626Y378520D01*
X937952Y381000D01*
X937626Y383480D01*
X936668Y385791D01*
X935145Y387775D01*
X933161Y389298D01*
X930850Y390256D01*
X928370Y390582D01*
D02*
G37*
G36*
X910590Y392448D02*
X908639Y392060D01*
X906985Y390955D01*
X906232Y389827D01*
X904788D01*
X904035Y390955D01*
X902381Y392060D01*
X900430Y392448D01*
X898479Y392060D01*
X896825Y390955D01*
X896072Y389827D01*
X894628D01*
X893875Y390955D01*
X892221Y392060D01*
X890270Y392448D01*
X888319Y392060D01*
X886665Y390955D01*
X885560Y389301D01*
X885172Y387350D01*
X885560Y385399D01*
X886665Y383745D01*
Y383335D01*
X885560Y381681D01*
X885172Y379730D01*
X885560Y377779D01*
X886665Y376125D01*
Y375715D01*
X885560Y374061D01*
X885172Y372110D01*
X885560Y370159D01*
X886665Y368505D01*
X888319Y367400D01*
X890270Y367012D01*
X892221Y367400D01*
X893875Y368505D01*
X894628Y369633D01*
X896072D01*
X896825Y368505D01*
X898479Y367400D01*
X900430Y367012D01*
X902381Y367400D01*
X904035Y368505D01*
X904788Y369633D01*
X906232D01*
X906985Y368505D01*
X908639Y367400D01*
X910590Y367012D01*
X912541Y367400D01*
X914195Y368505D01*
X915300Y370159D01*
X915688Y372110D01*
X915300Y374061D01*
X914195Y375715D01*
Y376125D01*
X915300Y377779D01*
X915688Y379730D01*
X915300Y381681D01*
X914195Y383335D01*
Y383745D01*
X915300Y385399D01*
X915688Y387350D01*
X915300Y389301D01*
X914195Y390955D01*
X912541Y392060D01*
X910590Y392448D01*
D02*
G37*
G36*
X93250Y624869D02*
X92079Y624636D01*
X91087Y623973D01*
X90424Y622981D01*
X90191Y621810D01*
X90191Y395810D01*
X90424Y394640D01*
X91087Y393647D01*
X92079Y392984D01*
X93250Y392752D01*
X696197Y392751D01*
X696461Y392430D01*
Y367030D01*
Y351790D01*
X696616Y351010D01*
X697058Y350348D01*
X697720Y349906D01*
X698500Y349751D01*
X742950D01*
X743730Y349906D01*
X744392Y350348D01*
X744834Y351010D01*
X744989Y351790D01*
Y364991D01*
X774834D01*
X775152Y363721D01*
X772697Y362409D01*
X770299Y360441D01*
X768331Y358043D01*
X766869Y355306D01*
X765968Y352337D01*
X765664Y349250D01*
X765968Y346162D01*
X766869Y343194D01*
X768331Y340457D01*
X770299Y338059D01*
X772697Y336091D01*
X775434Y334628D01*
X778402Y333728D01*
X781490Y333424D01*
X784577Y333728D01*
X787546Y334628D01*
X790283Y336091D01*
X792681Y338059D01*
X794649Y340457D01*
X796112Y343194D01*
X797012Y346162D01*
X797316Y349250D01*
X797012Y352337D01*
X796112Y355306D01*
X794649Y358043D01*
X792681Y360441D01*
X790283Y362409D01*
X787828Y363721D01*
X788147Y364991D01*
X853193D01*
X853382Y363721D01*
X850818Y362943D01*
X848256Y361573D01*
X846010Y359730D01*
X844166Y357484D01*
X842797Y354922D01*
X841953Y352141D01*
X841669Y349250D01*
X841953Y346358D01*
X842797Y343578D01*
X844166Y341016D01*
X846010Y338770D01*
X848256Y336926D01*
X850818Y335557D01*
X853598Y334713D01*
X856490Y334429D01*
X859381Y334713D01*
X862162Y335557D01*
X864724Y336926D01*
X866970Y338770D01*
X868813Y341016D01*
X870183Y343578D01*
X871027Y346358D01*
X871311Y349250D01*
X871027Y352141D01*
X870183Y354922D01*
X868813Y357484D01*
X866970Y359730D01*
X864724Y361573D01*
X862162Y362943D01*
X859598Y363721D01*
X859787Y364991D01*
X867410D01*
X868190Y365146D01*
X868852Y365588D01*
X869294Y366250D01*
X869449Y367030D01*
Y391481D01*
X870586Y392751D01*
X884250D01*
X885421Y392984D01*
X886413Y393647D01*
X887076Y394639D01*
X887309Y395810D01*
X887309Y621810D01*
X887076Y622980D01*
X886413Y623973D01*
X885421Y624636D01*
X884250Y624869D01*
X93250Y624869D01*
D02*
G37*
G36*
X656590Y371572D02*
X654100Y371244D01*
X651779Y370283D01*
X649786Y368754D01*
X648257Y366761D01*
X647296Y364440D01*
X646968Y361950D01*
X647296Y359460D01*
X648257Y357139D01*
X649786Y355146D01*
X651779Y353617D01*
X654100Y352656D01*
X656590Y352328D01*
X659080Y352656D01*
X661401Y353617D01*
X663394Y355146D01*
X664923Y357139D01*
X665884Y359460D01*
X666212Y361950D01*
X665884Y364440D01*
X664923Y366761D01*
X663394Y368754D01*
X661401Y370283D01*
X659080Y371244D01*
X656590Y371572D01*
D02*
G37*
G36*
X554990D02*
X552500Y371244D01*
X550179Y370283D01*
X548186Y368754D01*
X546657Y366761D01*
X545696Y364440D01*
X545368Y361950D01*
X545696Y359460D01*
X546657Y357139D01*
X548186Y355146D01*
X550179Y353617D01*
X552500Y352656D01*
X554990Y352328D01*
X557480Y352656D01*
X559801Y353617D01*
X561794Y355146D01*
X563323Y357139D01*
X564284Y359460D01*
X564612Y361950D01*
X564284Y364440D01*
X563323Y366761D01*
X561794Y368754D01*
X559801Y370283D01*
X557480Y371244D01*
X554990Y371572D01*
D02*
G37*
G36*
X605790D02*
X603300Y371244D01*
X600979Y370283D01*
X598986Y368754D01*
X597457Y366761D01*
X596496Y364440D01*
X596168Y361950D01*
X596496Y359460D01*
X597457Y357139D01*
X598986Y355146D01*
X600979Y353617D01*
X603300Y352656D01*
X605790Y352328D01*
X608280Y352656D01*
X610601Y353617D01*
X612594Y355146D01*
X614123Y357139D01*
X615084Y359460D01*
X615412Y361950D01*
X615084Y364440D01*
X614123Y366761D01*
X612594Y368754D01*
X610601Y370283D01*
X608280Y371244D01*
X605790Y371572D01*
D02*
G37*
G36*
X631190D02*
X628700Y371244D01*
X626379Y370283D01*
X624386Y368754D01*
X622857Y366761D01*
X621896Y364440D01*
X621568Y361950D01*
X621896Y359460D01*
X622857Y357139D01*
X624386Y355146D01*
X626379Y353617D01*
X628700Y352656D01*
X631190Y352328D01*
X633680Y352656D01*
X636001Y353617D01*
X637994Y355146D01*
X639523Y357139D01*
X640484Y359460D01*
X640812Y361950D01*
X640484Y364440D01*
X639523Y366761D01*
X637994Y368754D01*
X636001Y370283D01*
X633680Y371244D01*
X631190Y371572D01*
D02*
G37*
G36*
X933450Y469322D02*
X930970Y468996D01*
X928659Y468038D01*
X926674Y466515D01*
X925152Y464531D01*
X924194Y462220D01*
X923868Y459740D01*
X924194Y457260D01*
X925152Y454949D01*
X926674Y452965D01*
X928659Y451442D01*
X930970Y450485D01*
X933450Y450158D01*
X935930Y450485D01*
X938241Y451442D01*
X940225Y452965D01*
X941748Y454949D01*
X942706Y457260D01*
X943032Y459740D01*
X942706Y462220D01*
X941748Y464531D01*
X940225Y466515D01*
X938241Y468038D01*
X935930Y468996D01*
X933450Y469322D01*
D02*
G37*
G36*
X134620Y711127D02*
X131116Y710782D01*
X127746Y709760D01*
X124641Y708100D01*
X121919Y705867D01*
X119686Y703145D01*
X118026Y700040D01*
X117004Y696670D01*
X116658Y693166D01*
X117004Y689662D01*
X118026Y686292D01*
X119686Y683187D01*
X121919Y680465D01*
X124641Y678232D01*
X127746Y676572D01*
X131116Y675550D01*
X134620Y675204D01*
X138124Y675550D01*
X141494Y676572D01*
X144599Y678232D01*
X147321Y680465D01*
X149554Y683187D01*
X151214Y686292D01*
X152236Y689662D01*
X152582Y693166D01*
X152236Y696670D01*
X151214Y700040D01*
X149554Y703145D01*
X147321Y705867D01*
X144599Y708100D01*
X141494Y709760D01*
X138124Y710782D01*
X134620Y711127D01*
D02*
G37*
G36*
X836676Y711128D02*
X833172Y710782D01*
X829802Y709760D01*
X826697Y708101D01*
X823975Y705867D01*
X821742Y703145D01*
X820082Y700040D01*
X819060Y696670D01*
X818715Y693166D01*
X819060Y689662D01*
X820082Y686292D01*
X821742Y683187D01*
X823975Y680465D01*
X826697Y678232D01*
X829802Y676572D01*
X833172Y675550D01*
X836676Y675205D01*
X840180Y675550D01*
X843550Y676572D01*
X846655Y678232D01*
X849377Y680465D01*
X851610Y683187D01*
X853270Y686292D01*
X854292Y689662D01*
X854638Y693166D01*
X854292Y696670D01*
X853270Y700040D01*
X851610Y703145D01*
X849377Y705867D01*
X846655Y708101D01*
X843550Y709760D01*
X840180Y710782D01*
X836676Y711128D01*
D02*
G37*
G36*
X71120Y452812D02*
X68640Y452486D01*
X66329Y451528D01*
X64345Y450005D01*
X62822Y448021D01*
X61865Y445710D01*
X61538Y443230D01*
X61865Y440750D01*
X62822Y438439D01*
X64345Y436455D01*
X66329Y434932D01*
X68640Y433974D01*
X71120Y433648D01*
X73600Y433974D01*
X75911Y434932D01*
X77895Y436455D01*
X79418Y438439D01*
X80375Y440750D01*
X80702Y443230D01*
X80375Y445710D01*
X79418Y448021D01*
X77895Y450005D01*
X75911Y451528D01*
X73600Y452486D01*
X71120Y452812D01*
D02*
G37*
G36*
X13970Y427412D02*
X11490Y427085D01*
X9179Y426128D01*
X7194Y424605D01*
X5672Y422621D01*
X4715Y420310D01*
X4388Y417830D01*
X4715Y415350D01*
X5672Y413039D01*
X7194Y411054D01*
X9179Y409532D01*
X11490Y408574D01*
X13970Y408248D01*
X16450Y408574D01*
X18761Y409532D01*
X20745Y411054D01*
X22268Y413039D01*
X23226Y415350D01*
X23552Y417830D01*
X23226Y420310D01*
X22268Y422621D01*
X20745Y424605D01*
X18761Y426128D01*
X16450Y427085D01*
X13970Y427412D01*
D02*
G37*
G36*
X71120D02*
X68640Y427085D01*
X66329Y426128D01*
X64345Y424605D01*
X62822Y422621D01*
X61865Y420310D01*
X61538Y417830D01*
X61865Y415350D01*
X62822Y413039D01*
X64345Y411054D01*
X66329Y409532D01*
X68640Y408574D01*
X71120Y408248D01*
X73600Y408574D01*
X75911Y409532D01*
X77895Y411054D01*
X79418Y413039D01*
X80375Y415350D01*
X80702Y417830D01*
X80375Y420310D01*
X79418Y422621D01*
X77895Y424605D01*
X75911Y426128D01*
X73600Y427085D01*
X71120Y427412D01*
D02*
G37*
G36*
X13970Y452812D02*
X11490Y452486D01*
X9179Y451528D01*
X7194Y450005D01*
X5672Y448021D01*
X4715Y445710D01*
X4388Y443230D01*
X4715Y440750D01*
X5672Y438439D01*
X7194Y436455D01*
X9179Y434932D01*
X11490Y433974D01*
X13970Y433648D01*
X16450Y433974D01*
X18761Y434932D01*
X20745Y436455D01*
X22268Y438439D01*
X23226Y440750D01*
X23552Y443230D01*
X23226Y445710D01*
X22268Y448021D01*
X20745Y450005D01*
X18761Y451528D01*
X16450Y452486D01*
X13970Y452812D01*
D02*
G37*
G36*
X529590Y371572D02*
X527100Y371244D01*
X524779Y370283D01*
X522786Y368754D01*
X521257Y366761D01*
X520296Y364440D01*
X519968Y361950D01*
X520296Y359460D01*
X521257Y357139D01*
X522786Y355146D01*
X524779Y353617D01*
X527100Y352656D01*
X529590Y352328D01*
X532080Y352656D01*
X534401Y353617D01*
X536394Y355146D01*
X537923Y357139D01*
X538884Y359460D01*
X539212Y361950D01*
X538884Y364440D01*
X537923Y366761D01*
X536394Y368754D01*
X534401Y370283D01*
X532080Y371244D01*
X529590Y371572D01*
D02*
G37*
G36*
X201490Y365076D02*
X198403Y364772D01*
X195434Y363871D01*
X192697Y362409D01*
X190299Y360441D01*
X188331Y358043D01*
X186868Y355306D01*
X185968Y352337D01*
X185664Y349250D01*
X185968Y346162D01*
X186868Y343194D01*
X188331Y340457D01*
X190299Y338059D01*
X192697Y336091D01*
X195434Y334628D01*
X198403Y333728D01*
X201490Y333424D01*
X204578Y333728D01*
X207546Y334628D01*
X210283Y336091D01*
X212681Y338059D01*
X214649Y340457D01*
X216112Y343194D01*
X217012Y346162D01*
X217316Y349250D01*
X217012Y352337D01*
X216112Y355306D01*
X214649Y358043D01*
X212681Y360441D01*
X210283Y362409D01*
X207546Y363871D01*
X204578Y364772D01*
X201490Y365076D01*
D02*
G37*
G36*
X126490Y364071D02*
X123598Y363787D01*
X120818Y362943D01*
X118256Y361573D01*
X116010Y359730D01*
X114166Y357484D01*
X112797Y354922D01*
X111953Y352141D01*
X111669Y349250D01*
X111953Y346358D01*
X112797Y343578D01*
X114166Y341016D01*
X116010Y338770D01*
X118256Y336926D01*
X120818Y335557D01*
X123598Y334713D01*
X126490Y334429D01*
X129382Y334713D01*
X132162Y335557D01*
X134724Y336926D01*
X136970Y338770D01*
X138813Y341016D01*
X140183Y343578D01*
X141027Y346358D01*
X141311Y349250D01*
X141027Y352141D01*
X140183Y354922D01*
X138813Y357484D01*
X136970Y359730D01*
X134724Y361573D01*
X132162Y362943D01*
X129382Y363787D01*
X126490Y364071D01*
D02*
G37*
G36*
X250190Y371572D02*
X247700Y371244D01*
X245379Y370283D01*
X243386Y368754D01*
X241857Y366761D01*
X240896Y364440D01*
X240568Y361950D01*
X240896Y359460D01*
X241857Y357139D01*
X243386Y355146D01*
X245379Y353617D01*
X247700Y352656D01*
X250190Y352328D01*
X252680Y352656D01*
X255001Y353617D01*
X256994Y355146D01*
X258523Y357139D01*
X259484Y359460D01*
X259812Y361950D01*
X259484Y364440D01*
X258523Y366761D01*
X256994Y368754D01*
X255001Y370283D01*
X252680Y371244D01*
X250190Y371572D01*
D02*
G37*
G36*
X742330Y346090D02*
X723250D01*
Y327010D01*
X742330D01*
Y346090D01*
D02*
G37*
G36*
X656590Y346172D02*
X654100Y345844D01*
X651779Y344883D01*
X649786Y343354D01*
X648257Y341361D01*
X647296Y339040D01*
X646968Y336550D01*
X647296Y334060D01*
X648257Y331739D01*
X649786Y329746D01*
X651779Y328217D01*
X654100Y327256D01*
X656590Y326928D01*
X659080Y327256D01*
X661401Y328217D01*
X663394Y329746D01*
X664923Y331739D01*
X665884Y334060D01*
X666212Y336550D01*
X665884Y339040D01*
X664923Y341361D01*
X663394Y343354D01*
X661401Y344883D01*
X659080Y345844D01*
X656590Y346172D01*
D02*
G37*
G36*
X681990D02*
X679500Y345844D01*
X677179Y344883D01*
X675186Y343354D01*
X673657Y341361D01*
X672696Y339040D01*
X672368Y336550D01*
X672696Y334060D01*
X673657Y331739D01*
X675186Y329746D01*
X677179Y328217D01*
X679500Y327256D01*
X681990Y326928D01*
X684480Y327256D01*
X686801Y328217D01*
X688794Y329746D01*
X690323Y331739D01*
X691284Y334060D01*
X691612Y336550D01*
X691284Y339040D01*
X690323Y341361D01*
X688794Y343354D01*
X686801Y344883D01*
X684480Y345844D01*
X681990Y346172D01*
D02*
G37*
G36*
X707390D02*
X704900Y345844D01*
X702579Y344883D01*
X700586Y343354D01*
X699057Y341361D01*
X698096Y339040D01*
X697768Y336550D01*
X698096Y334060D01*
X699057Y331739D01*
X700586Y329746D01*
X702579Y328217D01*
X704900Y327256D01*
X707390Y326928D01*
X709880Y327256D01*
X712201Y328217D01*
X714194Y329746D01*
X715723Y331739D01*
X716684Y334060D01*
X717012Y336550D01*
X716684Y339040D01*
X715723Y341361D01*
X714194Y343354D01*
X712201Y344883D01*
X709880Y345844D01*
X707390Y346172D01*
D02*
G37*
G36*
X427990Y371572D02*
X425500Y371244D01*
X423179Y370283D01*
X421186Y368754D01*
X419657Y366761D01*
X418696Y364440D01*
X418368Y361950D01*
X418696Y359460D01*
X419657Y357139D01*
X421186Y355146D01*
X423179Y353617D01*
X425500Y352656D01*
X427990Y352328D01*
X430480Y352656D01*
X432801Y353617D01*
X434794Y355146D01*
X436323Y357139D01*
X437284Y359460D01*
X437612Y361950D01*
X437284Y364440D01*
X436323Y366761D01*
X434794Y368754D01*
X432801Y370283D01*
X430480Y371244D01*
X427990Y371572D01*
D02*
G37*
G36*
X453390D02*
X450900Y371244D01*
X448579Y370283D01*
X446586Y368754D01*
X445057Y366761D01*
X444096Y364440D01*
X443768Y361950D01*
X444096Y359460D01*
X445057Y357139D01*
X446586Y355146D01*
X448579Y353617D01*
X450900Y352656D01*
X453390Y352328D01*
X455880Y352656D01*
X458201Y353617D01*
X460194Y355146D01*
X461723Y357139D01*
X462684Y359460D01*
X463012Y361950D01*
X462684Y364440D01*
X461723Y366761D01*
X460194Y368754D01*
X458201Y370283D01*
X455880Y371244D01*
X453390Y371572D01*
D02*
G37*
G36*
X478790D02*
X476300Y371244D01*
X473979Y370283D01*
X471986Y368754D01*
X470457Y366761D01*
X469496Y364440D01*
X469168Y361950D01*
X469496Y359460D01*
X470457Y357139D01*
X471986Y355146D01*
X473979Y353617D01*
X476300Y352656D01*
X478790Y352328D01*
X481280Y352656D01*
X483601Y353617D01*
X485594Y355146D01*
X487123Y357139D01*
X488084Y359460D01*
X488412Y361950D01*
X488084Y364440D01*
X487123Y366761D01*
X485594Y368754D01*
X483601Y370283D01*
X481280Y371244D01*
X478790Y371572D01*
D02*
G37*
G36*
X402590D02*
X400100Y371244D01*
X397779Y370283D01*
X395786Y368754D01*
X394257Y366761D01*
X393296Y364440D01*
X392968Y361950D01*
X393296Y359460D01*
X394257Y357139D01*
X395786Y355146D01*
X397779Y353617D01*
X400100Y352656D01*
X402590Y352328D01*
X405080Y352656D01*
X407401Y353617D01*
X409394Y355146D01*
X410923Y357139D01*
X411884Y359460D01*
X412212Y361950D01*
X411884Y364440D01*
X410923Y366761D01*
X409394Y368754D01*
X407401Y370283D01*
X405080Y371244D01*
X402590Y371572D01*
D02*
G37*
G36*
X275590D02*
X273100Y371244D01*
X270779Y370283D01*
X268786Y368754D01*
X267257Y366761D01*
X266296Y364440D01*
X265968Y361950D01*
X266296Y359460D01*
X267257Y357139D01*
X268786Y355146D01*
X270779Y353617D01*
X273100Y352656D01*
X275590Y352328D01*
X278080Y352656D01*
X280401Y353617D01*
X282394Y355146D01*
X283923Y357139D01*
X284884Y359460D01*
X285212Y361950D01*
X284884Y364440D01*
X283923Y366761D01*
X282394Y368754D01*
X280401Y370283D01*
X278080Y371244D01*
X275590Y371572D01*
D02*
G37*
G36*
X300990D02*
X298500Y371244D01*
X296179Y370283D01*
X294186Y368754D01*
X292657Y366761D01*
X291696Y364440D01*
X291368Y361950D01*
X291696Y359460D01*
X292657Y357139D01*
X294186Y355146D01*
X296179Y353617D01*
X298500Y352656D01*
X300990Y352328D01*
X303480Y352656D01*
X305801Y353617D01*
X307794Y355146D01*
X309323Y357139D01*
X310284Y359460D01*
X310612Y361950D01*
X310284Y364440D01*
X309323Y366761D01*
X307794Y368754D01*
X305801Y370283D01*
X303480Y371244D01*
X300990Y371572D01*
D02*
G37*
G36*
X351790D02*
X349300Y371244D01*
X346979Y370283D01*
X344986Y368754D01*
X343457Y366761D01*
X342496Y364440D01*
X342168Y361950D01*
X342496Y359460D01*
X343457Y357139D01*
X344986Y355146D01*
X346979Y353617D01*
X349300Y352656D01*
X351790Y352328D01*
X354280Y352656D01*
X356601Y353617D01*
X358594Y355146D01*
X360123Y357139D01*
X361084Y359460D01*
X361412Y361950D01*
X361084Y364440D01*
X360123Y366761D01*
X358594Y368754D01*
X356601Y370283D01*
X354280Y371244D01*
X351790Y371572D01*
D02*
G37*
%LPD*%
D24*
X576580Y130810D02*
Y154940D01*
D26*
X137160Y278130D02*
X140956D01*
X151000Y276860D02*
X168910Y294770D01*
X156210Y270757D02*
X175013Y289560D01*
X162197Y265430D02*
X180340Y283573D01*
X140956Y278130D02*
X163816Y300990D01*
X360680Y236220D02*
X368300Y228600D01*
X466090Y246078D02*
Y246380D01*
X448612Y228600D02*
X466090Y246078D01*
X368300Y228600D02*
X448612D01*
D27*
X557530Y264160D02*
X558800Y265430D01*
Y198120D02*
Y265430D01*
X551530Y201010D02*
Y272700D01*
X544830Y194310D02*
X551530Y201010D01*
X518810Y187310D02*
X547990D01*
X558800Y198120D01*
X529590Y194310D02*
X544830D01*
X514350Y191770D02*
X518810Y187310D01*
X514350Y191770D02*
Y193040D01*
D28*
X457200Y250190D02*
X467360Y260350D01*
X457200Y247650D02*
Y250190D01*
X467360Y260350D02*
X535940D01*
X538480Y262890D01*
D36*
X782955Y379730D02*
D03*
D59*
X71120Y443230D02*
D03*
Y417830D02*
D03*
X13970Y443230D02*
D03*
Y417830D02*
D03*
X295402Y75438D02*
D03*
X933450Y459740D02*
D03*
X711200Y232410D02*
D03*
X638810Y31750D02*
D03*
X227330Y24130D02*
D03*
X745490D02*
D03*
X928370Y381000D02*
D03*
D60*
X71120Y392430D02*
D03*
X13970D02*
D03*
D61*
X36830Y281940D02*
D03*
Y307340D02*
D03*
Y332740D02*
D03*
D62*
Y358140D02*
D03*
D63*
X201490Y349250D02*
D03*
Y119250D02*
D03*
X781490Y349250D02*
D03*
Y119250D02*
D03*
D64*
X250190Y361950D02*
D03*
Y336550D02*
D03*
X275590Y361950D02*
D03*
Y336550D02*
D03*
X300990Y361950D02*
D03*
Y336550D02*
D03*
X326390Y361950D02*
D03*
Y336550D02*
D03*
X351790Y361950D02*
D03*
Y336550D02*
D03*
X377190Y361950D02*
D03*
Y336550D02*
D03*
X402590Y361950D02*
D03*
Y336550D02*
D03*
X427990Y361950D02*
D03*
Y336550D02*
D03*
X453390Y361950D02*
D03*
Y336550D02*
D03*
X478790Y361950D02*
D03*
Y336550D02*
D03*
X504190Y361950D02*
D03*
Y336550D02*
D03*
X529590Y361950D02*
D03*
Y336550D02*
D03*
X554990Y361950D02*
D03*
Y336550D02*
D03*
X580390Y361950D02*
D03*
Y336550D02*
D03*
X605790Y361950D02*
D03*
Y336550D02*
D03*
X631190Y361950D02*
D03*
Y336550D02*
D03*
X656590Y361950D02*
D03*
Y336550D02*
D03*
X681990Y361950D02*
D03*
Y336550D02*
D03*
X707390Y361950D02*
D03*
Y336550D02*
D03*
X732790Y361950D02*
D03*
D65*
Y336550D02*
D03*
D66*
X836676Y693166D02*
D03*
Y57150D02*
D03*
X134620D02*
D03*
Y693166D02*
D03*
D67*
X137160Y278130D02*
D03*
X151000Y276860D02*
D03*
X156210Y270757D02*
D03*
X162197Y265430D02*
D03*
X683260Y240030D02*
D03*
X30480Y550672D02*
D03*
Y534416D02*
D03*
Y518160D02*
D03*
Y501904D02*
D03*
Y485648D02*
D03*
Y469392D02*
D03*
X44450Y469900D02*
D03*
Y486156D02*
D03*
Y502412D02*
D03*
Y518668D02*
D03*
Y534924D02*
D03*
Y551180D02*
D03*
X118110Y237490D02*
D03*
X543560Y222250D02*
D03*
X487680Y171450D02*
D03*
X504190D02*
D03*
X875030Y177800D02*
D03*
X880110Y317500D02*
D03*
Y323850D02*
D03*
X867410Y214630D02*
D03*
X847090D02*
D03*
X923290Y279400D02*
D03*
Y270510D02*
D03*
X609600Y201930D02*
D03*
X593090D02*
D03*
X576580Y154940D02*
D03*
Y130810D02*
D03*
X551530Y272700D02*
D03*
X558800Y265430D02*
D03*
X429260Y171450D02*
D03*
X279400Y295910D02*
D03*
Y286385D02*
D03*
Y276860D02*
D03*
Y267335D02*
D03*
Y257810D02*
D03*
X923290Y261620D02*
D03*
Y252730D02*
D03*
X948690Y322580D02*
D03*
X956310D02*
D03*
X543560Y205740D02*
D03*
X529590Y194310D02*
D03*
X52070Y243840D02*
D03*
X64770D02*
D03*
Y237490D02*
D03*
X19050Y175260D02*
D03*
X36830D02*
D03*
X163816Y300990D02*
D03*
X378460Y238760D02*
D03*
Y255270D02*
D03*
X842010Y176530D02*
D03*
X847090Y252730D02*
D03*
X924560Y160020D02*
D03*
Y182880D02*
D03*
X982980Y165100D02*
D03*
Y147320D02*
D03*
X904240Y128270D02*
D03*
X107950Y311150D02*
D03*
X649840Y210420D02*
D03*
X850900Y281940D02*
D03*
X180340Y283573D02*
D03*
X175013Y289560D02*
D03*
X168910Y294770D02*
D03*
X890270Y387350D02*
D03*
X900430D02*
D03*
X910590D02*
D03*
Y379730D02*
D03*
X900430D02*
D03*
X890270D02*
D03*
X910590Y372110D02*
D03*
X900430D02*
D03*
X890270D02*
D03*
X360680Y236220D02*
D03*
X466090Y246380D02*
D03*
X449580Y238760D02*
D03*
X538480Y262890D02*
D03*
X457200Y247650D02*
D03*
X514350Y193040D02*
D03*
D68*
X720725Y372110D02*
D03*
M02*
