M48
;Layer_Color=9474304
;FILE_FORMAT=4:4
METRIC,LZ
;TYPE=PLATED
T1F00S00C0.4000
T2F00S00C0.7500
T3F00S00C0.9000
T4F00S00C1.0000
T5F00S00C3.1750
;TYPE=NON_PLATED
T6F00S00C2.5000
T7F00S00C2.5500
%
T01
X0084201Y0017653
X0087503Y001778
X0086741Y0021463
X0084709
Y0025273
X008509Y0028194
X0088011Y003175
Y0032385
X0089027Y0037211
Y0037973
Y0038735
X0090043
Y0037973
Y0037211
X0091059
Y0037973
Y0038735
X0094869Y0032258
X0095631
X0092329Y002794
Y0027051
Y0026162
Y0025273
X0092456Y0018288
Y0016002
X0090424Y0012827
X0098298Y0014732
Y001651
X0068326Y0024003
X0064984Y0021042
X006096Y0020193
X0059309
X0054356Y0020574
Y0022225
X0052959Y0019431
X0051435Y0019304
X0050419Y0017145
X0048768
X0042926
X0044958Y0023876
X004572Y0024765
X0046609Y0024638
X0053848Y0026289
X0055153Y002727
X005588Y0026543
X0057658Y0015494
Y0013081
X0037846Y0023876
Y0025527
X0036068Y0023622
X002794Y0025781
Y00267335
Y0027686
Y00286385
Y0029591
X00175013Y0028956
X0018034Y00283573
X0016891Y0029477
X00163816Y0030099
X00151Y0027686
X0015621Y00270757
X00162197Y0026543
X0013716Y0027813
X0011811Y0023749
X0006477
Y0024384
X0005207
X0003683Y0017526
X0001905
X0010795Y0031115
X0004445Y004699
X0003048Y00469392
Y00485648
X0004445Y00486156
Y00502412
X0003048Y00501904
Y0051816
X0004445Y00518668
Y00534924
X0003048Y00534416
Y00550672
X0004445Y0055118
T02
X0074549Y0002413
X007112Y0023241
X0092837Y00381
X0063881Y0003175
X00295402Y00075438
X0022733Y0002413
X0093345Y0045974
T03
X0003683Y0028194
Y0030734
Y0033274
Y0035814
X0001397Y0039243
X0007112
Y0041783
Y0044323
X0001397
Y0041783
T04
X0070739Y0033655
Y0036195
X0073279
Y0033655
X0068199
X0065659
X0063119
X0060579
X0058039
X0055499
X0052959
X0050419
X0047879
X0045339
X0042799
X0040259
X0037719
X0035179
X0032639
X0030099
Y0036195
X0032639
X0035179
X0037719
X0040259
X0042799
X0045339
X0047879
X0050419
X0052959
X0055499
X0058039
X0060579
X0063119
X0065659
X0068199
X0027559
X0025019
Y0033655
X0027559
T05
X00836676Y0005715
X0013462
Y00693166
X00836676Y00693166
T06
X0078149Y0011925
Y0034925
X0020149
Y0011925
T07
X0085649Y0011925
Y0034925
X0012649
Y0011925
M30
