G04 Layer_Color=255*
%FSLAX44Y44*%
%MOMM*%
G71*
G01*
G75*
%ADD59C,1.5000*%
%ADD60R,1.5000X1.5000*%
%ADD61C,1.8000*%
%ADD62R,1.8000X1.8000*%
%ADD63C,2.7500*%
%ADD64C,1.5080*%
%ADD65R,1.5080X1.5080*%
%ADD66C,3.1750*%
D59*
X71120Y443230D02*
D03*
Y417830D02*
D03*
X13970Y443230D02*
D03*
Y417830D02*
D03*
D60*
X71120Y392430D02*
D03*
X13970D02*
D03*
D61*
X36830Y281940D02*
D03*
Y307340D02*
D03*
Y332740D02*
D03*
D62*
Y358140D02*
D03*
D63*
X201490Y349250D02*
D03*
Y119250D02*
D03*
X781490Y349250D02*
D03*
Y119250D02*
D03*
D64*
X250190Y361950D02*
D03*
Y336550D02*
D03*
X275590Y361950D02*
D03*
Y336550D02*
D03*
X300990Y361950D02*
D03*
Y336550D02*
D03*
X326390Y361950D02*
D03*
Y336550D02*
D03*
X351790Y361950D02*
D03*
Y336550D02*
D03*
X377190Y361950D02*
D03*
Y336550D02*
D03*
X402590Y361950D02*
D03*
Y336550D02*
D03*
X427990Y361950D02*
D03*
Y336550D02*
D03*
X453390Y361950D02*
D03*
Y336550D02*
D03*
X478790Y361950D02*
D03*
Y336550D02*
D03*
X504190Y361950D02*
D03*
Y336550D02*
D03*
X529590Y361950D02*
D03*
Y336550D02*
D03*
X554990Y361950D02*
D03*
Y336550D02*
D03*
X580390Y361950D02*
D03*
Y336550D02*
D03*
X605790Y361950D02*
D03*
Y336550D02*
D03*
X631190Y361950D02*
D03*
Y336550D02*
D03*
X656590Y361950D02*
D03*
Y336550D02*
D03*
X681990Y361950D02*
D03*
Y336550D02*
D03*
X707390Y361950D02*
D03*
Y336550D02*
D03*
X732790Y361950D02*
D03*
D65*
Y336550D02*
D03*
D66*
X836676Y693166D02*
D03*
Y57150D02*
D03*
X134620D02*
D03*
Y693166D02*
D03*
M02*
