G04 Layer_Color=8388736*
%FSLAX44Y44*%
%MOMM*%
G71*
G01*
G75*
%ADD76R,1.1032X1.2032*%
%ADD77R,0.9532X1.6532*%
%ADD78R,1.6532X0.8032*%
%ADD79R,1.6032X0.6532*%
%ADD80R,0.6532X1.5532*%
%ADD81R,1.6032X0.8032*%
%ADD82R,1.2032X1.1032*%
%ADD83R,2.3532X6.5032*%
%ADD84R,1.6032X1.3532*%
G04:AMPARAMS|DCode=85|XSize=3.7032mm|YSize=7.2032mm|CornerRadius=0.9766mm|HoleSize=0mm|Usage=FLASHONLY|Rotation=0.000|XOffset=0mm|YOffset=0mm|HoleType=Round|Shape=RoundedRectangle|*
%AMROUNDEDRECTD85*
21,1,3.7032,5.2500,0,0,0.0*
21,1,1.7500,7.2032,0,0,0.0*
1,1,1.9532,0.8750,-2.6250*
1,1,1.9532,-0.8750,-2.6250*
1,1,1.9532,-0.8750,2.6250*
1,1,1.9532,0.8750,2.6250*
%
%ADD85ROUNDEDRECTD85*%
%ADD86R,1.0032X0.5032*%
%ADD87R,1.0032X0.6032*%
%ADD88R,0.8032X1.6032*%
%ADD89C,1.7032*%
%ADD90R,1.7032X1.7032*%
%ADD91C,2.0032*%
%ADD92R,2.0032X2.0032*%
%ADD93C,2.9532*%
%ADD94C,1.7112*%
%ADD95R,1.7112X1.7112*%
G04:AMPARAMS|DCode=96|XSize=0.2032mm|YSize=0.2032mm|CornerRadius=0mm|HoleSize=0mm|Usage=FLASHONLY|Rotation=0.000|XOffset=0mm|YOffset=0mm|HoleType=Round|Shape=RoundedRectangle|*
%AMROUNDEDRECTD96*
21,1,0.2032,0.2032,0,0,0.0*
21,1,0.2032,0.2032,0,0,0.0*
1,1,0.0000,0.1016,-0.1016*
1,1,0.0000,-0.1016,-0.1016*
1,1,0.0000,-0.1016,0.1016*
1,1,0.0000,0.1016,0.1016*
%
%ADD96ROUNDEDRECTD96*%
%ADD97C,3.3782*%
%ADD98C,0.8032*%
D76*
X108350Y237490D02*
D03*
X94850D02*
D03*
X145180Y180340D02*
D03*
X131680D02*
D03*
X145180Y163830D02*
D03*
X131680D02*
D03*
X145180Y196850D02*
D03*
X131680D02*
D03*
X145180Y213360D02*
D03*
X131680D02*
D03*
X108350Y252730D02*
D03*
X94850D02*
D03*
X108350Y218440D02*
D03*
X94850D02*
D03*
X108350Y302260D02*
D03*
X94850D02*
D03*
X108350Y287020D02*
D03*
X94850D02*
D03*
X108350Y267970D02*
D03*
X94850D02*
D03*
X535070Y222250D02*
D03*
X521570D02*
D03*
X280270Y309880D02*
D03*
X293770D02*
D03*
X521570Y205740D02*
D03*
X535070D02*
D03*
X401720Y255270D02*
D03*
X388220D02*
D03*
X401720Y238760D02*
D03*
X388220D02*
D03*
X898290Y177800D02*
D03*
X884790D02*
D03*
X828910Y186690D02*
D03*
X842410D02*
D03*
X860190Y242570D02*
D03*
X846690D02*
D03*
X661270Y240030D02*
D03*
X674770D02*
D03*
X971950Y165100D02*
D03*
X958450D02*
D03*
X971950Y147320D02*
D03*
X958450D02*
D03*
D77*
X470470Y189230D02*
D03*
X446470D02*
D03*
D78*
X313000Y252730D02*
D03*
Y265430D02*
D03*
Y278130D02*
D03*
Y290830D02*
D03*
X258500Y252730D02*
D03*
Y265430D02*
D03*
Y278130D02*
D03*
Y290830D02*
D03*
D79*
X487970Y209510D02*
D03*
Y216010D02*
D03*
Y222510D02*
D03*
Y229010D02*
D03*
Y235510D02*
D03*
Y242010D02*
D03*
Y248510D02*
D03*
Y255010D02*
D03*
Y261510D02*
D03*
Y268010D02*
D03*
X428970Y209510D02*
D03*
Y216010D02*
D03*
Y222510D02*
D03*
Y229010D02*
D03*
Y235510D02*
D03*
Y242010D02*
D03*
Y248510D02*
D03*
Y255010D02*
D03*
Y261510D02*
D03*
Y268010D02*
D03*
D80*
X933040Y337210D02*
D03*
X926540D02*
D03*
X920040D02*
D03*
X913540D02*
D03*
X933040Y292710D02*
D03*
X926540D02*
D03*
X920040D02*
D03*
X913540D02*
D03*
D81*
X832050Y205130D02*
D03*
Y224130D02*
D03*
X857050D02*
D03*
Y214630D02*
D03*
Y205130D02*
D03*
D82*
X396240Y287890D02*
D03*
Y301390D02*
D03*
X364490Y287890D02*
D03*
Y301390D02*
D03*
X339090Y287890D02*
D03*
Y301390D02*
D03*
X504190Y179940D02*
D03*
Y193440D02*
D03*
X487680Y179940D02*
D03*
Y193440D02*
D03*
X429260Y179940D02*
D03*
Y193440D02*
D03*
X892810Y141770D02*
D03*
Y128270D02*
D03*
X659130Y210420D02*
D03*
Y223920D02*
D03*
X675640Y210420D02*
D03*
Y223920D02*
D03*
X576580D02*
D03*
Y210420D02*
D03*
X593090D02*
D03*
Y223920D02*
D03*
X609600D02*
D03*
Y210420D02*
D03*
X850900Y292100D02*
D03*
Y305600D02*
D03*
D83*
X902970Y243840D02*
D03*
X944470D02*
D03*
D84*
X894080Y320180D02*
D03*
Y337680D02*
D03*
X952500Y309740D02*
D03*
Y292240D02*
D03*
D85*
X70250Y511810D02*
D03*
X908250D02*
D03*
D86*
X51670Y190110D02*
D03*
Y195110D02*
D03*
Y200110D02*
D03*
Y205110D02*
D03*
Y210110D02*
D03*
Y215110D02*
D03*
Y220110D02*
D03*
Y225110D02*
D03*
Y230110D02*
D03*
Y235110D02*
D03*
D87*
X26670Y180110D02*
D03*
Y245110D02*
D03*
D88*
X934060Y146250D02*
D03*
X915060D02*
D03*
Y171250D02*
D03*
X924560D02*
D03*
X934060D02*
D03*
D89*
X71120Y443230D02*
D03*
Y417830D02*
D03*
X13970Y443230D02*
D03*
Y417830D02*
D03*
X295402Y75438D02*
D03*
X933450Y459740D02*
D03*
X711200Y232410D02*
D03*
X638810Y31750D02*
D03*
X227330Y24130D02*
D03*
X745490D02*
D03*
X928370Y381000D02*
D03*
D90*
X71120Y392430D02*
D03*
X13970D02*
D03*
D91*
X36830Y281940D02*
D03*
Y307340D02*
D03*
Y332740D02*
D03*
D92*
Y358140D02*
D03*
D93*
X201490Y349250D02*
D03*
Y119250D02*
D03*
X781490Y349250D02*
D03*
Y119250D02*
D03*
D94*
X250190Y361950D02*
D03*
Y336550D02*
D03*
X275590Y361950D02*
D03*
Y336550D02*
D03*
X300990Y361950D02*
D03*
Y336550D02*
D03*
X326390Y361950D02*
D03*
Y336550D02*
D03*
X351790Y361950D02*
D03*
Y336550D02*
D03*
X377190Y361950D02*
D03*
Y336550D02*
D03*
X402590Y361950D02*
D03*
Y336550D02*
D03*
X427990Y361950D02*
D03*
Y336550D02*
D03*
X453390Y361950D02*
D03*
Y336550D02*
D03*
X478790Y361950D02*
D03*
Y336550D02*
D03*
X504190Y361950D02*
D03*
Y336550D02*
D03*
X529590Y361950D02*
D03*
Y336550D02*
D03*
X554990Y361950D02*
D03*
Y336550D02*
D03*
X580390Y361950D02*
D03*
Y336550D02*
D03*
X605790Y361950D02*
D03*
Y336550D02*
D03*
X631190Y361950D02*
D03*
Y336550D02*
D03*
X656590Y361950D02*
D03*
Y336550D02*
D03*
X681990Y361950D02*
D03*
Y336550D02*
D03*
X707390Y361950D02*
D03*
Y336550D02*
D03*
X732790Y361950D02*
D03*
D95*
Y336550D02*
D03*
D96*
X126490Y349250D02*
D03*
Y119250D02*
D03*
X856490Y349250D02*
D03*
Y119250D02*
D03*
D97*
X836676Y693166D02*
D03*
Y57150D02*
D03*
X134620D02*
D03*
Y693166D02*
D03*
D98*
X360680Y236220D02*
D03*
M02*
